<svg width="446" height="267" viewBox="0 0 446 267" fill="none" xmlns="http://www.w3.org/2000/svg">
<g filter="url(#filter0_b_1_518)">
<rect x="-6.10352e-05" y="267" width="266.358" height="445.388" rx="35" transform="rotate(-90 -6.10352e-05 267)" fill="white" fill-opacity="0.2"/>
<rect x="0.499939" y="266.5" width="265.358" height="444.388" rx="34.5" transform="rotate(-90 0.499939 266.5)" stroke="url(#paint0_radial_1_518)"/>
</g>
<path d="M386.935 133.841C386.897 128.733 386.035 123.787 384.371 118.991C383.591 116.744 382.648 114.564 381.471 112.5C380.406 110.635 381.199 108.753 383.244 108.253C384.031 108.06 385.261 108.538 385.676 109.334C386.579 111.058 387.472 112.792 388.258 114.573C389.623 117.658 390.572 120.894 391.171 124.223C391.524 126.191 391.724 128.194 391.924 130.188C392.055 131.494 392.136 132.817 392.114 134.127C392.058 137.038 391.833 139.94 391.303 142.81C390.712 145.998 389.888 149.118 388.655 152.103C387.843 154.068 386.9 155.978 385.96 157.885C385.448 158.919 384.249 159.564 383.372 159.423C382.126 159.224 381.274 158.379 381.033 157.105C380.899 156.395 381.124 155.766 381.458 155.166C383.456 151.571 384.902 147.75 385.764 143.712C386.182 141.76 386.426 139.764 386.669 137.777C386.828 136.476 386.85 135.154 386.935 133.841Z" fill="#05FF69"/>
<path d="M381.408 133.824C381.387 138.28 380.678 142.617 379.151 146.774C378.389 148.848 377.399 150.838 376.422 152.819C375.804 154.074 374.602 154.524 373.362 154.158C372.198 153.814 371.352 152.697 371.526 151.403C371.629 150.643 372.098 149.936 372.401 149.208C373.159 147.378 373.981 145.574 374.658 143.715C375.417 141.632 375.713 139.42 376.013 137.224C376.085 136.698 376.104 136.161 376.11 135.629C376.125 134.688 376.116 133.747 376.113 132.807C376.107 130.197 375.676 127.645 375.02 125.135C374.315 122.444 373.262 119.899 371.907 117.482C370.896 115.674 371.876 113.645 373.874 113.344C374.811 113.202 375.901 113.838 376.466 114.868C378.52 118.615 380.016 122.579 380.725 126.826C380.984 128.38 381.105 129.959 381.265 131.529C381.343 132.293 381.365 133.06 381.408 133.824Z" fill="#05FF69"/>
<path d="M370.686 133.828C370.702 138.428 369.537 142.704 367.455 146.729C367.015 147.58 366.612 148.472 365.681 148.951C364.061 149.785 362.05 148.543 361.969 146.691C361.925 145.728 362.406 145.021 362.812 144.273C363.93 142.222 364.732 140.052 365.063 137.728C365.266 136.29 365.46 134.829 365.435 133.385C365.385 130.483 364.823 127.667 363.602 125.029C363.181 124.114 362.665 123.247 362.244 122.332C361.395 120.499 362.565 118.576 364.333 118.461C365.522 118.384 366.322 118.936 366.921 119.96C368.66 122.939 369.79 126.155 370.346 129.568C370.571 130.967 370.58 132.406 370.686 133.828Z" fill="#05FF69"/>
<g opacity="0.2">
<path d="M59.4097 36.5545L76.0202 36.5546L76.0202 33.9159L79.9782 33.9159L79.9782 36.5546L84.4553 36.5546L84.4553 41.0316L79.9782 41.0316L79.9782 47.2173L76.0202 47.2173L76.0202 41.0316L63.346 41.0316L63.346 47.4336L59.4097 47.4336L59.4097 36.5545Z" fill="white"/>
<path d="M58.9122 57.2312C58.9122 55.4577 59.3664 53.8356 60.2748 52.3649C61.1831 50.8941 62.4592 49.7046 64.103 48.8394C65.7467 47.9743 67.6068 47.5417 69.6615 47.5417C71.7594 47.5417 73.6194 47.9743 75.2632 48.8394C76.9069 49.7046 78.183 50.8725 79.0914 52.3649C79.9998 53.8356 80.454 55.4577 80.454 57.2312C80.454 58.5073 80.2377 59.632 79.8268 60.5836C79.4158 61.5569 78.9184 62.3355 78.3344 62.9195C77.7721 63.5251 77.3179 63.9144 76.9934 64.109L76.9934 64.2388L79.9565 64.2388L79.9565 68.7159L59.4096 68.7159L59.4096 64.2388L62.3727 64.2388L62.3727 64.109C62.0267 63.9144 61.5725 63.5251 61.0101 62.9195C60.4478 62.3139 59.972 61.5353 59.5394 60.5836C59.1285 59.632 58.9122 58.5073 58.9122 57.2312ZM62.8702 58.1396C62.8702 59.2859 63.1513 60.3241 63.7137 61.2541C64.276 62.1841 65.0546 62.9195 66.0928 63.4602C67.1309 63.9793 68.3205 64.2604 69.6831 64.2604C71.0673 64.2604 72.2785 64.0009 73.3166 63.4602C74.3548 62.9411 75.1334 62.2058 75.6957 61.2541C76.2581 60.3241 76.5393 59.2859 76.5393 58.1396C76.5393 57.0366 76.2581 55.9984 75.6957 55.09C75.1334 54.16 74.3548 53.4463 73.3166 52.9056C72.2785 52.3865 71.0673 52.1053 69.6831 52.1053C68.3205 52.1053 67.1309 52.3649 66.0928 52.9056C65.0546 53.4247 64.276 54.16 63.7137 55.09C63.1513 55.9984 62.8702 57.0149 62.8702 58.1396Z" fill="white"/>
<path d="M51.6667 71.376L79.9782 71.376L79.9782 75.8098L77.0151 75.8098L77.0151 75.9396C77.3612 76.1558 77.8154 76.5668 78.3777 77.1507C78.94 77.7563 79.4159 78.5133 79.8484 79.465C80.2594 80.4166 80.4756 81.5413 80.4756 82.839C80.4756 84.6125 80.0214 86.213 79.1131 87.6837C78.2047 89.1545 76.9286 90.3224 75.2849 91.1875C73.6411 92.0526 71.7811 92.4852 69.6831 92.4852C67.6284 92.4852 65.7684 92.0526 64.1246 91.1875C62.4809 90.3224 61.2048 89.1545 60.2964 87.6837C59.388 86.213 58.9338 84.6125 58.9338 82.839C58.9338 81.5413 59.1501 80.4166 59.5611 79.465C59.972 78.5133 60.4694 77.7347 61.0318 77.1507C61.5941 76.5451 62.0483 76.1558 62.3944 75.9396L62.3944 75.8098L51.6883 75.8098L51.6883 71.376L51.6667 71.376ZM62.8702 81.909C62.8702 83.0553 63.1514 84.0718 63.7137 84.9802C64.276 85.8886 65.0547 86.6023 66.0928 87.143C67.131 87.6621 68.3205 87.9433 69.6831 87.9433C71.0673 87.9433 72.2785 87.6837 73.3167 87.143C74.3548 86.6239 75.1334 85.8886 75.6958 84.9802C76.2581 84.0718 76.5393 83.0553 76.5393 81.909C76.5393 80.7627 76.2581 79.7245 75.6958 78.7945C75.1334 77.8645 74.3548 77.1291 73.3167 76.5884C72.2785 76.0693 71.0673 75.7882 69.6831 75.7882C68.3205 75.7882 67.131 76.0477 66.0928 76.5884C65.0547 77.1075 64.276 77.8428 63.7137 78.7945C63.1514 79.7245 62.8702 80.7627 62.8702 81.909Z" fill="white"/>
<path d="M59.4097 94.4534L87.9158 94.4534L87.9158 107.236C87.9158 109.442 87.5048 111.345 86.7046 112.967C85.9043 114.589 84.8013 115.844 83.3955 116.709C81.9896 117.574 80.4107 118.007 78.6805 118.007C76.5609 118.007 74.7441 117.379 73.2518 116.103C71.7378 114.849 70.6564 113.14 70.0075 110.999L59.4096 117.92L59.4097 112.34L69.3803 105.916L69.3803 99.2765L59.4097 99.2765L59.4097 94.4534ZM73.9439 107.171C73.9439 109.096 74.3764 110.566 75.2199 111.561C76.0851 112.556 77.2314 113.075 78.6589 113.075C80.0647 113.075 81.211 112.578 82.0545 111.561C82.9196 110.566 83.3306 109.096 83.3306 107.171L83.3306 99.3197L73.9222 99.3197L73.9222 107.171L73.9439 107.171Z" fill="white"/>
<path d="M58.9122 128.626C58.9122 126.615 59.388 124.798 60.318 123.176C61.248 121.554 62.5457 120.256 64.1895 119.304C65.8332 118.353 67.65 117.877 69.6615 117.877C71.6729 117.877 73.5113 118.353 75.155 119.304C76.8204 120.256 78.1181 121.554 79.0481 123.176C79.9782 124.798 80.454 126.615 80.454 128.626C80.454 130.659 79.9782 132.498 79.0481 134.12C78.1181 135.742 76.8204 137.018 75.1767 137.948C73.5329 138.878 71.7378 139.332 69.7912 139.332L68.58 139.332L68.58 122.44C67.5203 122.57 66.547 122.938 65.6818 123.522C64.8167 124.106 64.1246 124.841 63.6271 125.75C63.1297 126.636 62.8702 127.61 62.8702 128.648C62.8702 130.054 63.1513 131.243 63.7353 132.238C64.3193 133.211 65.0546 133.925 65.9197 134.401L65.9197 139.051C63.9732 138.38 62.3078 137.148 60.9452 135.396C59.6043 133.601 58.9122 131.373 58.9122 128.626ZM71.7161 134.574C72.5813 134.444 73.3815 134.098 74.1169 133.579C74.8522 133.06 75.4362 132.368 75.8688 131.503C76.3013 130.638 76.5176 129.686 76.5176 128.626C76.5176 127.588 76.3013 126.658 75.8688 125.793C75.4362 124.928 74.8522 124.236 74.1169 123.695C73.3815 123.154 72.5813 122.765 71.7161 122.549L71.7161 134.574Z" fill="white"/>
<path d="M58.9122 149.433C58.9122 147.659 59.3664 146.037 60.2748 144.566C61.1831 143.096 62.4592 141.906 64.103 141.041C65.7467 140.176 67.6068 139.743 69.6615 139.743C71.7594 139.743 73.6194 140.176 75.2632 141.041C76.9069 141.906 78.183 143.074 79.0914 144.566C79.9998 146.037 80.454 147.659 80.454 149.433C80.454 150.709 80.2377 151.833 79.8268 152.785C79.4158 153.758 78.9184 154.537 78.3344 155.121C77.7721 155.726 77.3179 156.116 76.9934 156.31L76.9934 156.44L79.9565 156.44L79.9565 160.917L59.4096 160.917L59.4096 156.44L62.3727 156.44L62.3727 156.31C62.0267 156.116 61.5725 155.726 61.0101 155.121C60.4478 154.515 59.972 153.737 59.5394 152.785C59.1285 151.833 58.9122 150.709 58.9122 149.433ZM62.8702 150.319C62.8702 151.466 63.1513 152.504 63.7137 153.434C64.276 154.364 65.0546 155.099 66.0928 155.64C67.1309 156.159 68.3205 156.44 69.6831 156.44C71.0673 156.44 72.2785 156.181 73.3166 155.64C74.3548 155.121 75.1334 154.386 75.6957 153.434C76.2581 152.504 76.5393 151.466 76.5393 150.319C76.5393 149.216 76.2581 148.178 75.6957 147.27C75.1334 146.34 74.3548 145.626 73.3166 145.085C72.2785 144.566 71.0673 144.285 69.6831 144.285C68.3205 144.285 67.1309 144.545 66.0928 145.085C65.0546 145.604 64.276 146.34 63.7137 147.27C63.1513 148.2 62.8702 149.216 62.8702 150.319Z" fill="white"/>
<path d="M58.9121 172.121C58.9121 170.347 59.3663 168.725 60.2747 167.255C61.1831 165.784 62.4592 164.594 64.1029 163.729C65.7467 162.864 67.6067 162.431 69.6614 162.431C71.7594 162.431 73.6194 162.864 75.2631 163.729C76.9069 164.594 78.183 165.762 79.0914 167.255C79.9997 168.725 80.4539 170.347 80.4539 172.121C80.4539 173.397 80.2377 174.522 79.8267 175.473C79.4158 176.447 78.9183 177.225 78.356 177.809C77.7937 178.415 77.3395 178.804 76.9934 178.999L76.9934 179.128L87.9157 179.128L87.9157 183.606L59.4096 183.606L59.4096 179.128L62.3727 179.128L62.3727 178.999C62.0266 178.804 61.5724 178.415 61.0101 177.809C60.4478 177.204 59.9719 176.425 59.5394 175.473C59.1284 174.5 58.9121 173.375 58.9121 172.121ZM62.8701 173.008C62.8701 174.154 63.1513 175.192 63.7136 176.122C64.276 177.052 65.0546 177.788 66.0927 178.328C67.1309 178.847 68.3205 179.128 69.683 179.128C71.0673 179.128 72.2784 178.869 73.3166 178.328C74.3548 177.809 75.1334 177.074 75.6957 176.122C76.258 175.192 76.5392 174.154 76.5392 173.008C76.5392 171.905 76.258 170.866 75.6957 169.958C75.1334 169.028 74.3548 168.314 73.3166 167.774C72.2784 167.255 71.0673 166.973 69.683 166.973C68.3205 166.973 67.1309 167.233 66.0927 167.774C65.0546 168.293 64.276 169.028 63.7136 169.958C63.1513 170.866 62.8701 171.883 62.8701 173.008Z" fill="white"/>
<path d="M51.6667 192.019L59.4097 194.376L59.4097 189.769L79.9782 184.276L79.9782 188.969L63.3677 193.252L63.3677 195.566L79.9782 200.497L79.9782 205.147L51.6667 196.712L51.6667 192.019Z" fill="white"/>
<path d="M69.4019 226.321C72.8408 226.3 76.1716 225.694 79.4158 224.548C80.9298 224.007 82.4005 223.358 83.7847 222.536C85.0392 221.801 86.3152 222.342 86.6397 223.769C86.7694 224.31 86.445 225.175 85.9043 225.456C84.7364 226.083 83.5684 226.711 82.3789 227.251C80.3026 228.203 78.1181 228.852 75.8688 229.263C74.5494 229.501 73.1869 229.652 71.8459 229.782C70.9591 229.868 70.0724 229.933 69.1856 229.912C67.2174 229.868 65.2709 229.717 63.3243 229.349C61.1831 228.938 59.0636 228.376 57.0738 227.511C55.7544 226.949 54.4567 226.3 53.1807 225.651C52.4886 225.305 52.056 224.461 52.1425 223.856C52.2723 222.991 52.8346 222.407 53.6997 222.234C54.1756 222.147 54.6081 222.299 54.9974 222.536C57.4198 223.921 59.9936 224.916 62.7187 225.521C64.0381 225.802 65.379 225.975 66.72 226.148C67.6284 226.256 68.5151 226.257 69.4019 226.321Z" fill="white"/>
<path d="M69.4018 222.493C66.3954 222.471 63.4756 221.996 60.6855 220.936C59.2797 220.417 57.9387 219.725 56.6194 219.054C55.7759 218.622 55.4731 217.8 55.711 216.935C55.9489 216.134 56.7059 215.55 57.5711 215.658C58.0901 215.723 58.566 216.048 59.0418 216.264C60.2746 216.783 61.4858 217.367 62.7402 217.821C64.1461 218.34 65.6384 218.557 67.1091 218.751C67.4552 218.795 67.8229 218.816 68.1906 218.816C68.8178 218.816 69.4666 218.816 70.0939 218.816C71.8458 218.816 73.576 218.513 75.263 218.059C77.0798 217.562 78.7884 216.848 80.4106 215.896C81.6217 215.204 82.9843 215.875 83.2006 217.259C83.2871 217.908 82.8762 218.665 82.1625 219.054C79.632 220.482 76.9717 221.52 74.1167 221.996C73.0786 222.169 71.9972 222.255 70.959 222.363C70.4399 222.45 69.9208 222.471 69.4018 222.493Z" fill="white"/>
<path d="M69.402 215.074C66.3091 215.074 63.4325 214.274 60.7074 212.825C60.145 212.522 59.5394 212.241 59.215 211.592C58.6527 210.468 59.4962 209.083 60.729 209.019C61.3778 208.997 61.8537 209.321 62.3511 209.602C63.7353 210.381 65.1844 210.943 66.7633 211.16C67.7366 211.311 68.7098 211.441 69.6831 211.419C71.6297 211.376 73.533 210.987 75.3065 210.143C75.9121 209.84 76.5177 209.494 77.1233 209.192C78.3561 208.608 79.6538 209.408 79.7403 210.641C79.7835 211.463 79.4159 212.025 78.7238 212.436C76.7123 213.647 74.5495 214.426 72.2569 214.815C71.3269 214.988 70.3536 214.988 69.402 215.074Z" fill="white"/>
<path d="M44.7454 127.956C44.9401 128.28 45.0482 128.648 45.0482 129.08C45.0482 129.513 44.9617 129.881 44.7671 130.205C44.5724 130.529 44.2912 130.789 43.9452 130.984C43.5775 131.178 43.1666 131.265 42.6907 131.265C42.2149 131.265 41.804 131.178 41.4363 130.984C41.0686 130.789 40.7875 130.529 40.5928 130.205C40.3981 129.881 40.29 129.491 40.29 129.08C40.29 128.648 40.3981 128.258 40.5928 127.956C40.7875 127.631 41.047 127.415 41.3714 127.264L40.3549 127.264L40.3549 126.68L46.6055 126.68L46.6055 127.264L43.9452 127.264C44.2912 127.393 44.5508 127.631 44.7454 127.956ZM43.6856 130.443C43.9668 130.291 44.1831 130.097 44.3129 129.837C44.4643 129.578 44.5292 129.297 44.5292 128.951C44.5292 128.626 44.4426 128.345 44.2912 128.085C44.1398 127.826 43.9236 127.61 43.6424 127.458C43.3612 127.307 43.0368 127.22 42.6691 127.22C42.3014 127.22 41.977 127.307 41.6958 127.458C41.4147 127.61 41.1984 127.826 41.047 128.085C40.8956 128.345 40.8091 128.626 40.8091 128.951C40.8091 129.275 40.874 129.578 41.0254 129.837C41.1768 130.097 41.393 130.291 41.6742 130.443C41.9554 130.594 42.2798 130.659 42.6691 130.659C43.0584 130.681 43.4045 130.594 43.6856 130.443Z" fill="white"/>
<path d="M44.9834 136.153L38.2137 133.428L38.2137 132.8L40.3982 133.687L44.9834 131.805L44.9834 132.454L41.047 134.033L44.9834 135.547L44.9834 136.153Z" fill="white"/>
<path d="M40.8524 139.873L40.8524 141.992L40.3765 141.992L40.3765 139.289L46.2811 139.289L46.2811 139.873L40.8524 139.873Z" fill="white"/>
<path d="M45.9784 142.814C46.0649 142.728 46.173 142.685 46.2812 142.685C46.3893 142.685 46.4975 142.728 46.584 142.814C46.6705 142.901 46.7137 143.009 46.7137 143.117C46.7137 143.225 46.6705 143.333 46.584 143.42C46.4975 143.506 46.3893 143.55 46.2812 143.55C46.173 143.55 46.0433 143.506 45.9784 143.42C45.8919 143.333 45.8486 143.225 45.8486 143.117C45.8486 143.009 45.8919 142.901 45.9784 142.814ZM44.9835 143.42L40.3767 143.42L40.3767 142.836L44.9835 142.836L44.9835 143.42Z" fill="white"/>
<path d="M40.3765 147.248L42.4529 145.345L40.3765 145.345L40.3765 144.761L46.6271 144.761L46.6271 145.345L42.9287 145.345L44.9834 147.205L44.9834 148.027L42.6908 145.842L40.3765 148.048L40.3765 147.248Z" fill="white"/>
<path d="M42.453 152.958L42.453 149.13C42.1069 149.151 41.8041 149.238 41.5662 149.389C41.3283 149.541 41.1336 149.735 41.0039 149.995C40.8741 150.233 40.8092 150.514 40.8092 150.795C40.8092 151.184 40.8957 151.509 41.0904 151.768C41.285 152.028 41.5229 152.201 41.8474 152.287L41.8474 152.915C41.3932 152.807 41.0255 152.569 40.7443 152.201C40.4632 151.833 40.3118 151.379 40.3118 150.817C40.3118 150.384 40.3983 149.995 40.5929 149.649C40.7876 149.303 41.0687 149.043 41.4148 148.849C41.7609 148.654 42.1934 148.567 42.6692 148.567C43.1451 148.567 43.556 148.654 43.9237 148.849C44.2914 149.043 44.5509 149.303 44.7456 149.649C44.9402 149.995 45.0267 150.384 45.0267 150.817C45.0267 151.249 44.9402 151.639 44.7456 151.963C44.5509 152.287 44.2914 152.547 43.9669 152.72C43.6425 152.893 43.2748 152.98 42.8855 152.98C42.7125 152.98 42.5611 152.98 42.453 152.958ZM43.8156 152.179C44.0535 152.028 44.2481 151.833 44.3563 151.595C44.486 151.357 44.5509 151.076 44.5509 150.795C44.5509 150.363 44.3995 149.973 44.1183 149.67C43.8372 149.368 43.4479 149.195 42.9288 149.151L42.9288 152.396C43.2748 152.396 43.556 152.309 43.8156 152.179Z" fill="white"/>
<path d="M44.5509 157.565C44.2049 157.911 43.7074 158.084 43.0802 158.084L40.3767 158.084L40.3767 157.5L43.0153 157.5C43.5128 157.5 43.9021 157.37 44.1616 157.132C44.4212 156.873 44.5509 156.548 44.5509 156.116C44.5509 155.662 44.3995 155.315 44.1184 155.056C43.8372 154.796 43.4262 154.667 42.8855 154.667L40.3767 154.667L40.3767 154.083L44.9835 154.083L44.9835 154.667L44.2049 154.667C44.486 154.818 44.7023 155.034 44.8537 155.294C45.0051 155.553 45.07 155.878 45.07 156.224C45.07 156.765 44.897 157.219 44.5509 157.565Z" fill="white"/>
<path d="M42.453 163.556L42.453 159.727C42.1069 159.749 41.8041 159.836 41.5662 159.987C41.3283 160.138 41.1336 160.333 41.0039 160.593C40.8741 160.831 40.8092 161.112 40.8092 161.393C40.8092 161.782 40.8957 162.107 41.0904 162.366C41.285 162.626 41.5229 162.799 41.8474 162.885L41.8474 163.512C41.3932 163.404 41.0255 163.166 40.7443 162.799C40.4632 162.431 40.3118 161.977 40.3118 161.414C40.3118 160.982 40.3983 160.593 40.5929 160.247C40.7876 159.901 41.0687 159.641 41.4148 159.446C41.7609 159.252 42.1934 159.165 42.6692 159.165C43.1451 159.165 43.556 159.252 43.9237 159.446C44.2914 159.641 44.5509 159.901 44.7456 160.247C44.9402 160.593 45.0267 160.982 45.0267 161.414C45.0267 161.847 44.9402 162.236 44.7456 162.561C44.5509 162.885 44.2914 163.145 43.9669 163.318C43.6425 163.491 43.2748 163.577 42.8855 163.577C42.7125 163.577 42.5611 163.577 42.453 163.556ZM43.8156 162.777C44.0535 162.626 44.2481 162.431 44.3563 162.193C44.486 161.955 44.5509 161.674 44.5509 161.393C44.5509 160.96 44.3995 160.571 44.1183 160.268C43.8372 159.965 43.4479 159.792 42.9288 159.749L42.9288 162.993C43.2748 162.972 43.556 162.907 43.8156 162.777Z" fill="white"/>
<path d="M40.6795 164.94C40.9174 164.616 41.2634 164.421 41.6744 164.378L41.6744 164.983C41.4148 165.005 41.1985 165.135 41.0471 165.351C40.8957 165.567 40.8092 165.848 40.8092 166.216C40.8092 166.541 40.8957 166.778 41.0471 166.973C41.1985 167.146 41.3932 167.254 41.6095 167.254C41.7609 167.254 41.8906 167.211 41.9988 167.103C42.1069 166.995 42.1718 166.865 42.2367 166.714C42.3016 166.562 42.3665 166.346 42.4314 166.086C42.5179 165.74 42.6044 165.459 42.6909 165.243C42.7774 165.027 42.9072 164.854 43.1018 164.702C43.2748 164.551 43.5128 164.486 43.8156 164.486C44.0319 164.486 44.2481 164.551 44.4428 164.68C44.6374 164.81 44.7888 165.005 44.897 165.264C45.0051 165.502 45.07 165.784 45.07 166.108C45.07 166.605 44.9402 166.995 44.7023 167.298C44.4428 167.6 44.0967 167.773 43.6642 167.795L43.6642 167.211C43.9237 167.189 44.1616 167.081 44.313 166.887C44.486 166.692 44.5726 166.432 44.5726 166.086C44.5726 165.784 44.5077 165.546 44.3563 165.351C44.2049 165.156 44.0318 165.07 43.8372 165.07C43.6642 165.07 43.5128 165.135 43.4046 165.243C43.2965 165.351 43.1883 165.481 43.1451 165.654C43.0802 165.827 43.0153 166.043 42.9288 166.303C42.8423 166.627 42.7558 166.908 42.6693 167.103C42.5827 167.298 42.453 167.471 42.3016 167.6C42.1502 167.73 41.9123 167.817 41.6527 167.817C41.4148 167.817 41.1769 167.752 40.9823 167.622C40.7876 167.492 40.6362 167.298 40.5281 167.06C40.4199 166.822 40.355 166.541 40.355 166.216C40.3118 165.719 40.4199 165.286 40.6795 164.94Z" fill="white"/>
<path d="M40.6795 169.244C40.9174 168.92 41.2634 168.725 41.6744 168.682L41.6744 169.287C41.4148 169.309 41.1985 169.439 41.0471 169.655C40.8957 169.871 40.8092 170.152 40.8092 170.52C40.8092 170.845 40.8957 171.083 41.0471 171.277C41.1985 171.45 41.3932 171.558 41.6095 171.558C41.7609 171.558 41.8906 171.515 41.9988 171.407C42.1069 171.299 42.1718 171.169 42.2367 171.018C42.3016 170.866 42.3665 170.65 42.4314 170.39C42.5179 170.044 42.6044 169.763 42.6909 169.547C42.7774 169.331 42.9072 169.158 43.1018 169.006C43.2748 168.855 43.5128 168.79 43.8156 168.79C44.0319 168.79 44.2481 168.855 44.4428 168.985C44.6374 169.114 44.7888 169.309 44.897 169.569C45.0051 169.806 45.07 170.088 45.07 170.412C45.07 170.909 44.9402 171.299 44.7023 171.602C44.4428 171.904 44.0967 172.077 43.6642 172.099L43.6642 171.515C43.9237 171.493 44.1616 171.385 44.313 171.191C44.486 170.996 44.5726 170.736 44.5726 170.39C44.5726 170.088 44.5077 169.85 44.3563 169.655C44.2049 169.46 44.0318 169.374 43.8372 169.374C43.6642 169.374 43.5128 169.439 43.4046 169.547C43.2965 169.655 43.1883 169.785 43.1451 169.958C43.0802 170.131 43.0153 170.347 42.9288 170.607C42.8423 170.931 42.7558 171.212 42.6693 171.407C42.5827 171.602 42.453 171.775 42.3016 171.904C42.1502 172.034 41.9123 172.121 41.6527 172.121C41.4148 172.121 41.1769 172.056 40.9823 171.926C40.7876 171.796 40.6362 171.602 40.5281 171.364C40.4199 171.126 40.355 170.845 40.355 170.52C40.3118 170.023 40.4199 169.59 40.6795 169.244Z" fill="white"/>
<path d="M46.2811 179.02L45.7836 179.02L45.7836 177.376L40.3765 177.376L40.3765 176.792L45.7836 176.792L45.7836 175.149L46.2811 175.149L46.2811 179.02Z" fill="white"/>
<path d="M42.453 184.124L42.453 180.296C42.1069 180.318 41.8041 180.404 41.5662 180.556C41.3283 180.707 41.1336 180.902 41.0039 181.161C40.8741 181.399 40.8092 181.68 40.8092 181.961C40.8092 182.351 40.8957 182.675 41.0904 182.935C41.285 183.194 41.5229 183.367 41.8474 183.454L41.8474 184.081C41.3932 183.973 41.0255 183.735 40.7443 183.367C40.4632 183 40.3118 182.545 40.3118 181.983C40.3118 181.55 40.3983 181.161 40.5929 180.815C40.7876 180.469 41.0687 180.209 41.4148 180.015C41.7609 179.82 42.1934 179.734 42.6692 179.734C43.1451 179.734 43.556 179.82 43.9237 180.015C44.2914 180.209 44.5509 180.469 44.7456 180.815C44.9402 181.161 45.0267 181.55 45.0267 181.983C45.0267 182.416 44.9402 182.805 44.7456 183.129C44.5509 183.454 44.2914 183.713 43.9669 183.886C43.6425 184.059 43.2748 184.146 42.8855 184.146C42.7125 184.124 42.5611 184.124 42.453 184.124ZM43.8156 183.324C44.0535 183.173 44.2481 182.978 44.3563 182.74C44.486 182.502 44.5509 182.221 44.5509 181.94C44.5509 181.507 44.3995 181.118 44.1183 180.815C43.8372 180.512 43.4479 180.339 42.9288 180.296L42.9288 183.54C43.2748 183.54 43.556 183.475 43.8156 183.324Z" fill="white"/>
<path d="M43.9237 185.227C44.2914 185.422 44.5509 185.682 44.7456 186.028C44.9402 186.374 45.0267 186.741 45.0267 187.174C45.0267 187.736 44.8753 188.212 44.5942 188.58C44.313 188.947 43.9237 189.185 43.4479 189.293L43.4479 188.666C43.7723 188.58 44.0318 188.407 44.2265 188.147C44.4211 187.888 44.5076 187.563 44.5076 187.174C44.5076 186.871 44.4428 186.59 44.2914 186.33C44.14 186.092 43.9453 185.898 43.6642 185.746C43.383 185.595 43.0369 185.53 42.6476 185.53C42.2583 185.53 41.8906 185.595 41.6095 185.746C41.3283 185.898 41.112 186.092 40.9822 186.33C40.8308 186.568 40.766 186.849 40.766 187.174C40.766 187.563 40.8525 187.888 41.0471 188.147C41.2418 188.407 41.5013 188.58 41.8257 188.666L41.8257 189.293C41.3499 189.185 40.9822 188.947 40.6794 188.58C40.3983 188.212 40.2469 187.736 40.2469 187.174C40.2469 186.741 40.3334 186.352 40.528 186.028C40.7227 185.703 41.0039 185.422 41.3499 185.227C41.7176 185.033 42.1285 184.946 42.6044 184.946C43.0802 184.946 43.5776 185.033 43.9237 185.227Z" fill="white"/>
<path d="M44.8536 193.533C44.7022 193.814 44.4859 194.03 44.1831 194.181C43.8803 194.333 43.5127 194.419 43.0801 194.419L40.3765 194.419L40.3765 193.835L43.0152 193.835C43.5127 193.835 43.902 193.706 44.1615 193.468C44.421 193.208 44.5508 192.884 44.5508 192.451C44.5508 191.997 44.3994 191.651 44.1182 191.391C43.8371 191.132 43.4261 191.002 42.8854 191.002L40.3765 191.002L40.3765 190.418L46.6271 190.418L46.6271 191.002L44.2048 191.002C44.4859 191.153 44.7022 191.37 44.8536 191.651C45.005 191.932 45.0915 192.256 45.0915 192.603C45.0699 192.927 44.9834 193.251 44.8536 193.533Z" fill="white"/>
<path d="M44.5509 199.243C44.2049 199.589 43.7074 199.762 43.0802 199.762L40.3767 199.762L40.3767 199.178L43.0153 199.178C43.5128 199.178 43.9021 199.048 44.1616 198.81C44.4212 198.55 44.5509 198.226 44.5509 197.793C44.5509 197.339 44.3995 196.993 44.1184 196.734C43.8372 196.474 43.4262 196.344 42.8855 196.344L40.3767 196.344L40.3767 195.76L44.9835 195.76L44.9835 196.344L44.2049 196.344C44.486 196.496 44.7023 196.712 44.8537 196.972C45.0051 197.231 45.07 197.556 45.07 197.902C45.07 198.442 44.897 198.896 44.5509 199.243Z" fill="white"/>
<path d="M40.5929 201.924C40.7876 201.578 41.0687 201.297 41.4148 201.103C41.7825 200.908 42.1934 200.8 42.6692 200.8C43.1451 200.8 43.556 200.908 43.9237 201.103C44.2914 201.297 44.5509 201.578 44.7456 201.924C44.9402 202.271 45.0267 202.66 45.0267 203.092C45.0267 203.525 44.9402 203.914 44.7456 204.26C44.5509 204.606 44.2697 204.888 43.9237 205.082C43.556 205.277 43.1451 205.385 42.6692 205.385C42.1934 205.385 41.7825 205.277 41.4148 205.082C41.0471 204.888 40.7876 204.606 40.5929 204.239C40.3983 203.871 40.3118 203.482 40.3118 203.049C40.3118 202.66 40.3983 202.271 40.5929 201.924ZM41.0255 203.936C41.1553 204.195 41.3716 204.412 41.6527 204.563C41.9339 204.715 42.2799 204.801 42.6692 204.801C43.0586 204.801 43.4262 204.715 43.6858 204.563C43.9669 204.412 44.1616 204.195 44.313 203.936C44.4428 203.676 44.5293 203.395 44.5293 203.092C44.5293 202.79 44.4644 202.508 44.313 202.249C44.1832 201.989 43.9669 201.773 43.6858 201.622C43.4046 201.47 43.0586 201.384 42.6692 201.384C42.2799 201.384 41.9123 201.47 41.6527 201.622C41.3932 201.773 41.1553 201.989 41.0255 202.227C40.8957 202.487 40.8092 202.768 40.8092 203.071C40.8308 203.395 40.8957 203.676 41.0255 203.936Z" fill="white"/>
<path d="M46.6271 207.072L40.3765 207.072L40.3765 206.488L46.6271 206.488L46.6271 207.072Z" fill="white"/>
<path d="M40.5929 209.278C40.7876 208.932 41.0687 208.651 41.4148 208.456C41.7825 208.261 42.1934 208.153 42.6692 208.153C43.1451 208.153 43.556 208.261 43.9237 208.456C44.2914 208.651 44.5509 208.932 44.7456 209.278C44.9402 209.624 45.0267 210.013 45.0267 210.446C45.0267 210.878 44.9402 211.268 44.7456 211.614C44.5509 211.96 44.2697 212.241 43.9237 212.436C43.556 212.63 43.1451 212.739 42.6692 212.739C42.1934 212.739 41.7825 212.63 41.4148 212.436C41.0471 212.241 40.7876 211.96 40.5929 211.592C40.3983 211.225 40.3118 210.835 40.3118 210.403C40.3118 210.013 40.3983 209.624 40.5929 209.278ZM41.0255 211.289C41.1553 211.549 41.3716 211.765 41.6527 211.917C41.9339 212.068 42.2799 212.155 42.6692 212.155C43.0586 212.155 43.4262 212.068 43.6858 211.917C43.9669 211.765 44.1616 211.549 44.313 211.289C44.4428 211.03 44.5293 210.749 44.5293 210.446C44.5293 210.143 44.4644 209.862 44.313 209.602C44.1832 209.343 43.9669 209.127 43.6858 208.975C43.4046 208.824 43.0586 208.737 42.6692 208.737C42.2799 208.737 41.9123 208.824 41.6527 208.975C41.3932 209.127 41.1553 209.343 41.0255 209.581C40.8957 209.84 40.8092 210.121 40.8092 210.424C40.8308 210.749 40.8957 211.03 41.0255 211.289Z" fill="white"/>
<path d="M44.7456 216.913C44.5509 217.237 44.2914 217.454 43.967 217.605L44.9619 217.605L44.9619 218.189L40.2253 218.189C39.7927 218.189 39.425 218.102 39.1006 217.908C38.7762 217.735 38.5166 217.475 38.3436 217.151C38.1706 216.826 38.0841 216.459 38.0841 216.026C38.0841 215.442 38.2355 214.945 38.5166 214.555C38.7978 214.166 39.1871 213.928 39.6629 213.82L39.6629 214.404C39.3385 214.512 39.079 214.707 38.8843 214.988C38.6896 215.269 38.6031 215.615 38.6031 216.026C38.6031 216.329 38.668 216.588 38.7978 216.826C38.9276 217.064 39.1222 217.259 39.3601 217.389C39.598 217.519 39.9008 217.583 40.2469 217.583L41.3932 217.583C41.0688 217.432 40.8092 217.194 40.6146 216.891C40.3983 216.567 40.3118 216.199 40.3118 215.767C40.3118 215.334 40.4199 214.966 40.6146 214.642C40.8092 214.318 41.0904 214.036 41.4581 213.863C41.8258 213.669 42.2367 213.582 42.7125 213.582C43.1883 213.582 43.5993 213.669 43.967 213.863C44.3346 214.058 44.5942 214.318 44.7888 214.642C44.9835 214.966 45.07 215.356 45.07 215.767C45.0484 216.199 44.9402 216.588 44.7456 216.913ZM43.6642 217.367C43.9453 217.216 44.1616 216.999 44.313 216.74C44.4644 216.48 44.5509 216.199 44.5509 215.875C44.5509 215.55 44.486 215.248 44.3346 214.988C44.1832 214.728 43.967 214.534 43.7074 214.382C43.4263 214.231 43.1018 214.166 42.7125 214.166C42.3448 214.166 41.9988 214.231 41.7176 214.382C41.4364 214.534 41.2202 214.728 41.0688 214.988C40.9174 215.248 40.8525 215.529 40.8525 215.875C40.8525 216.199 40.939 216.48 41.0904 216.74C41.2418 216.999 41.4581 217.216 41.7392 217.367C42.0204 217.519 42.3448 217.605 42.7125 217.605C43.0586 217.605 43.383 217.519 43.6642 217.367Z" fill="white"/>
<path d="M45.9784 219.53C46.0649 219.443 46.173 219.4 46.2812 219.4C46.3893 219.4 46.4975 219.443 46.584 219.53C46.6705 219.616 46.7137 219.725 46.7137 219.833C46.7137 219.941 46.6705 220.049 46.584 220.136C46.4975 220.222 46.3893 220.265 46.2812 220.265C46.173 220.265 46.0433 220.222 45.9784 220.136C45.8919 220.049 45.8486 219.941 45.8486 219.833C45.8486 219.725 45.8919 219.616 45.9784 219.53ZM44.9835 220.136L40.3767 220.136L40.3767 219.552L44.9835 219.552L44.9835 220.136Z" fill="white"/>
<path d="M42.453 225.629L42.453 221.801C42.1069 221.823 41.8041 221.909 41.5662 222.061C41.3283 222.212 41.1336 222.407 41.0039 222.666C40.8741 222.904 40.8092 223.185 40.8092 223.466C40.8092 223.856 40.8957 224.18 41.0904 224.44C41.285 224.699 41.5229 224.872 41.8474 224.959L41.8474 225.586C41.3932 225.478 41.0255 225.24 40.7443 224.872C40.4632 224.505 40.3118 224.05 40.3118 223.488C40.3118 223.055 40.3983 222.666 40.5929 222.32C40.7876 221.974 41.0687 221.714 41.4148 221.52C41.7609 221.325 42.1934 221.239 42.6692 221.239C43.1451 221.239 43.556 221.325 43.9237 221.52C44.2914 221.714 44.5509 221.974 44.7456 222.32C44.9402 222.666 45.0267 223.055 45.0267 223.488C45.0267 223.921 44.9402 224.31 44.7456 224.634C44.5509 224.959 44.2914 225.218 43.9669 225.391C43.6425 225.564 43.2748 225.651 42.8855 225.651C42.7125 225.651 42.5611 225.629 42.453 225.629ZM43.8156 224.829C44.0535 224.678 44.2481 224.483 44.3563 224.245C44.486 224.007 44.5509 223.726 44.5509 223.445C44.5509 223.012 44.3995 222.623 44.1183 222.32C43.8372 222.017 43.4479 221.844 42.9288 221.801L42.9288 225.045C43.2748 225.045 43.556 224.98 43.8156 224.829Z" fill="white"/>
<path d="M40.6795 227.013C40.9174 226.689 41.2634 226.494 41.6744 226.451L41.6744 227.057C41.4148 227.078 41.1985 227.208 41.0471 227.424C40.8957 227.64 40.8092 227.922 40.8092 228.289C40.8092 228.614 40.8957 228.852 41.0471 229.046C41.1985 229.219 41.3932 229.328 41.6095 229.328C41.7609 229.328 41.8906 229.284 41.9988 229.176C42.1069 229.068 42.1718 228.938 42.2367 228.787C42.3016 228.635 42.3665 228.419 42.4314 228.16C42.5179 227.814 42.6044 227.532 42.6909 227.316C42.7774 227.1 42.9072 226.927 43.1018 226.775C43.2748 226.624 43.5128 226.559 43.8156 226.559C44.0319 226.559 44.2481 226.624 44.4428 226.754C44.6374 226.883 44.7888 227.078 44.897 227.338C45.0051 227.576 45.07 227.857 45.07 228.181C45.07 228.679 44.9402 229.068 44.7023 229.371C44.4428 229.674 44.0967 229.847 43.6642 229.868L43.6642 229.284C43.9237 229.263 44.1616 229.154 44.313 228.96C44.486 228.765 44.5726 228.506 44.5726 228.16C44.5726 227.857 44.5077 227.619 44.3563 227.424C44.2049 227.23 44.0318 227.143 43.8372 227.143C43.6642 227.143 43.5128 227.208 43.4046 227.316C43.2965 227.424 43.1883 227.554 43.1451 227.727C43.0802 227.9 43.0153 228.116 42.9288 228.376C42.8423 228.7 42.7558 228.981 42.6693 229.176C42.5827 229.371 42.453 229.544 42.3016 229.674C42.1502 229.803 41.9123 229.89 41.6527 229.89C41.4148 229.89 41.1769 229.825 40.9823 229.695C40.7876 229.565 40.6362 229.371 40.5281 229.133C40.4199 228.895 40.355 228.614 40.355 228.289C40.3118 227.77 40.4199 227.338 40.6795 227.013Z" fill="white"/>
</g>
<defs>
<filter id="filter0_b_1_518" x="-40.0001" y="-39.3575" width="525.388" height="346.358" filterUnits="userSpaceOnUse" color-interpolation-filters="sRGB">
<feFlood flood-opacity="0" result="BackgroundImageFix"/>
<feGaussianBlur in="BackgroundImageFix" stdDeviation="20"/>
<feComposite in2="SourceAlpha" operator="in" result="effect1_backgroundBlur_1_518"/>
<feBlend mode="normal" in="SourceGraphic" in2="effect1_backgroundBlur_1_518" result="shape"/>
</filter>
<radialGradient id="paint0_radial_1_518" cx="0" cy="0" r="1" gradientUnits="userSpaceOnUse" gradientTransform="translate(-32.8122 183.738) rotate(74.4219) scale(710.331 412.454)">
<stop stop-color="white" stop-opacity="0.75"/>
<stop offset="1" stop-color="white" stop-opacity="0"/>
</radialGradient>
</defs>
</svg>
