<svg width="444" height="66" viewBox="0 0 444 66" fill="none" xmlns="http://www.w3.org/2000/svg">
<rect x="117.846" y="3.3974" width="92.1906" height="61.9655" rx="20" fill="#EBF3FA"/>
<path d="M157.289 44.9215H152.076L155.336 25.1607H160.549L157.289 44.9215Z" fill="#00579F"/>
<path d="M176.183 25.644C175.155 25.2441 173.524 24.8027 171.508 24.8027C166.36 24.8027 162.735 27.4934 162.713 31.3402C162.67 34.1785 165.308 35.7549 167.281 36.7012C169.298 37.6682 169.983 38.2994 169.983 39.1614C169.963 40.4852 168.354 41.0955 166.853 41.0955C164.772 41.0955 163.657 40.7808 161.962 40.0443L161.276 39.7286L160.546 44.1645C161.769 44.7104 164.021 45.1949 166.36 45.2162C171.829 45.2162 175.39 42.5671 175.432 38.4676C175.453 36.2181 174.06 34.4945 171.057 33.086C169.234 32.1818 168.117 31.5721 168.117 30.647C168.139 29.806 169.062 28.9446 171.12 28.9446C172.814 28.9024 174.059 29.3017 175.003 29.7012L175.474 29.9111L176.183 25.644Z" fill="#00579F"/>
<path d="M183.114 37.9209C183.543 36.7857 185.195 32.392 185.195 32.392C185.173 32.4342 185.623 31.2358 185.881 30.5002L186.245 32.2029C186.245 32.2029 187.232 36.933 187.446 37.9209C186.632 37.9209 184.143 37.9209 183.114 37.9209ZM189.548 25.1607H185.516C184.273 25.1607 183.328 25.5178 182.792 26.8003L175.049 44.9212H180.518C180.518 44.9212 181.419 42.4823 181.612 41.957C182.212 41.957 187.533 41.957 188.305 41.957C188.455 42.6507 188.927 44.9212 188.927 44.9212H193.753L189.548 25.1607Z" fill="#00579F"/>
<path d="M147.721 25.1607L142.617 38.6357L142.059 35.9028C141.115 32.7494 138.155 29.3233 134.852 27.6198L139.528 44.9005H145.04L153.233 25.1607H147.721Z" fill="#00579F"/>
<path d="M137.876 25.1607H129.49L129.404 25.56C135.946 27.1998 140.279 31.1526 142.059 35.9036L140.236 26.8218C139.935 25.5597 139.013 25.2023 137.876 25.1607Z" fill="#FAA61A"/>
<rect x="0.503479" y="3.3974" width="93.3429" height="61.9655" rx="20" fill="#FFF4EE"/>
<path fill-rule="evenodd" clip-rule="evenodd" d="M47.8417 47.6948C44.6639 50.3497 40.5417 51.9524 36.0372 51.9524C25.9864 51.9524 17.8386 43.9729 17.8386 34.1297C17.8386 24.2864 25.9864 16.3069 36.0372 16.3069C40.5417 16.3069 44.6639 17.9096 47.8417 20.5645C51.0196 17.9096 55.1418 16.3069 59.6462 16.3069C69.697 16.3069 77.8448 24.2864 77.8448 34.1297C77.8448 43.9729 69.697 51.9524 59.6462 51.9524C55.1418 51.9524 51.0196 50.3497 47.8417 47.6948Z" fill="#ED0006"/>
<path fill-rule="evenodd" clip-rule="evenodd" d="M47.8417 47.6948C51.7547 44.4258 54.2358 39.5615 54.2358 34.1297C54.2358 28.6978 51.7547 23.8335 47.8417 20.5645C51.0196 17.9096 55.1418 16.3069 59.6462 16.3069C69.697 16.3069 77.8448 24.2864 77.8448 34.1297C77.8448 43.9729 69.697 51.9524 59.6462 51.9524C55.1418 51.9524 51.0196 50.3497 47.8417 47.6948Z" fill="#F9A000"/>
<path fill-rule="evenodd" clip-rule="evenodd" d="M47.8418 47.6948C51.7547 44.4257 54.2358 39.5615 54.2358 34.1297C54.2358 28.6979 51.7547 23.8336 47.8418 20.5646C43.9289 23.8336 41.4478 28.6979 41.4478 34.1297C41.4478 39.5615 43.9289 44.4257 47.8418 47.6948Z" fill="#FF5E00"/>
<rect x="350.228" width="93.3429" height="61.9655" rx="20" fill="#F1F6FF"/>
<path fill-rule="evenodd" clip-rule="evenodd" d="M394.313 40.6856V32.8859H398.471C400.175 32.8859 401.613 32.3331 402.785 31.243L403.067 30.9666C405.209 28.7096 405.068 25.1935 402.785 23.1054C401.644 21.9999 400.081 21.4011 398.471 21.4318H391.796V40.6856H394.313ZM394.313 30.5213V23.7963H398.534C399.441 23.7963 400.301 24.1341 400.942 24.7482C402.302 26.038 402.334 28.1875 401.02 29.5233C400.379 30.1835 399.473 30.552 398.534 30.5213H394.313ZM414.807 28.5407C413.728 27.5734 412.259 27.0821 410.399 27.0821C408.007 27.0821 406.209 27.9419 405.021 29.6462L407.241 31.0127C408.054 29.8458 409.164 29.2623 410.571 29.2623C411.462 29.2623 412.321 29.5848 412.994 30.1682C413.65 30.721 414.025 31.5194 414.025 32.3638V32.9319C413.056 32.4099 411.837 32.1335 410.336 32.1335C408.585 32.1335 407.178 32.5327 406.131 33.3465C405.084 34.1602 404.552 35.235 404.552 36.6015C404.521 37.8452 405.068 39.0274 406.037 39.8258C407.022 40.6857 408.273 41.1156 409.742 41.1156C411.477 41.1156 412.853 40.3632 413.9 38.8585H414.01V40.6857H416.417V32.5634C416.417 30.8592 415.886 29.508 414.807 28.5407ZM407.976 38.2597C407.46 37.8912 407.147 37.2924 407.147 36.6476C407.147 35.9259 407.491 35.3271 408.164 34.8512C408.852 34.3752 409.711 34.1295 410.728 34.1295C412.135 34.1142 413.229 34.4212 414.011 35.0354C414.011 36.0795 413.589 36.9854 412.76 37.753C412.01 38.49 410.993 38.9046 409.93 38.9046C409.227 38.9199 408.539 38.6896 407.976 38.2597ZM421.826 46.4741L430.236 27.512H427.5L423.608 36.97H423.561L419.575 27.512H416.839L422.357 39.8412L419.231 46.4741H421.826Z" fill="#3C4043"/>
<path d="M385.624 31.1969C385.624 30.4446 385.561 29.6922 385.436 28.9552H374.822V33.2083H380.903C380.653 34.5748 379.84 35.8031 378.652 36.5708V39.3345H382.278C384.404 37.4153 385.624 34.5748 385.624 31.1969Z" fill="#4285F4"/>
<path d="M374.822 42.0061C377.855 42.0061 380.419 41.0234 382.279 39.3345L378.652 36.5708C377.636 37.2464 376.339 37.6302 374.822 37.6302C371.883 37.6302 369.398 35.6803 368.507 33.0701H364.771V35.9259C366.678 39.6569 370.57 42.0061 374.822 42.0061Z" fill="#34A853"/>
<path d="M368.507 33.0701C368.038 31.7036 368.038 30.2143 368.507 28.8325V25.992H364.77C363.16 29.1088 363.16 32.7938 364.77 35.9106L368.507 33.0701Z" fill="#FBBC04"/>
<path d="M374.822 24.2723C376.432 24.2416 377.98 24.8404 379.137 25.9305L382.357 22.7676C380.309 20.8945 377.62 19.8657 374.822 19.8965C370.57 19.8965 366.678 22.261 364.771 25.992L368.507 28.8478C369.398 26.2223 371.883 24.2723 374.822 24.2723Z" fill="#EA4335"/>
<rect x="234.037" width="92.1906" height="61.9655" rx="20" fill="#F7F7F7"/>
<path fill-rule="evenodd" clip-rule="evenodd" d="M256.021 23.0639C257.259 23.1663 258.497 22.4497 259.271 21.5411C260.032 20.607 260.535 19.3529 260.406 18.0733C259.31 18.1244 257.956 18.7899 257.182 19.724C256.473 20.5302 255.866 21.8355 256.021 23.0639ZM270.749 39.546V19.5961H278.294C282.189 19.5961 284.91 22.2578 284.91 26.1479C284.91 30.0381 282.137 32.7254 278.191 32.7254H273.87V39.546H270.749ZM260.393 23.3071C259.302 23.2448 258.307 23.6326 257.503 23.9458C256.986 24.1473 256.548 24.318 256.215 24.318C255.841 24.318 255.384 24.1382 254.872 23.9363C254.201 23.6718 253.434 23.3693 252.629 23.3839C250.785 23.4094 249.07 24.446 248.128 26.0967C246.194 29.3983 247.625 34.2866 249.495 36.9739C250.411 38.3047 251.507 39.7636 252.952 39.7124C253.587 39.6886 254.044 39.4961 254.517 39.2969C255.062 39.0676 255.628 38.8294 256.511 38.8294C257.364 38.8294 257.905 39.0614 258.424 39.2841C258.918 39.4959 259.393 39.6992 260.097 39.6868C261.593 39.6612 262.534 38.3559 263.45 37.0251C264.438 35.5967 264.872 34.2027 264.938 33.9911L264.946 33.9667C264.944 33.9651 264.932 33.9596 264.91 33.9498C264.58 33.7997 262.055 32.6528 262.031 29.5774C262.007 26.9961 264.034 25.6882 264.353 25.4823C264.372 25.4698 264.385 25.4613 264.391 25.4569C263.102 23.563 261.09 23.3583 260.393 23.3071ZM290.611 39.6996C292.571 39.6996 294.389 38.7142 295.215 37.153H295.279V39.546H298.168V29.6158C298.168 26.7366 295.847 24.8811 292.274 24.8811C288.96 24.8811 286.509 26.7622 286.419 29.3471H289.231C289.463 28.1186 290.611 27.3124 292.184 27.3124C294.093 27.3124 295.163 28.1954 295.163 29.8206V30.9211L291.268 31.1514C287.644 31.369 285.684 32.8406 285.684 35.3999C285.684 37.9848 287.709 39.6996 290.611 39.6996ZM291.449 37.3322C289.785 37.3322 288.728 36.5388 288.728 35.3231C288.728 34.0691 289.746 33.3397 291.694 33.2245L295.163 33.0069V34.133C295.163 36.0014 293.564 37.3322 291.449 37.3322ZM307.75 40.3266C306.499 43.8201 305.068 44.9718 302.024 44.9718C301.792 44.9718 301.018 44.9462 300.838 44.895V42.5021C301.031 42.5276 301.508 42.5532 301.753 42.5532C303.133 42.5532 303.907 41.9774 304.384 40.4802L304.668 39.5972L299.38 25.073H302.643L306.319 36.8587H306.383L310.059 25.073H313.232L307.75 40.3266ZM273.87 22.2066H277.468C280.177 22.2066 281.724 23.6398 281.724 26.1607C281.724 28.6817 280.177 30.1277 277.456 30.1277H273.87V22.2066Z" fill="black"/>
</svg>
