<svg width="45" height="18" viewBox="0 0 45 18" fill="none" xmlns="http://www.w3.org/2000/svg">
<g opacity="0.5">
<path fill-rule="evenodd" clip-rule="evenodd" d="M21.2953 13.9478V8.88587V8.88487H24.0357C25.1656 8.88554 26.1151 8.53079 26.8844 7.82063C27.6618 7.14664 28.0964 6.17758 28.0743 5.1675C28.0897 4.16303 27.6559 3.20115 26.8844 2.52933C26.1219 1.81528 25.0964 1.42568 24.0357 1.44713H19.6366V13.9478H21.2953ZM21.2952 7.34977V2.98607V2.98507H24.0768C24.6968 2.9682 25.2944 3.20974 25.718 3.64836C26.1442 4.04948 26.3846 4.60046 26.3846 5.1759C26.3846 5.75134 26.1442 6.30232 25.718 6.70345C25.2892 7.13283 24.6934 7.36747 24.0768 7.34977H21.2952Z" fill="#FCFCFC"/>
<path fill-rule="evenodd" clip-rule="evenodd" d="M34.7997 6.06726C34.0902 5.4329 33.1224 5.11572 31.8964 5.11572C30.3215 5.11572 29.1323 5.67428 28.3287 6.79139L29.7896 7.68208C30.3294 6.92537 31.0626 6.54702 31.9892 6.54702C32.5799 6.54032 33.1515 6.74937 33.5902 7.1325C34.0275 7.48256 34.2791 8.00446 34.2753 8.55382V8.92087C33.6379 8.57178 32.8268 8.39723 31.8418 8.39723C30.688 8.39856 29.7656 8.66055 29.0746 9.18319C28.3836 9.70584 28.0382 10.4097 28.0382 11.2947C28.0231 12.1006 28.3842 12.8701 29.021 13.3893C29.6763 13.9479 30.4905 14.2271 31.4637 14.2271C32.6039 14.2271 33.5174 13.7384 34.2042 12.7609H34.2763V13.9479H35.8629V8.67651C35.8636 7.57137 35.5092 6.70162 34.7997 6.06726ZM30.3005 12.3769C29.9531 12.1344 29.7481 11.7443 29.7504 11.3296C29.7504 10.8638 29.976 10.4758 30.4303 10.1566C30.8802 9.84211 31.442 9.68485 32.1158 9.68485C33.041 9.68485 33.7621 9.88433 34.2793 10.2833C34.2793 10.9576 34.0046 11.545 33.4551 12.0457C32.9602 12.5249 32.2893 12.7947 31.5894 12.7958C31.1227 12.8042 30.6674 12.6562 30.3005 12.3769Z" fill="#FCFCFC"/>
<path fill-rule="evenodd" clip-rule="evenodd" d="M44.9703 5.39502L39.4317 17.7181H37.7194L39.7747 13.4063L36.1328 5.39502H37.9357L40.568 11.5391H40.6041L43.1642 5.39502L44.9703 5.39502Z" fill="#FCFCFC"/>
<path fill-rule="evenodd" clip-rule="evenodd" d="M14.5924 7.79469C14.593 7.30531 14.5502 6.81678 14.4646 6.33447H7.46924V9.10031H11.4759C11.3102 9.99295 10.775 10.7813 9.99437 11.2827V13.078H12.3856C13.7857 11.8282 14.5924 9.98003 14.5924 7.79469Z" fill="#FCFCFC"/>
<path fill-rule="evenodd" clip-rule="evenodd" d="M7.46924 14.8126C9.47101 14.8126 11.1565 14.1762 12.3856 13.0791L9.99437 11.2837C9.32884 11.7206 8.47167 11.9699 7.46924 11.9699C5.53444 11.9699 3.89223 10.7072 3.30499 9.00562H0.841675V10.8558C2.10079 13.2815 4.66514 14.8125 7.46924 14.8126Z" fill="#FCFCFC"/>
<path fill-rule="evenodd" clip-rule="evenodd" d="M3.30506 9.00535C2.9946 8.1137 2.9946 7.14811 3.30506 6.25646V4.40625H0.84174C-0.211407 6.43513 -0.211407 8.82668 0.84174 10.8556L3.30506 9.00535Z" fill="#FCFCFC"/>
<path fill-rule="evenodd" clip-rule="evenodd" d="M7.46924 3.29233C8.52709 3.2756 9.54924 3.66255 10.3148 4.36954L12.4319 2.31985C11.0894 1.09908 9.31093 0.428865 7.46924 0.44969C4.66514 0.449814 2.10079 1.98077 0.841675 4.40645L3.30499 6.25666C3.89223 4.55506 5.53444 3.29233 7.46924 3.29233Z" fill="#FCFCFC"/>
</g>
</svg>
