<svg width="40" height="40" viewBox="0 0 40 40" fill="none" xmlns="http://www.w3.org/2000/svg">
<ellipse cx="20" cy="19.9868" rx="20" ry="19.9868" fill="#05FF69"/>
<path d="M28.3333 16.2683V24.1506C28.3333 24.7878 28.0897 25.401 27.6522 25.8647C27.2148 26.3283 26.6165 26.6074 25.98 26.6448L25.8333 26.6489H14.1666C13.529 26.649 12.9154 26.4055 12.4514 25.9683C11.9875 25.5311 11.7082 24.9333 11.6708 24.2972L11.6666 24.1506V16.2683L19.5375 21.5123L19.6341 21.5673C19.748 21.6229 19.8732 21.6518 20 21.6518C20.1268 21.6518 20.2519 21.6229 20.3658 21.5673L20.4625 21.5123L28.3333 16.2683Z" fill="#090921"/>
<path d="M25.8333 13.3245C26.7333 13.3245 27.5225 13.7991 27.9625 14.5128L20 19.8177L12.0375 14.5128C12.2464 14.1737 12.5335 13.8894 12.8747 13.6837C13.216 13.478 13.6015 13.3568 13.9991 13.3303L14.1666 13.3245H25.8333Z" fill="#090921"/>
</svg>
