<svg width="196" height="50" viewBox="0 0 196 50" fill="none" xmlns="http://www.w3.org/2000/svg">
<path d="M2.63866 28.506V11.8955H0V7.93752H2.63866V3.46046H7.11572V7.93752H13.3014V11.8955H7.11572V24.5697H13.5177V28.506H2.63866Z" fill="white"/>
<path d="M23.3153 29.0035C21.5418 29.0035 19.9197 28.5493 18.449 27.6409C16.9782 26.7325 15.7887 25.4565 14.9235 23.8127C14.0584 22.169 13.6258 20.3089 13.6258 18.2542C13.6258 16.1563 14.0584 14.2963 14.9235 12.6525C15.7887 11.0088 16.9566 9.73269 18.449 8.8243C19.9197 7.91591 21.5418 7.46172 23.3153 7.46172C24.5914 7.46172 25.7161 7.67799 26.6677 8.08893C27.641 8.49987 28.4196 8.99732 29.0036 9.58129C29.6092 10.1436 29.9985 10.5978 30.1931 10.9222H30.3229V7.95916H34.8V28.5061H30.3229V25.543H30.1931C29.9985 25.889 29.6092 26.3432 29.0036 26.9056C28.398 27.4679 27.6194 27.9437 26.6677 28.3763C25.7161 28.7872 24.5914 29.0035 23.3153 29.0035ZM24.2237 25.0455C25.37 25.0455 26.4082 24.7644 27.3382 24.202C28.2682 23.6397 29.0036 22.8611 29.5443 21.8229C30.0634 20.7848 30.3445 19.5952 30.3445 18.2326C30.3445 16.8484 30.085 15.6372 29.5443 14.5991C29.0252 13.5609 28.2898 12.7823 27.3382 12.2199C26.4082 11.6576 25.37 11.3764 24.2237 11.3764C23.1207 11.3764 22.0825 11.6576 21.1741 12.2199C20.2441 12.7823 19.5304 13.5609 18.9897 14.5991C18.4706 15.6372 18.1894 16.8484 18.1894 18.2326C18.1894 19.5952 18.449 20.7848 18.9897 21.8229C19.5087 22.8611 20.2441 23.6397 21.1741 24.202C22.0825 24.7644 23.099 25.0455 24.2237 25.0455Z" fill="white"/>
<path d="M37.4601 36.249V7.93752H41.8939V10.9006H42.0237C42.24 10.5545 42.6509 10.1003 43.2349 9.53801C43.8405 8.97567 44.5975 8.49985 45.5491 8.06728C46.5008 7.65634 47.6254 7.44006 48.9231 7.44006C50.6967 7.44006 52.2972 7.89426 53.7679 8.80265C55.2386 9.71104 56.4065 10.9871 57.2717 12.6309C58.1368 14.2746 58.5694 16.1346 58.5694 18.2326C58.5694 20.2873 58.1368 22.1473 57.2717 23.7911C56.4065 25.4348 55.2386 26.7109 53.7679 27.6193C52.2972 28.5277 50.6967 28.9819 48.9231 28.9819C47.6254 28.9819 46.5008 28.7656 45.5491 28.3546C44.5975 27.9437 43.8189 27.4463 43.2349 26.8839C42.6293 26.3216 42.24 25.8674 42.0237 25.5213H41.8939V36.2274H37.4601V36.249ZM47.9931 25.0455C49.1394 25.0455 50.156 24.7643 51.0643 24.202C51.9727 23.6397 52.6865 22.861 53.2272 21.8229C53.7463 20.7847 54.0274 19.5952 54.0274 18.2326C54.0274 16.8484 53.7679 15.6372 53.2272 14.599C52.7081 13.5609 51.9727 12.7823 51.0643 12.2199C50.156 11.6576 49.1394 11.3764 47.9931 11.3764C46.8468 11.3764 45.8087 11.6576 44.8786 12.2199C43.9486 12.7823 43.2133 13.5609 42.6726 14.599C42.1535 15.6372 41.8723 16.8484 41.8723 18.2326C41.8723 19.5952 42.1318 20.7847 42.6726 21.8229C43.1916 22.861 43.927 23.6397 44.8786 24.202C45.8087 24.7643 46.8468 25.0455 47.9931 25.0455Z" fill="white"/>
<path d="M60.5375 28.5061V-3.8147e-05H73.3198C75.5259 -3.8147e-05 77.4292 0.410895 79.0513 1.21114C80.6735 2.01139 81.9279 3.11443 82.793 4.52027C83.6582 5.92611 84.0907 7.50499 84.0907 9.23526C84.0907 11.3548 83.4635 13.1716 82.1874 14.664C80.933 16.1779 79.2244 17.2594 77.0832 17.9082L84.0042 28.5061H78.4241L72.0005 18.5354H65.3606V28.5061H60.5375ZM73.255 13.9719C75.1799 13.9719 76.6506 13.5393 77.6455 12.6958C78.6404 11.8307 79.1595 10.6843 79.1595 9.25688C79.1595 7.85104 78.662 6.70474 77.6455 5.86123C76.6506 4.9961 75.1799 4.58517 73.255 4.58517H65.4039V13.9935H73.255V13.9719Z" fill="white"/>
<path d="M94.7102 29.0035C92.6988 29.0035 90.882 28.5277 89.2599 27.5977C87.6378 26.6677 86.3401 25.37 85.3884 23.7262C84.4368 22.0825 83.961 20.2657 83.961 18.2542C83.961 16.2428 84.4368 14.4044 85.3884 12.7607C86.3401 11.0953 87.6378 9.79757 89.2599 8.86756C90.882 7.93754 92.6988 7.46172 94.7102 7.46172C96.7433 7.46172 98.5817 7.93754 100.204 8.86756C101.826 9.79757 103.102 11.0953 104.032 12.739C104.962 14.3828 105.416 16.1779 105.416 18.1245V19.3357H88.5245C88.6543 20.3954 89.022 21.3687 89.606 22.2339C90.1899 23.099 90.9253 23.7911 91.8337 24.2885C92.7204 24.786 93.6937 25.0455 94.7319 25.0455C96.1377 25.0455 97.3273 24.7644 98.3222 24.1804C99.2955 23.5964 100.009 22.8611 100.485 21.9959H105.135C104.465 23.9425 103.232 25.6079 101.48 26.9705C99.6848 28.3114 97.457 29.0035 94.7102 29.0035ZM100.658 16.1995C100.528 15.3344 100.182 14.5342 99.6631 13.7988C99.144 13.0634 98.4519 12.4795 97.5868 12.0469C96.7217 11.6144 95.77 11.3981 94.7102 11.3981C93.6721 11.3981 92.7421 11.6144 91.8769 12.0469C91.0118 12.4795 90.3197 13.0634 89.779 13.7988C89.2383 14.5342 88.849 15.3344 88.6327 16.1995H100.658Z" fill="white"/>
<path d="M115.517 29.0035C113.743 29.0035 112.121 28.5493 110.65 27.6409C109.18 26.7325 107.99 25.4565 107.125 23.8127C106.26 22.169 105.827 20.3089 105.827 18.2542C105.827 16.1563 106.26 14.2963 107.125 12.6525C107.99 11.0088 109.158 9.73269 110.65 8.8243C112.121 7.91591 113.743 7.46172 115.517 7.46172C116.793 7.46172 117.918 7.67799 118.869 8.08893C119.842 8.49987 120.621 8.99732 121.205 9.58129C121.811 10.1436 122.2 10.5978 122.395 10.9222H122.524V7.95916H127.001V28.5061H122.524V25.543H122.395C122.2 25.889 121.811 26.3432 121.205 26.9056C120.599 27.4679 119.821 27.9437 118.869 28.3763C117.918 28.7872 116.793 29.0035 115.517 29.0035ZM116.404 25.0455C117.55 25.0455 118.588 24.7644 119.518 24.202C120.448 23.6397 121.183 22.8611 121.724 21.8229C122.243 20.7848 122.524 19.5952 122.524 18.2326C122.524 16.8484 122.265 15.6372 121.724 14.5991C121.205 13.5609 120.47 12.7823 119.518 12.2199C118.588 11.6576 117.55 11.3764 116.404 11.3764C115.301 11.3764 114.262 11.6576 113.354 12.2199C112.424 12.7823 111.71 13.5609 111.17 14.5991C110.65 15.6372 110.369 16.8484 110.369 18.2326C110.369 19.5952 110.629 20.7848 111.17 21.8229C111.689 22.8611 112.424 23.6397 113.354 24.202C114.284 24.7644 115.301 25.0455 116.404 25.0455Z" fill="white"/>
<path d="M138.205 29.0035C136.431 29.0035 134.809 28.5493 133.339 27.6409C131.868 26.7326 130.678 25.4565 129.813 23.8127C128.948 22.169 128.516 20.3089 128.516 18.2543C128.516 16.1563 128.948 14.2963 129.813 12.6525C130.678 11.0088 131.846 9.7327 133.339 8.82431C134.809 7.91592 136.431 7.46173 138.205 7.46173C139.481 7.46173 140.606 7.67801 141.557 8.08894C142.531 8.49988 143.309 8.99734 143.893 9.55968C144.499 10.122 144.888 10.5762 145.083 10.9223H145.213V-3.8147e-05H149.69V28.5061H145.213V25.543H145.083C144.888 25.8891 144.499 26.3432 143.893 26.9056C143.288 27.4679 142.509 27.9437 141.557 28.3763C140.584 28.7873 139.459 29.0035 138.205 29.0035ZM139.092 25.0455C140.238 25.0455 141.276 24.7644 142.206 24.202C143.136 23.6397 143.872 22.8611 144.412 21.8229C144.931 20.7848 145.213 19.5952 145.213 18.2326C145.213 16.8484 144.953 15.6372 144.412 14.5991C143.893 13.5609 143.158 12.7823 142.206 12.22C141.276 11.6576 140.238 11.3765 139.092 11.3765C137.989 11.3765 136.951 11.6576 136.042 12.22C135.112 12.7823 134.398 13.5609 133.858 14.5991C133.339 15.6372 133.057 16.8484 133.057 18.2326C133.057 19.5952 133.317 20.7848 133.858 21.8229C134.377 22.8611 135.112 23.6397 136.042 24.202C136.951 24.7644 137.967 25.0455 139.092 25.0455Z" fill="white"/>
<path d="M158.103 36.249L160.46 28.506H155.854L150.36 7.93751H155.053L159.336 24.5481H161.65L166.581 7.93751H171.231L162.796 36.249H158.103Z" fill="white"/>
<path d="M192.405 18.5138C192.384 15.0749 191.778 11.7441 190.632 8.4999C190.091 6.98591 189.442 5.51519 188.621 4.13097C187.885 2.87653 188.426 1.60046 189.853 1.27603C190.394 1.14626 191.259 1.47069 191.54 2.0114C192.168 3.17933 192.795 4.34726 193.335 5.53681C194.287 7.61313 194.936 9.7976 195.347 12.0469C195.585 13.3663 195.736 14.7289 195.866 16.0698C195.953 16.9566 196.017 17.8433 195.996 18.7301C195.953 20.6983 195.801 22.6448 195.433 24.5914C195.023 26.7326 194.46 28.8521 193.595 30.8419C193.033 32.1613 192.384 33.459 191.735 34.735C191.389 35.4271 190.545 35.8597 189.94 35.7732C189.075 35.6434 188.491 35.0811 188.318 34.216C188.231 33.7401 188.383 33.3076 188.621 32.9183C190.005 30.4959 191 27.9221 191.605 25.197C191.886 23.8776 192.059 22.5367 192.232 21.1957C192.341 20.2873 192.341 19.4006 192.405 18.5138Z" fill="#05FF69"/>
<path d="M188.577 18.5139C188.555 21.5203 188.08 24.4401 187.02 27.2301C186.501 28.636 185.809 29.977 185.138 31.2963C184.706 32.1398 183.884 32.4426 183.019 32.2047C182.218 31.9668 181.634 31.2098 181.742 30.3446C181.807 29.8256 182.132 29.3497 182.348 28.8739C182.867 27.6411 183.451 26.4299 183.905 25.1755C184.424 23.7696 184.641 22.2773 184.835 20.8065C184.879 20.4605 184.9 20.0928 184.9 19.7251C184.9 19.0979 184.9 18.4491 184.9 17.8218C184.9 16.0699 184.597 14.3397 184.143 12.6527C183.646 10.8359 182.932 9.12726 181.98 7.50513C181.288 6.29395 181.959 4.93136 183.343 4.71507C183.992 4.62856 184.749 5.0395 185.138 5.75323C186.566 8.28374 187.604 10.944 188.08 13.799C188.253 14.8371 188.339 15.9185 188.447 16.9567C188.534 17.4758 188.555 17.9949 188.577 18.5139Z" fill="#05FF69"/>
<path d="M181.159 18.5138C181.159 21.6066 180.358 24.4832 178.909 27.2083C178.606 27.7707 178.325 28.3763 177.676 28.7007C176.552 29.263 175.168 28.4195 175.103 27.1867C175.081 26.5379 175.405 26.062 175.687 25.5646C176.465 24.1804 177.028 22.7313 177.244 21.1524C177.395 20.1791 177.525 19.2059 177.503 18.2326C177.46 16.286 177.071 14.3827 176.227 12.6092C175.925 12.0036 175.578 11.398 175.276 10.7924C174.692 9.55962 175.492 8.26193 176.725 8.17542C177.547 8.13216 178.109 8.49984 178.52 9.19195C179.731 11.2034 180.51 13.3662 180.899 15.6588C181.072 16.5888 181.072 17.5621 181.159 18.5138Z" fill="#05FF69"/>
<path d="M94.0398 43.1702C94.3642 42.9756 94.7319 42.8674 95.1645 42.8674C95.597 42.8674 95.9647 42.954 96.2891 43.1486C96.6136 43.3433 96.8731 43.6244 97.0677 43.9705C97.2624 44.3382 97.3489 44.7491 97.3489 45.2249C97.3489 45.7007 97.2624 46.1117 97.0677 46.4794C96.8731 46.847 96.6136 47.1282 96.2891 47.3229C95.9647 47.5175 95.5754 47.6257 95.1645 47.6257C94.7319 47.6257 94.3426 47.5175 94.0398 47.3229C93.7154 47.1282 93.4991 46.8687 93.3477 46.5443V47.5608H92.7637V41.3102H93.3477V43.9705C93.4775 43.6244 93.7154 43.3649 94.0398 43.1702ZM96.527 44.23C96.3756 43.9489 96.181 43.7326 95.9214 43.6028C95.6619 43.4514 95.3807 43.3865 95.0347 43.3865C94.7103 43.3865 94.4291 43.473 94.1696 43.6244C93.91 43.7758 93.6937 43.9921 93.5423 44.2733C93.3909 44.5545 93.3044 44.8789 93.3044 45.2466C93.3044 45.6142 93.3909 45.9387 93.5423 46.2198C93.6937 46.501 93.91 46.7173 94.1696 46.8687C94.4291 47.0201 94.7103 47.1066 95.0347 47.1066C95.3591 47.1066 95.6619 47.0417 95.9214 46.8903C96.181 46.7389 96.3756 46.5226 96.527 46.2415C96.6784 45.9603 96.7433 45.6359 96.7433 45.2466C96.7649 44.8573 96.6784 44.5112 96.527 44.23Z" fill="white"/>
<path d="M102.237 42.9323L99.5117 49.7019H98.8845L99.7712 47.5175L97.8896 42.9323H98.5384L100.117 46.8686L101.631 42.9323H102.237Z" fill="white"/>
<path d="M105.957 47.0633H108.076V47.5391H105.373V41.6346H105.957V47.0633Z" fill="white"/>
<path d="M108.899 41.9373C108.812 41.8508 108.769 41.7426 108.769 41.6345C108.769 41.5264 108.812 41.4182 108.899 41.3317C108.985 41.2452 109.093 41.2019 109.201 41.2019C109.309 41.2019 109.418 41.2452 109.504 41.3317C109.591 41.4182 109.634 41.5264 109.634 41.6345C109.634 41.7426 109.591 41.8724 109.504 41.9373C109.418 42.0238 109.309 42.0671 109.201 42.0671C109.093 42.0671 108.985 42.0238 108.899 41.9373ZM109.504 42.9322V47.539H108.92V42.9322H109.504Z" fill="white"/>
<path d="M113.332 47.5391L111.429 45.4628V47.5391H110.845V41.2886H111.429V44.987L113.289 42.9323H114.111L111.926 45.2249L114.132 47.5391H113.332Z" fill="white"/>
<path d="M119.042 45.4627H115.214C115.235 45.8088 115.322 46.1116 115.473 46.3495C115.625 46.5874 115.819 46.7821 116.079 46.9118C116.317 47.0416 116.598 47.1065 116.879 47.1065C117.269 47.1065 117.593 47.02 117.853 46.8253C118.112 46.6307 118.285 46.3928 118.372 46.0683H118.999C118.891 46.5225 118.653 46.8902 118.285 47.1714C117.917 47.4525 117.463 47.6039 116.901 47.6039C116.468 47.6039 116.079 47.5174 115.733 47.3228C115.387 47.1281 115.127 46.847 114.933 46.5009C114.738 46.1548 114.652 45.7223 114.652 45.2465C114.652 44.7706 114.738 44.3597 114.933 43.992C115.127 43.6243 115.387 43.3648 115.733 43.1701C116.079 42.9755 116.468 42.889 116.901 42.889C117.333 42.889 117.723 42.9755 118.047 43.1701C118.372 43.3648 118.631 43.6243 118.804 43.9488C118.977 44.2732 119.064 44.6409 119.064 45.0302C119.064 45.2032 119.064 45.3546 119.042 45.4627ZM118.263 44.1001C118.112 43.8622 117.917 43.6676 117.679 43.5594C117.442 43.4297 117.16 43.3648 116.879 43.3648C116.447 43.3648 116.057 43.5162 115.755 43.7974C115.452 44.0785 115.279 44.4678 115.235 44.9869H118.48C118.48 44.6409 118.393 44.3597 118.263 44.1001Z" fill="white"/>
<path d="M123.649 43.3647C123.995 43.7108 124.168 44.2082 124.168 44.8355V47.539H123.584V44.9003C123.584 44.4029 123.454 44.0136 123.216 43.754C122.957 43.4945 122.632 43.3647 122.2 43.3647C121.746 43.3647 121.4 43.5161 121.14 43.7973C120.881 44.0785 120.751 44.4894 120.751 45.0301V47.539H120.167V42.9322H120.751V43.7108C120.902 43.4296 121.118 43.2133 121.378 43.0619C121.637 42.9105 121.962 42.8457 122.308 42.8457C122.849 42.8457 123.303 43.0187 123.649 43.3647Z" fill="white"/>
<path d="M129.64 45.4627H125.812C125.833 45.8088 125.92 46.1116 126.071 46.3495C126.223 46.5874 126.417 46.7821 126.677 46.9118C126.915 47.0416 127.196 47.1065 127.477 47.1065C127.866 47.1065 128.191 47.02 128.45 46.8253C128.71 46.6307 128.883 46.3928 128.969 46.0683H129.597C129.489 46.5225 129.251 46.8902 128.883 47.1714C128.515 47.4525 128.061 47.6039 127.499 47.6039C127.066 47.6039 126.677 47.5174 126.331 47.3228C125.985 47.1281 125.725 46.847 125.531 46.5009C125.336 46.1548 125.249 45.7223 125.249 45.2465C125.249 44.7706 125.336 44.3597 125.531 43.992C125.725 43.6243 125.985 43.3648 126.331 43.1701C126.677 42.9755 127.066 42.889 127.499 42.889C127.931 42.889 128.321 42.9755 128.645 43.1701C128.969 43.3648 129.229 43.6243 129.402 43.9488C129.575 44.2732 129.662 44.6409 129.662 45.0302C129.662 45.2032 129.662 45.3546 129.64 45.4627ZM128.861 44.1001C128.71 43.8622 128.515 43.6676 128.277 43.5594C128.039 43.4297 127.758 43.3648 127.477 43.3648C127.045 43.3648 126.655 43.5162 126.352 43.7974C126.05 44.0785 125.877 44.4678 125.833 44.9869H129.078C129.056 44.6409 128.991 44.3597 128.861 44.1001Z" fill="white"/>
<path d="M131.024 47.2362C130.7 46.9983 130.505 46.6522 130.462 46.2413H131.067C131.089 46.5008 131.219 46.7171 131.435 46.8685C131.651 47.0199 131.933 47.1064 132.3 47.1064C132.625 47.1064 132.863 47.0199 133.057 46.8685C133.23 46.7171 133.338 46.5225 133.338 46.3062C133.338 46.1548 133.295 46.025 133.187 45.9169C133.079 45.8087 132.949 45.7439 132.798 45.679C132.646 45.6141 132.43 45.5492 132.17 45.4843C131.824 45.3978 131.543 45.3113 131.327 45.2248C131.111 45.1383 130.938 45.0085 130.786 44.8138C130.635 44.6408 130.57 44.4029 130.57 44.1001C130.57 43.8838 130.635 43.6675 130.765 43.4729C130.894 43.2782 131.089 43.1268 131.349 43.0187C131.587 42.9105 131.868 42.8457 132.192 42.8457C132.69 42.8457 133.079 42.9754 133.382 43.2133C133.684 43.4729 133.857 43.8189 133.879 44.2515H133.295C133.274 43.992 133.165 43.754 132.971 43.6026C132.776 43.4296 132.517 43.3431 132.17 43.3431C131.868 43.3431 131.63 43.408 131.435 43.5594C131.24 43.7108 131.154 43.8838 131.154 44.0785C131.154 44.2515 131.219 44.4029 131.327 44.511C131.435 44.6192 131.565 44.7273 131.738 44.7706C131.911 44.8355 132.127 44.9004 132.387 44.9869C132.711 45.0734 132.992 45.1599 133.187 45.2464C133.382 45.3329 133.555 45.4627 133.684 45.6141C133.814 45.7655 133.901 46.0034 133.901 46.2629C133.901 46.5008 133.836 46.7388 133.706 46.9334C133.576 47.1281 133.382 47.2795 133.144 47.3876C132.906 47.4957 132.625 47.5606 132.3 47.5606C131.803 47.6039 131.37 47.4957 131.024 47.2362Z" fill="white"/>
<path d="M135.328 47.2362C135.004 46.9983 134.809 46.6522 134.766 46.2413H135.371C135.393 46.5008 135.523 46.7171 135.739 46.8685C135.955 47.0199 136.237 47.1064 136.604 47.1064C136.929 47.1064 137.167 47.0199 137.361 46.8685C137.534 46.7171 137.642 46.5225 137.642 46.3062C137.642 46.1548 137.599 46.025 137.491 45.9169C137.383 45.8087 137.253 45.7439 137.102 45.679C136.95 45.6141 136.734 45.5492 136.474 45.4843C136.128 45.3978 135.847 45.3113 135.631 45.2248C135.415 45.1383 135.242 45.0085 135.09 44.8138C134.939 44.6408 134.874 44.4029 134.874 44.1001C134.874 43.8838 134.939 43.6675 135.069 43.4729C135.198 43.2782 135.393 43.1268 135.653 43.0187C135.891 42.9105 136.172 42.8457 136.496 42.8457C136.994 42.8457 137.383 42.9754 137.686 43.2133C137.988 43.4729 138.162 43.8189 138.183 44.2515H137.599C137.578 43.992 137.469 43.754 137.275 43.6026C137.08 43.4296 136.821 43.3431 136.474 43.3431C136.172 43.3431 135.934 43.408 135.739 43.5594C135.544 43.7108 135.458 43.8838 135.458 44.0785C135.458 44.2515 135.523 44.4029 135.631 44.511C135.739 44.6192 135.869 44.7273 136.042 44.7706C136.215 44.8355 136.431 44.9004 136.691 44.9869C137.015 45.0734 137.296 45.1599 137.491 45.2464C137.686 45.3329 137.859 45.4627 137.988 45.6141C138.118 45.7655 138.205 46.0034 138.205 46.2629C138.205 46.5008 138.14 46.7388 138.01 46.9334C137.88 47.1281 137.686 47.2795 137.448 47.3876C137.21 47.4957 136.929 47.5606 136.604 47.5606C136.107 47.6039 135.674 47.4957 135.328 47.2362Z" fill="white"/>
<path d="M145.104 41.6346V42.1321H143.46V47.5391H142.876V42.1321H141.233V41.6346H145.104Z" fill="white"/>
<path d="M150.208 45.4627H146.38C146.402 45.8088 146.488 46.1116 146.64 46.3495C146.791 46.5874 146.986 46.7821 147.245 46.9118C147.483 47.0416 147.764 47.1065 148.046 47.1065C148.435 47.1065 148.759 47.02 149.019 46.8253C149.278 46.6307 149.451 46.3928 149.538 46.0683H150.165C150.057 46.5225 149.819 46.8902 149.451 47.1714C149.084 47.4525 148.63 47.6039 148.067 47.6039C147.635 47.6039 147.245 47.5174 146.899 47.3228C146.553 47.1281 146.294 46.847 146.099 46.5009C145.904 46.1548 145.818 45.7223 145.818 45.2465C145.818 44.7706 145.904 44.3597 146.099 43.992C146.294 43.6243 146.553 43.3648 146.899 43.1701C147.245 42.9755 147.635 42.889 148.067 42.889C148.5 42.889 148.889 42.9755 149.213 43.1701C149.538 43.3648 149.797 43.6243 149.97 43.9488C150.144 44.2732 150.23 44.6409 150.23 45.0302C150.208 45.2032 150.208 45.3546 150.208 45.4627ZM149.408 44.1001C149.257 43.8622 149.062 43.6676 148.824 43.5594C148.586 43.4297 148.305 43.3648 148.024 43.3648C147.591 43.3648 147.202 43.5162 146.899 43.7974C146.596 44.0785 146.423 44.4678 146.38 44.9869H149.624C149.624 44.6409 149.56 44.3597 149.408 44.1001Z" fill="white"/>
<path d="M151.312 43.992C151.506 43.6243 151.766 43.3648 152.112 43.1701C152.458 42.9755 152.825 42.889 153.258 42.889C153.82 42.889 154.296 43.0404 154.664 43.3215C155.032 43.6027 155.269 43.992 155.378 44.4678H154.75C154.664 44.1434 154.491 43.8839 154.231 43.6892C153.972 43.4946 153.647 43.4081 153.258 43.4081C152.955 43.4081 152.674 43.4729 152.415 43.6243C152.177 43.7757 151.982 43.9704 151.831 44.2516C151.679 44.5327 151.614 44.8788 151.614 45.2681C151.614 45.6574 151.679 46.0251 151.831 46.3062C151.982 46.5874 152.177 46.8037 152.415 46.9335C152.652 47.0849 152.934 47.1498 153.258 47.1498C153.647 47.1498 153.972 47.0632 154.231 46.8686C154.491 46.6739 154.664 46.4144 154.75 46.09H155.378C155.269 46.5658 155.032 46.9335 154.664 47.2363C154.296 47.5174 153.82 47.6688 153.258 47.6688C152.825 47.6688 152.436 47.5823 152.112 47.3877C151.787 47.193 151.506 46.9118 151.312 46.5658C151.117 46.1981 151.03 45.7872 151.03 45.3113C151.03 44.8355 151.117 44.3381 151.312 43.992Z" fill="white"/>
<path d="M159.617 43.0621C159.898 43.2135 160.114 43.4298 160.266 43.7326C160.417 44.0354 160.504 44.403 160.504 44.8356V47.5391H159.92V44.9005C159.92 44.403 159.79 44.0137 159.552 43.7542C159.292 43.4946 158.968 43.3649 158.535 43.3649C158.081 43.3649 157.735 43.5163 157.476 43.7974C157.216 44.0786 157.086 44.4896 157.086 45.0303V47.5391H156.502V41.2886H157.086V43.7109C157.238 43.4298 157.454 43.2135 157.735 43.0621C158.016 42.9107 158.341 42.8242 158.687 42.8242C159.011 42.8458 159.336 42.9323 159.617 43.0621Z" fill="white"/>
<path d="M165.327 43.3647C165.673 43.7108 165.846 44.2082 165.846 44.8355V47.539H165.262V44.9003C165.262 44.4029 165.132 44.0136 164.894 43.754C164.635 43.4945 164.31 43.3647 163.878 43.3647C163.423 43.3647 163.077 43.5161 162.818 43.7973C162.558 44.0785 162.428 44.4894 162.428 45.0301V47.539H161.845V42.9322H162.428V43.7108C162.58 43.4296 162.796 43.2133 163.056 43.0619C163.315 42.9105 163.64 42.8457 163.986 42.8457C164.526 42.8457 164.981 43.0187 165.327 43.3647Z" fill="white"/>
<path d="M168.009 47.3228C167.663 47.1281 167.381 46.847 167.187 46.5009C166.992 46.1332 166.884 45.7223 166.884 45.2465C166.884 44.7706 166.992 44.3597 167.187 43.992C167.381 43.6243 167.663 43.3648 168.009 43.1701C168.355 42.9755 168.744 42.889 169.177 42.889C169.609 42.889 169.998 42.9755 170.345 43.1701C170.691 43.3648 170.972 43.646 171.166 43.992C171.361 44.3597 171.469 44.7706 171.469 45.2465C171.469 45.7223 171.361 46.1332 171.166 46.5009C170.972 46.8686 170.691 47.1281 170.323 47.3228C169.955 47.5174 169.566 47.6039 169.133 47.6039C168.744 47.6039 168.355 47.5174 168.009 47.3228ZM170.02 46.8902C170.28 46.7604 170.496 46.5441 170.647 46.263C170.799 45.9818 170.885 45.6358 170.885 45.2465C170.885 44.8572 170.799 44.4895 170.647 44.2299C170.496 43.9488 170.28 43.7541 170.02 43.6027C169.761 43.4729 169.479 43.3864 169.177 43.3864C168.874 43.3864 168.593 43.4513 168.333 43.6027C168.074 43.7325 167.857 43.9488 167.706 44.2299C167.554 44.5111 167.468 44.8572 167.468 45.2465C167.468 45.6358 167.554 46.0034 167.706 46.263C167.857 46.5225 168.074 46.7604 168.311 46.8902C168.571 47.02 168.852 47.1065 169.155 47.1065C169.479 47.0849 169.761 47.02 170.02 46.8902Z" fill="white"/>
<path d="M173.156 41.2886V47.5391H172.572V41.2886H173.156Z" fill="white"/>
<path d="M175.362 47.3228C175.016 47.1281 174.735 46.847 174.54 46.5009C174.346 46.1332 174.237 45.7223 174.237 45.2465C174.237 44.7706 174.346 44.3597 174.54 43.992C174.735 43.6243 175.016 43.3648 175.362 43.1701C175.708 42.9755 176.097 42.889 176.53 42.889C176.963 42.889 177.352 42.9755 177.698 43.1701C178.044 43.3648 178.325 43.646 178.52 43.992C178.714 44.3597 178.823 44.7706 178.823 45.2465C178.823 45.7223 178.714 46.1332 178.52 46.5009C178.325 46.8686 178.044 47.1281 177.676 47.3228C177.309 47.5174 176.919 47.6039 176.487 47.6039C176.097 47.6039 175.708 47.5174 175.362 47.3228ZM177.374 46.8902C177.633 46.7604 177.849 46.5441 178.001 46.263C178.152 45.9818 178.239 45.6358 178.239 45.2465C178.239 44.8572 178.152 44.4895 178.001 44.2299C177.849 43.9488 177.633 43.7541 177.374 43.6027C177.114 43.4729 176.833 43.3864 176.53 43.3864C176.227 43.3864 175.946 43.4513 175.687 43.6027C175.427 43.7325 175.211 43.9488 175.059 44.2299C174.908 44.5111 174.821 44.8572 174.821 45.2465C174.821 45.6358 174.908 46.0034 175.059 46.263C175.211 46.5225 175.427 46.7604 175.665 46.8902C175.924 47.02 176.206 47.1065 176.508 47.1065C176.833 47.0849 177.114 47.02 177.374 46.8902Z" fill="white"/>
<path d="M182.997 43.1701C183.321 43.3647 183.538 43.6243 183.689 43.9487V42.9538H184.273V47.6904C184.273 48.123 184.187 48.4907 183.992 48.8151C183.819 49.1395 183.559 49.399 183.235 49.5721C182.911 49.7451 182.543 49.8316 182.11 49.8316C181.526 49.8316 181.029 49.6802 180.64 49.399C180.25 49.1179 180.012 48.7286 179.904 48.2527H180.488C180.596 48.5772 180.791 48.8367 181.072 49.0314C181.353 49.226 181.699 49.3125 182.11 49.3125C182.413 49.3125 182.673 49.2476 182.911 49.1179C183.148 48.9881 183.343 48.7935 183.473 48.5555C183.603 48.3176 183.668 48.0148 183.668 47.6688V46.5225C183.516 46.8469 183.278 47.1064 182.975 47.3011C182.651 47.5174 182.283 47.6039 181.851 47.6039C181.418 47.6039 181.051 47.4958 180.726 47.3011C180.402 47.1064 180.12 46.8253 179.947 46.4576C179.753 46.0899 179.666 45.679 179.666 45.2031C179.666 44.7273 179.753 44.3164 179.947 43.9487C180.142 43.581 180.402 43.3215 180.726 43.1268C181.051 42.9322 181.44 42.8457 181.851 42.8457C182.283 42.8673 182.673 42.9754 182.997 43.1701ZM183.451 44.2515C183.3 43.9703 183.084 43.754 182.824 43.6026C182.564 43.4513 182.283 43.3647 181.959 43.3647C181.634 43.3647 181.332 43.4296 181.072 43.581C180.813 43.7324 180.618 43.9487 180.467 44.2082C180.315 44.4894 180.25 44.8138 180.25 45.2031C180.25 45.5708 180.315 45.9169 180.467 46.198C180.618 46.4792 180.813 46.6955 181.072 46.8469C181.332 46.9983 181.613 47.0632 181.959 47.0632C182.283 47.0632 182.564 46.9767 182.824 46.8253C183.084 46.6739 183.3 46.4576 183.451 46.1764C183.603 45.8953 183.689 45.5708 183.689 45.2031C183.689 44.8571 183.603 44.5327 183.451 44.2515Z" fill="white"/>
<path d="M185.614 41.9373C185.528 41.8508 185.484 41.7426 185.484 41.6345C185.484 41.5264 185.528 41.4182 185.614 41.3317C185.701 41.2452 185.809 41.2019 185.917 41.2019C186.025 41.2019 186.133 41.2452 186.22 41.3317C186.306 41.4182 186.349 41.5264 186.349 41.6345C186.349 41.7426 186.306 41.8724 186.22 41.9373C186.133 42.0238 186.025 42.0671 185.917 42.0671C185.809 42.0671 185.701 42.0238 185.614 41.9373ZM186.22 42.9322V47.539H185.636V42.9322H186.22Z" fill="white"/>
<path d="M191.713 45.4627H187.885C187.907 45.8088 187.993 46.1116 188.145 46.3495C188.296 46.5874 188.491 46.7821 188.75 46.9118C188.988 47.0416 189.269 47.1065 189.55 47.1065C189.94 47.1065 190.264 47.02 190.524 46.8253C190.783 46.6307 190.956 46.3928 191.043 46.0683H191.67C191.562 46.5225 191.324 46.8902 190.956 47.1714C190.589 47.4525 190.134 47.6039 189.572 47.6039C189.14 47.6039 188.75 47.5174 188.404 47.3228C188.058 47.1281 187.799 46.847 187.604 46.5009C187.409 46.1548 187.323 45.7223 187.323 45.2465C187.323 44.7706 187.409 44.3597 187.604 43.992C187.799 43.6243 188.058 43.3648 188.404 43.1701C188.75 42.9755 189.14 42.889 189.572 42.889C190.005 42.889 190.394 42.9755 190.718 43.1701C191.043 43.3648 191.302 43.6243 191.475 43.9488C191.648 44.2732 191.735 44.6409 191.735 45.0302C191.735 45.2032 191.713 45.3546 191.713 45.4627ZM190.913 44.1001C190.762 43.8622 190.567 43.6676 190.329 43.5594C190.091 43.4297 189.81 43.3648 189.529 43.3648C189.096 43.3648 188.707 43.5162 188.404 43.7974C188.101 44.0785 187.928 44.4678 187.885 44.9869H191.129C191.129 44.6409 191.064 44.3597 190.913 44.1001Z" fill="white"/>
<path d="M193.097 47.2362C192.773 46.9983 192.578 46.6522 192.535 46.2413H193.141C193.162 46.5008 193.292 46.7171 193.508 46.8685C193.725 47.0199 194.006 47.1064 194.373 47.1064C194.698 47.1064 194.936 47.0199 195.13 46.8685C195.303 46.7171 195.412 46.5225 195.412 46.3062C195.412 46.1548 195.368 46.025 195.26 45.9169C195.152 45.8087 195.022 45.7439 194.871 45.679C194.72 45.6141 194.503 45.5492 194.244 45.4843C193.898 45.3978 193.616 45.3113 193.4 45.2248C193.184 45.1383 193.011 45.0085 192.859 44.8138C192.708 44.6408 192.643 44.4029 192.643 44.1001C192.643 43.8838 192.708 43.6675 192.838 43.4729C192.968 43.2782 193.162 43.1268 193.422 43.0187C193.66 42.9105 193.941 42.8457 194.265 42.8457C194.763 42.8457 195.152 42.9754 195.455 43.2133C195.758 43.4729 195.931 43.8189 195.952 44.2515H195.368C195.347 43.992 195.239 43.754 195.044 43.6026C194.849 43.4296 194.59 43.3431 194.244 43.3431C193.941 43.3431 193.703 43.408 193.508 43.5594C193.314 43.7108 193.227 43.8838 193.227 44.0785C193.227 44.2515 193.292 44.4029 193.4 44.511C193.508 44.6192 193.638 44.7273 193.811 44.7706C193.984 44.8355 194.2 44.9004 194.46 44.9869C194.784 45.0734 195.066 45.1599 195.26 45.2464C195.455 45.3329 195.628 45.4627 195.758 45.6141C195.887 45.7655 195.974 46.0034 195.974 46.2629C195.974 46.5008 195.909 46.7388 195.779 46.9334C195.65 47.1281 195.455 47.2795 195.217 47.3876C194.979 47.4957 194.698 47.5606 194.373 47.5606C193.854 47.6039 193.422 47.4957 193.097 47.2362Z" fill="white"/>
</svg>
