<svg width="350" height="370" viewBox="0 0 350 370" fill="none" xmlns="http://www.w3.org/2000/svg">
<mask id="mask0_1_576" style="mask-type:alpha" maskUnits="userSpaceOnUse" x="0" y="0" width="350" height="370">
<rect width="350" height="370" rx="32" fill="black"/>
</mask>
<g mask="url(#mask0_1_576)">
<path d="M277.661 286.981H277.655C269.264 286.981 262.467 294.501 262.467 303.785V380.603C262.467 389.881 269.264 397.401 277.655 397.401C286.042 397.395 292.839 389.875 292.839 380.591V303.773C292.839 294.489 286.036 286.969 277.65 286.969L277.661 286.981Z" fill="#05FF69"/>
<path d="M82.3788 286.983H82.3734C73.9817 286.983 67.1848 294.503 67.1848 303.787V380.605C67.1848 389.883 73.9817 397.403 82.3734 397.403C90.7597 397.397 97.5566 389.877 97.5566 380.593V303.775C97.5566 294.491 90.7543 286.971 82.368 286.971L82.3788 286.983Z" fill="#05FF69"/>
<path d="M108.417 286.981V402.208C108.417 412.812 116.184 421.407 125.775 421.407H136.624V462.216C136.624 471.494 143.421 479.014 151.813 479.014C160.199 479.008 166.996 471.488 166.996 462.204V421.395H193.033V462.204C193.033 471.482 199.83 479.002 208.222 479.002C216.608 478.996 223.405 471.476 223.405 462.192V421.383H234.254L234.249 421.382C243.834 421.382 251.607 412.782 251.607 402.177V286.95L108.417 286.981Z" fill="#05FF69"/>
<path d="M249.573 262.975C245.114 245.397 234.493 230.382 220.161 220.503C219.358 219.951 218.545 219.411 217.72 218.895C216.896 218.373 216.066 217.863 215.236 217.365L217.991 211.915L226.611 194.715V194.709C227.219 193.485 226.823 191.949 225.721 191.27C225.716 191.264 225.716 191.264 225.711 191.264C225.374 191.054 225.005 190.946 224.626 190.94L224.62 190.94C223.785 190.934 223.02 191.432 222.619 192.242L211.129 215.167C210.262 214.741 209.383 214.339 208.493 213.967C207.604 213.595 206.714 213.205 205.808 212.851L205.803 212.845C189.122 206.351 170.945 206.351 154.27 212.845C153.364 213.199 152.469 213.571 151.585 213.961C150.695 214.357 149.816 214.759 148.948 215.161L137.459 192.266L137.454 192.26C136.814 191.048 135.409 190.646 134.319 191.354C133.261 192.032 132.881 193.514 133.445 194.709L142.021 211.873L144.777 217.322C143.931 217.808 143.101 218.312 142.282 218.828C141.457 219.344 140.649 219.885 139.852 220.461C125.531 230.339 114.899 245.355 110.451 262.915H110.445C109.214 267.596 108.536 272.439 108.427 277.318H251.558L251.553 277.312C251.439 272.439 250.761 267.602 249.53 262.921L249.573 262.975ZM147.473 253.373L147.468 253.372C143.871 253.366 140.958 250.144 140.958 246.171C140.958 242.192 143.871 238.969 147.468 238.969C151.059 238.969 153.977 242.192 153.977 246.171V246.165C153.977 250.138 151.059 253.366 147.468 253.366L147.473 253.373ZM212.567 253.373L212.562 253.372C208.965 253.366 206.052 250.144 206.052 246.171C206.052 242.192 208.965 238.969 212.562 238.969C216.153 238.969 219.071 242.192 219.071 246.171V246.165C219.071 250.138 216.153 253.366 212.562 253.366L212.567 253.373Z" fill="#05FF69"/>
</g>
</svg>
