<svg width="65" height="50" viewBox="0 0 65 50" fill="none" xmlns="http://www.w3.org/2000/svg">
<g filter="url(#filter0_d_1_652)">
<path fill-rule="evenodd" clip-rule="evenodd" d="M32.8422 34.9118C30.5786 36.9745 27.6423 38.2197 24.4337 38.2197C17.2744 38.2197 11.4706 32.0202 11.4706 24.3727C11.4706 16.7252 17.2744 10.5256 24.4337 10.5256C27.6423 10.5256 30.5786 11.7709 32.8422 13.8336C35.1059 11.7709 38.0422 10.5256 41.2508 10.5256C48.4101 10.5256 54.2139 16.7252 54.2139 24.3727C54.2139 32.0202 48.4101 38.2197 41.2508 38.2197C38.0422 38.2197 35.1059 36.9745 32.8422 34.9118Z" fill="#FF0007"/>
<path fill-rule="evenodd" clip-rule="evenodd" d="M32.842 34.912C35.6294 32.3722 37.3968 28.5929 37.3968 24.3727C37.3968 20.1524 35.6294 16.3732 32.842 13.8334C35.1056 11.7708 38.0419 10.5256 41.2504 10.5256C48.4097 10.5256 54.2134 16.7252 54.2134 24.3727C54.2134 32.0202 48.4097 38.2197 41.2504 38.2197C38.0419 38.2197 35.1056 36.9746 32.842 34.912Z" fill="#F9A000"/>
<path fill-rule="evenodd" clip-rule="evenodd" d="M32.8423 34.9117C35.6294 32.3719 37.3967 28.5927 37.3967 24.3726C37.3967 20.1525 35.6294 16.3734 32.8423 13.8336C30.0551 16.3734 28.2878 20.1525 28.2878 24.3726C28.2878 28.5927 30.0551 32.3719 32.8423 34.9117Z" fill="#FF5E00"/>
</g>
<defs>
<filter id="filter0_d_1_652" x="-4" y="0.130066" width="73" height="57.6014" filterUnits="userSpaceOnUse" color-interpolation-filters="sRGB">
<feFlood flood-opacity="0" result="BackgroundImageFix"/>
<feColorMatrix in="SourceAlpha" type="matrix" values="0 0 0 0 0 0 0 0 0 0 0 0 0 0 0 0 0 0 127 0" result="hardAlpha"/>
<feOffset dy="4"/>
<feGaussianBlur stdDeviation="2"/>
<feComposite in2="hardAlpha" operator="out"/>
<feColorMatrix type="matrix" values="0 0 0 0 0 0 0 0 0 0 0 0 0 0 0 0 0 0 0.25 0"/>
<feBlend mode="normal" in2="BackgroundImageFix" result="effect1_dropShadow_1_652"/>
<feBlend mode="normal" in="SourceGraphic" in2="effect1_dropShadow_1_652" result="shape"/>
</filter>
</defs>
</svg>
