<svg width="253" height="87" viewBox="0 0 253 87" fill="none" xmlns="http://www.w3.org/2000/svg">
<g filter="url(#filter0_b_1_508)">
<rect y="0.902832" width="253" height="85.3938" rx="16" fill="white" fill-opacity="0.2"/>
<rect x="0.5" y="1.40283" width="252" height="84.3938" rx="15.5" stroke="url(#paint0_radial_1_508)"/>
</g>
<path d="M195.869 60.4241H199.023V38.6908H195.869V60.4241ZM224.273 46.52L220.658 55.9422H220.55L216.798 46.52H213.401L219.029 59.6887L215.82 67.0145H219.109L227.78 46.52H224.273ZM206.388 57.9557C205.357 57.9557 203.916 57.4239 203.916 56.11C203.916 54.4325 205.71 53.7895 207.258 53.7895C208.644 53.7895 209.298 54.0965 210.14 54.5162C209.895 56.5296 208.21 57.9557 206.388 57.9557ZM206.77 46.0446C204.487 46.0446 202.122 47.0795 201.144 49.3721L203.943 50.5741C204.541 49.3721 205.655 48.981 206.824 48.981C208.455 48.981 210.113 49.9867 210.14 51.7767V52.0001C209.569 51.6646 208.345 51.1615 206.851 51.1615C203.833 51.1615 200.762 52.8666 200.762 56.0542C200.762 58.962 203.236 60.8356 206.008 60.8356C208.127 60.8356 209.298 59.857 210.03 58.7101H210.14V60.3888H213.185V52.0557C213.185 48.1973 210.383 46.0446 206.77 46.0446ZM187.281 49.1656H182.796V41.7162H187.281C189.638 41.7162 190.977 43.7236 190.977 45.4408C190.977 47.125 189.638 49.1656 187.281 49.1656ZM187.2 38.6908H179.644V60.4241H182.796V52.1903H187.2C190.695 52.1903 194.13 49.588 194.13 45.4408C194.13 41.2945 190.695 38.6908 187.2 38.6908ZM145.995 57.9597C143.817 57.9597 141.994 56.0827 141.994 53.507C141.994 50.9014 143.817 48.9978 145.995 48.9978C148.146 48.9978 149.834 50.9014 149.834 53.507C149.834 56.0827 148.146 57.9597 145.995 57.9597ZM149.616 47.7369H149.507C148.8 46.8689 147.438 46.0847 145.724 46.0847C142.129 46.0847 138.835 49.334 138.835 53.507C138.835 57.6514 142.129 60.8723 145.724 60.8723C147.438 60.8723 148.8 60.0879 149.507 59.1922H149.616V60.2556C149.616 63.0854 148.146 64.597 145.778 64.597C143.845 64.597 142.647 63.1689 142.157 61.9649L139.407 63.1411C140.196 65.1009 142.292 67.5103 145.778 67.5103C149.481 67.5103 152.612 65.2693 152.612 59.8075V46.5329H149.616V47.7369ZM154.791 60.4241H157.948V38.6908H154.791V60.4241ZM162.604 53.2544C162.522 50.3974 164.756 48.9415 166.361 48.9415C167.614 48.9415 168.675 49.5859 169.03 50.5096L162.604 53.2544ZM172.405 50.7893C171.806 49.1378 169.982 46.0847 166.252 46.0847C162.549 46.0847 159.472 49.0815 159.472 53.4785C159.472 57.6236 162.522 60.8723 166.605 60.8723C169.9 60.8723 171.806 58.8004 172.596 57.5956L170.146 55.9149C169.329 57.1475 168.213 57.9597 166.605 57.9597C165 57.9597 163.856 57.2033 163.122 55.7188L172.732 51.63L172.405 50.7893ZM95.8351 48.3534V51.4901H103.132C102.914 53.2544 102.342 54.5426 101.471 55.4389C100.409 56.5308 98.7477 57.7356 95.8351 57.7356C91.3426 57.7356 87.8306 54.0108 87.8306 49.3897C87.8306 44.7686 91.3426 41.0433 95.8351 41.0433C98.2584 41.0433 100.028 42.0237 101.335 43.2841L103.486 41.0711C101.662 39.2789 99.2388 37.9066 95.8351 37.9066C89.681 37.9066 84.5081 43.06 84.5081 49.3897C84.5081 55.7188 89.681 60.8723 95.8351 60.8723C99.1563 60.8723 101.662 59.7518 103.622 57.6514C105.636 55.5789 106.263 52.6663 106.263 50.3133C106.263 49.5859 106.208 48.9137 106.099 48.3534H95.8351ZM114.558 57.9597C112.38 57.9597 110.501 56.1112 110.501 53.4785C110.501 50.8178 112.38 48.9978 114.558 48.9978C116.736 48.9978 118.615 50.8178 118.615 53.4785C118.615 56.1112 116.736 57.9597 114.558 57.9597ZM114.558 46.0847C110.582 46.0847 107.343 49.1934 107.343 53.4785C107.343 57.7356 110.582 60.8723 114.558 60.8723C118.533 60.8723 121.773 57.7356 121.773 53.4785C121.773 49.1934 118.533 46.0847 114.558 46.0847ZM130.297 57.9597C128.12 57.9597 126.24 56.1112 126.24 53.4785C126.24 50.8178 128.12 48.9978 130.297 48.9978C132.475 48.9978 134.354 50.8178 134.354 53.4785C134.354 56.1112 132.475 57.9597 130.297 57.9597ZM130.297 46.0847C126.322 46.0847 123.083 49.1934 123.083 53.4785C123.083 57.7356 126.322 60.8723 130.297 60.8723C134.273 60.8723 137.513 57.7356 137.513 53.4785C137.513 49.1934 134.273 46.0847 130.297 46.0847Z" fill="white"/>
<path d="M90.3168 31.2781C88.8016 31.2781 87.4983 30.7296 86.4476 29.649C85.3963 28.5675 84.8639 27.2135 84.8639 25.639C84.8639 24.0645 85.3966 22.7129 86.4476 21.629C87.4984 20.5482 88.8016 19.9999 90.3168 19.9999C91.0887 19.9999 91.8091 20.1371 92.4976 20.4227C93.1863 20.7083 93.7498 21.1048 94.1935 21.6236L94.2981 21.7462L93.1161 22.9617L92.998 22.8123C92.7037 22.4404 92.3295 22.1515 91.8552 21.9414C91.3827 21.7319 90.8652 21.6352 90.3168 21.6352C89.2496 21.6352 88.3641 22.008 87.6247 22.7658C87.6245 22.766 87.6241 22.766 87.624 22.7662C86.9013 23.5393 86.538 24.4807 86.538 25.639C86.538 26.7982 86.9018 27.7398 87.6253 28.5132C88.3647 29.2707 89.2501 29.6456 90.3167 29.6456C91.2937 29.6456 92.1016 29.3651 92.7369 28.8096H92.7372C93.3285 28.2927 93.6834 27.5942 93.809 26.7038H90.1478V25.1012H95.3913L95.4138 25.2479C95.4567 25.5296 95.4871 25.8015 95.4871 26.0628C95.4871 27.5581 95.0439 28.7788 94.1744 29.6768C93.1928 30.7472 91.9019 31.2781 90.3168 31.2781L90.3168 31.2781ZM135.848 31.2781C134.331 31.2781 133.043 30.7294 132.005 29.649C132.005 29.6488 132.005 29.6488 132.005 29.6486C132.005 29.6485 132.005 29.6484 132.005 29.6483C130.966 28.5795 130.451 27.2251 130.451 25.639C130.451 24.0529 130.966 22.6985 132.005 21.6297C132.005 21.6296 132.005 21.6295 132.005 21.6294L132.005 21.629C133.043 20.5484 134.331 19.9999 135.848 19.9999C137.363 19.9999 138.651 20.5485 139.688 21.6453C140.727 22.7139 141.243 24.0657 141.243 25.639C141.243 27.2251 140.728 28.5795 139.689 29.6482L139.689 29.6486C138.651 30.7298 137.35 31.278 135.848 31.278L135.848 31.2781ZM96.9876 31.0445V20.2335H97.1566H103.264V21.8688H98.6327V24.8377H102.81V26.4403H98.6327V29.412H103.264V31.0445H96.9876ZM107.106 31.0445V21.8688H104.264V20.2335H111.592V21.8688H111.423H108.751V31.0445H107.106ZM116.275 31.0445V20.2335H117.92V20.4074V31.0445H116.275ZM122.062 31.0445V21.8688H119.22V20.2335H126.548V21.8688H126.379H123.707V31.0445H122.062ZM142.703 31.0445V20.2335H144.558L149.279 28.0083L149.239 26.5323V20.2335H150.884V31.0445H149.256L144.308 22.8769L144.348 24.3518V24.3542V31.0445H142.703ZM135.848 29.6456C136.915 29.6456 137.787 29.2711 138.497 28.5146L138.498 28.5132L138.499 28.5121C139.219 27.771 139.572 26.817 139.572 25.6389C139.572 24.4638 139.219 23.5065 138.499 22.7658L138.498 22.7647L138.497 22.7637C137.787 22.0072 136.916 21.6351 135.848 21.6351C134.779 21.6351 133.908 22.0066 133.184 22.763L133.184 22.7637C132.477 23.5224 132.125 24.4641 132.125 25.6389C132.125 26.8166 132.477 27.7552 133.184 28.5141L133.184 28.5148C133.908 29.2714 134.779 29.6455 135.848 29.6455V29.6456Z" fill="white"/>
<path d="M50.1585 42.037L32.166 61.6814C32.1666 61.6854 32.168 61.6888 32.1687 61.6929C32.7204 63.8259 34.6144 65.3966 36.8623 65.3966C37.7608 65.3966 38.6045 65.1467 39.328 64.708L39.3854 64.6734L59.6383 52.6517L50.1585 42.037Z" fill="#EA4335"/>
<path d="M68.3612 38.6919L68.344 38.6797L59.6003 33.4656L49.7495 42.4826L59.6346 52.6497L68.3322 47.4874C69.857 46.6406 70.8922 44.987 70.8922 43.0801C70.8922 41.1869 69.8709 39.5415 68.3612 38.6919Z" fill="#FBBC04"/>
<path d="M32.165 24.3971C32.0569 24.8074 32 25.2371 32 25.6834V60.3958C32 60.8413 32.0562 61.2725 32.1657 61.6813L50.7774 42.5394L32.165 24.3971Z" fill="#4285F4"/>
<path d="M50.291 43.0393L59.6038 33.4622L39.374 21.3971C38.6386 20.9441 37.7805 20.6826 36.8621 20.6826C34.6143 20.6826 32.7178 22.2561 32.1658 24.3918C32.1651 24.3938 32.1651 24.3952 32.1651 24.3972L50.291 43.0393Z" fill="#34A853"/>
<defs>
<filter id="filter0_b_1_508" x="-40" y="-39.0972" width="333" height="165.394" filterUnits="userSpaceOnUse" color-interpolation-filters="sRGB">
<feFlood flood-opacity="0" result="BackgroundImageFix"/>
<feGaussianBlur in="BackgroundImageFix" stdDeviation="20"/>
<feComposite in2="SourceAlpha" operator="in" result="effect1_backgroundBlur_1_508"/>
<feBlend mode="normal" in="SourceGraphic" in2="effect1_backgroundBlur_1_508" result="shape"/>
</filter>
<radialGradient id="paint0_radial_1_508" cx="0" cy="0" r="1" gradientUnits="userSpaceOnUse" gradientTransform="translate(-31.1667 -15.0609) rotate(35.9052) scale(223.7 238.514)">
<stop stop-color="white" stop-opacity="0.75"/>
<stop offset="1" stop-color="white" stop-opacity="0"/>
</radialGradient>
</defs>
</svg>
