<svg width="192" height="40" viewBox="0 0 192 40" fill="none" xmlns="http://www.w3.org/2000/svg">
<path d="M36.2451 24.1987C35.3975 24.1987 34.6888 24.0552 34.1191 23.7681C33.554 23.481 33.137 23.1095 32.8682 22.6538C32.5993 22.1981 32.4648 21.7127 32.4648 21.1978H34.167C34.167 21.4894 34.249 21.7537 34.4131 21.9907C34.5771 22.2277 34.8164 22.4168 35.1309 22.5581C35.4453 22.6948 35.8145 22.7632 36.2383 22.7632C37.6191 22.7632 38.3096 22.3006 38.3096 21.3755C38.3096 21.0975 38.223 20.8696 38.0498 20.6919C37.8812 20.5096 37.6442 20.3638 37.3389 20.2544C37.0335 20.1405 36.6439 20.0379 36.1699 19.9468C35.5182 19.8101 34.9463 19.646 34.4541 19.4546C33.9619 19.2632 33.5472 18.9784 33.21 18.6001C32.8727 18.2218 32.7041 17.7342 32.7041 17.1372C32.7041 16.6177 32.8294 16.1597 33.0801 15.7632C33.3307 15.3621 33.7158 15.0477 34.2354 14.8198C34.7549 14.5874 35.4043 14.4712 36.1836 14.4712C36.9401 14.4712 37.5804 14.5874 38.1045 14.8198C38.6286 15.0477 39.0228 15.3713 39.2871 15.7905C39.5514 16.2098 39.6836 16.6997 39.6836 17.2603H37.9814C37.9814 16.8774 37.8288 16.5653 37.5234 16.3237C37.2181 16.0822 36.7646 15.9614 36.1631 15.9614C35.5205 15.9614 35.0671 16.0731 34.8027 16.2964C34.5384 16.5197 34.4062 16.8022 34.4062 17.144C34.4062 17.3993 34.4906 17.6157 34.6592 17.7935C34.8278 17.9666 35.0807 18.1125 35.418 18.231C35.7552 18.3449 36.195 18.4451 36.7373 18.5317C37.7354 18.714 38.5329 19.0216 39.1299 19.4546C39.7314 19.8875 40.0322 20.5301 40.0322 21.3823C40.0322 21.9748 39.8773 22.4829 39.5674 22.9067C39.2575 23.3306 38.8177 23.6519 38.248 23.8706C37.6784 24.0894 37.0107 24.1987 36.2451 24.1987ZM44.5918 24.1987C43.9401 24.1987 43.3659 24.0802 42.8691 23.8433C42.377 23.6017 41.9896 23.2212 41.707 22.7017C41.4245 22.1821 41.2832 21.519 41.2832 20.7124V16.9595H42.9238V20.6646C42.9238 21.3162 43.0628 21.813 43.3408 22.1548C43.6234 22.492 44.0381 22.6606 44.585 22.6606C45.1318 22.6606 45.5443 22.4897 45.8223 22.1479C46.1003 21.8062 46.2393 21.3117 46.2393 20.6646V16.9595H47.8867V20.7124C47.8867 21.519 47.7454 22.1821 47.4629 22.7017C47.1803 23.2166 46.793 23.5949 46.3008 23.8364C45.8086 24.078 45.2389 24.1987 44.5918 24.1987ZM51.25 16.9595V18.1421C51.5052 17.7137 51.8447 17.3765 52.2686 17.1304C52.6969 16.8797 53.1618 16.7544 53.6631 16.7544C54.3148 16.7544 54.9004 16.9207 55.4199 17.2534C55.944 17.5861 56.3519 18.0373 56.6436 18.6069C56.9398 19.172 57.0879 19.7941 57.0879 20.4731C57.0879 21.1567 56.9398 21.7834 56.6436 22.353C56.3473 22.9181 55.9395 23.367 55.4199 23.6997C54.9049 24.0324 54.3262 24.1987 53.6836 24.1987C53.1777 24.1987 52.7129 24.078 52.2891 23.8364C51.8652 23.5903 51.5348 23.2622 51.2979 22.8521L51.332 23.6655V26.3862H49.6777V16.9595H51.25ZM53.3828 22.6743C53.7565 22.6743 54.1006 22.5854 54.415 22.4077C54.7295 22.2254 54.9801 21.9679 55.167 21.6353C55.3538 21.3026 55.4473 20.9152 55.4473 20.4731C55.4473 20.0448 55.3538 19.6642 55.167 19.3315C54.9847 18.9989 54.734 18.7414 54.415 18.5591C54.1006 18.3722 53.7542 18.2788 53.376 18.2788C53.0023 18.2788 52.6559 18.3768 52.3369 18.5728C52.0225 18.7642 51.7718 19.0285 51.585 19.3657C51.4027 19.703 51.3115 20.0721 51.3115 20.4731C51.3115 20.8924 51.4049 21.2707 51.5918 21.6079C51.7786 21.9406 52.0293 22.2026 52.3438 22.394C52.6628 22.5809 53.0091 22.6743 53.3828 22.6743ZM60.1094 16.9595V18.1421C60.3646 17.7137 60.7041 17.3765 61.1279 17.1304C61.5563 16.8797 62.0212 16.7544 62.5225 16.7544C63.1742 16.7544 63.7598 16.9207 64.2793 17.2534C64.8034 17.5861 65.2113 18.0373 65.5029 18.6069C65.7992 19.172 65.9473 19.7941 65.9473 20.4731C65.9473 21.1567 65.7992 21.7834 65.5029 22.353C65.2067 22.9181 64.7988 23.367 64.2793 23.6997C63.7643 24.0324 63.1855 24.1987 62.543 24.1987C62.0371 24.1987 61.5723 24.078 61.1484 23.8364C60.7246 23.5903 60.3942 23.2622 60.1572 22.8521L60.1914 23.6655V26.3862H58.5371V16.9595H60.1094ZM62.2422 22.6743C62.6159 22.6743 62.96 22.5854 63.2744 22.4077C63.5889 22.2254 63.8395 21.9679 64.0264 21.6353C64.2132 21.3026 64.3066 20.9152 64.3066 20.4731C64.3066 20.0448 64.2132 19.6642 64.0264 19.3315C63.8441 18.9989 63.5934 18.7414 63.2744 18.5591C62.96 18.3722 62.6136 18.2788 62.2354 18.2788C61.8617 18.2788 61.5153 18.3768 61.1963 18.5728C60.8818 18.7642 60.6312 19.0285 60.4443 19.3657C60.262 19.703 60.1709 20.0721 60.1709 20.4731C60.1709 20.8924 60.2643 21.2707 60.4512 21.6079C60.638 21.9406 60.8887 22.2026 61.2031 22.394C61.5221 22.5809 61.8685 22.6743 62.2422 22.6743ZM70.5889 24.1987C69.8916 24.1987 69.2604 24.0324 68.6953 23.6997C68.1348 23.367 67.695 22.9181 67.376 22.353C67.057 21.7834 66.8975 21.1567 66.8975 20.4731C66.8975 19.7941 67.057 19.1698 67.376 18.6001C67.695 18.0304 68.1348 17.5793 68.6953 17.2466C69.2604 16.9139 69.8939 16.7476 70.5957 16.7476C71.3021 16.7476 71.9378 16.9139 72.5029 17.2466C73.068 17.5793 73.5101 18.0304 73.8291 18.6001C74.1481 19.1698 74.3076 19.7941 74.3076 20.4731C74.3076 21.1567 74.1481 21.7834 73.8291 22.353C73.5101 22.9227 73.0658 23.3739 72.4961 23.7065C71.931 24.0347 71.2952 24.1987 70.5889 24.1987ZM70.6025 22.6606C70.9945 22.6606 71.3454 22.5672 71.6553 22.3804C71.9697 22.1935 72.2158 21.9338 72.3936 21.6011C72.5758 21.2684 72.667 20.8924 72.667 20.4731C72.667 20.0584 72.5758 19.6847 72.3936 19.3521C72.2158 19.0148 71.9697 18.7528 71.6553 18.5659C71.3408 18.3745 70.9899 18.2788 70.6025 18.2788C70.2152 18.2788 69.8643 18.3745 69.5498 18.5659C69.2354 18.7528 68.987 19.0148 68.8047 19.3521C68.627 19.6847 68.5381 20.0584 68.5381 20.4731C68.5381 20.8924 68.627 21.2684 68.8047 21.6011C68.987 21.9338 69.2331 22.1935 69.543 22.3804C69.8574 22.5672 70.2106 22.6606 70.6025 22.6606ZM77.3359 16.9595V18.231C77.5046 17.8345 77.7484 17.5246 78.0674 17.3013C78.391 17.0734 78.776 16.9595 79.2227 16.9595H79.9746V18.3813H79.3115C78.9333 18.3813 78.6006 18.4725 78.3135 18.6548C78.0264 18.8371 77.8031 19.1037 77.6436 19.4546C77.484 19.8055 77.4043 20.2271 77.4043 20.7192V23.9868H75.75V16.9595H77.3359ZM84.3701 23.9868C83.7002 23.9868 83.1442 23.8022 82.7021 23.4331C82.2601 23.0594 82.0391 22.353 82.0391 21.314V18.3813H80.583V16.9595H82.0391V14.9019L83.6934 14.8882V16.9595H85.7988V18.3813H83.6934V21.3892C83.6934 22.2049 84.0329 22.6128 84.7119 22.6128H85.7988V23.9868H84.3701Z" fill="white"/>
<rect x="0.5" y="0.5" width="118" height="38.9735" rx="15.5" stroke="#05FF69"/>
<path d="M119.5 20.4868L160.999 20.9865" stroke="#05FF69" stroke-width="3"/>
<ellipse cx="172" cy="19.9868" rx="20" ry="19.9868" fill="#05FF69"/>
<path d="M180.333 16.2683V24.1506C180.333 24.7878 180.09 25.401 179.652 25.8647C179.215 26.3283 178.617 26.6074 177.98 26.6448L177.833 26.6489H166.167C165.529 26.649 164.915 26.4055 164.451 25.9683C163.987 25.5311 163.708 24.9333 163.671 24.2972L163.667 24.1506V16.2683L171.537 21.5123L171.634 21.5673C171.748 21.6229 171.873 21.6518 172 21.6518C172.127 21.6518 172.252 21.6229 172.366 21.5673L172.462 21.5123L180.333 16.2683Z" fill="#090921"/>
<path d="M177.833 13.3245C178.733 13.3245 179.522 13.7991 179.962 14.5128L172 19.8177L164.037 14.5128C164.246 14.1737 164.533 13.8894 164.875 13.6837C165.216 13.478 165.602 13.3568 165.999 13.3303L166.167 13.3245H177.833Z" fill="#090921"/>
</svg>
