<svg width="654" height="123" viewBox="0 0 654 123" fill="none" xmlns="http://www.w3.org/2000/svg">
<g filter="url(#filter0_b_1_486)">
<rect width="654" height="122.351" rx="35" fill="white" fill-opacity="0.2"/>
<rect x="0.5" y="0.5" width="653" height="121.351" rx="34.5" stroke="url(#paint0_radial_1_486)"/>
</g>
<path d="M153.6 41.4001H158.55L161.79 54.0001H160.17L159.18 50.3101H152.97L151.98 54.0001H150.36L153.6 41.4001ZM158.82 48.7801L157.29 42.9301H154.86L153.33 48.7801H158.82ZM166.646 54.1801C166.01 54.1801 165.416 54.0661 164.864 53.8381C164.324 53.5981 163.85 53.2741 163.442 52.8661C163.046 52.4461 162.728 51.9481 162.488 51.3721C162.26 50.7961 162.146 50.1721 162.146 49.5001C162.146 48.8281 162.26 48.2041 162.488 47.6281C162.728 47.0521 163.046 46.5601 163.442 46.1521C163.85 45.7321 164.324 45.4081 164.864 45.1801C165.416 44.9401 166.01 44.8201 166.646 44.8201C167.09 44.8201 167.492 44.8681 167.852 44.9641C168.224 45.0481 168.554 45.1681 168.842 45.3241C169.13 45.4681 169.382 45.6361 169.598 45.8281C169.814 46.0201 170 46.2121 170.156 46.4041C170.528 46.8721 170.798 47.3941 170.966 47.9701H169.526C169.382 47.6341 169.184 47.3341 168.932 47.0701C168.716 46.8421 168.422 46.6381 168.05 46.4581C167.678 46.2661 167.21 46.1701 166.646 46.1701C166.214 46.1701 165.812 46.2541 165.44 46.4221C165.068 46.5781 164.744 46.8061 164.468 47.1061C164.192 47.3941 163.976 47.7421 163.82 48.1501C163.664 48.5581 163.586 49.0081 163.586 49.5001C163.586 50.0041 163.67 50.4601 163.838 50.8681C164.006 51.2761 164.228 51.6241 164.504 51.9121C164.78 52.2001 165.104 52.4281 165.476 52.5961C165.848 52.7521 166.238 52.8301 166.646 52.8301C167.234 52.8301 167.714 52.7281 168.086 52.5241C168.47 52.3201 168.776 52.0921 169.004 51.8401C169.268 51.5521 169.472 51.2221 169.616 50.8501H171.056C170.888 51.4861 170.612 52.0441 170.228 52.5241C170.06 52.7281 169.868 52.9321 169.652 53.1361C169.436 53.3281 169.178 53.5021 168.878 53.6581C168.59 53.8141 168.26 53.9401 167.888 54.0361C167.516 54.1321 167.102 54.1801 166.646 54.1801ZM176.104 54.1801C175.468 54.1801 174.874 54.0661 174.322 53.8381C173.782 53.5981 173.308 53.2741 172.9 52.8661C172.504 52.4461 172.186 51.9481 171.946 51.3721C171.718 50.7961 171.604 50.1721 171.604 49.5001C171.604 48.8281 171.718 48.2041 171.946 47.6281C172.186 47.0521 172.504 46.5601 172.9 46.1521C173.308 45.7321 173.782 45.4081 174.322 45.1801C174.874 44.9401 175.468 44.8201 176.104 44.8201C176.548 44.8201 176.95 44.8681 177.31 44.9641C177.682 45.0481 178.012 45.1681 178.3 45.3241C178.588 45.4681 178.84 45.6361 179.056 45.8281C179.272 46.0201 179.458 46.2121 179.614 46.4041C179.986 46.8721 180.256 47.3941 180.424 47.9701H178.984C178.84 47.6341 178.642 47.3341 178.39 47.0701C178.174 46.8421 177.88 46.6381 177.508 46.4581C177.136 46.2661 176.668 46.1701 176.104 46.1701C175.672 46.1701 175.27 46.2541 174.898 46.4221C174.526 46.5781 174.202 46.8061 173.926 47.1061C173.65 47.3941 173.434 47.7421 173.278 48.1501C173.122 48.5581 173.044 49.0081 173.044 49.5001C173.044 50.0041 173.128 50.4601 173.296 50.8681C173.464 51.2761 173.686 51.6241 173.962 51.9121C174.238 52.2001 174.562 52.4281 174.934 52.5961C175.306 52.7521 175.696 52.8301 176.104 52.8301C176.692 52.8301 177.172 52.7281 177.544 52.5241C177.928 52.3201 178.234 52.0921 178.462 51.8401C178.726 51.5521 178.93 51.2221 179.074 50.8501H180.514C180.346 51.4861 180.07 52.0441 179.686 52.5241C179.518 52.7281 179.326 52.9321 179.11 53.1361C178.894 53.3281 178.636 53.5021 178.336 53.6581C178.048 53.8141 177.718 53.9401 177.346 54.0361C176.974 54.1321 176.56 54.1801 176.104 54.1801ZM185.652 54.1801C185.004 54.1801 184.398 54.0661 183.834 53.8381C183.27 53.5981 182.784 53.2741 182.376 52.8661C181.968 52.4461 181.644 51.9481 181.404 51.3721C181.176 50.7961 181.062 50.1721 181.062 49.5001C181.062 48.8281 181.176 48.2041 181.404 47.6281C181.644 47.0521 181.968 46.5601 182.376 46.1521C182.784 45.7321 183.27 45.4081 183.834 45.1801C184.398 44.9401 185.004 44.8201 185.652 44.8201C186.3 44.8201 186.906 44.9401 187.47 45.1801C188.034 45.4081 188.52 45.7261 188.928 46.1341C189.336 46.5421 189.654 47.0281 189.882 47.5921C190.122 48.1561 190.242 48.7621 190.242 49.4101V49.9501H182.502C182.55 50.3701 182.664 50.7601 182.844 51.1201C183.024 51.4681 183.252 51.7681 183.528 52.0201C183.804 52.2721 184.122 52.4701 184.482 52.6141C184.854 52.7581 185.244 52.8301 185.652 52.8301C186.192 52.8301 186.648 52.7461 187.02 52.5781C187.392 52.4101 187.698 52.2241 187.938 52.0201C188.214 51.7921 188.442 51.5221 188.622 51.2101H190.062C189.846 51.7741 189.54 52.2721 189.144 52.7041C188.796 53.0761 188.34 53.4181 187.776 53.7301C187.212 54.0301 186.504 54.1801 185.652 54.1801ZM188.712 48.6901C188.664 48.3541 188.556 48.0361 188.388 47.7361C188.232 47.4241 188.022 47.1541 187.758 46.9261C187.494 46.6981 187.182 46.5181 186.822 46.3861C186.474 46.2421 186.084 46.1701 185.652 46.1701C185.22 46.1701 184.824 46.2421 184.464 46.3861C184.116 46.5181 183.804 46.6981 183.528 46.9261C183.264 47.1541 183.048 47.4241 182.88 47.7361C182.712 48.0361 182.598 48.3541 182.538 48.6901H188.712ZM191.499 45.0001H192.939V46.4401H192.957C192.957 46.4401 193.011 46.3561 193.119 46.1881C193.239 46.0081 193.425 45.8221 193.677 45.6301C193.941 45.4261 194.277 45.2401 194.685 45.0721C195.093 44.9041 195.591 44.8201 196.179 44.8201C196.767 44.8201 197.319 44.9401 197.835 45.1801C198.363 45.4081 198.825 45.7321 199.221 46.1521C199.617 46.5601 199.929 47.0521 200.157 47.6281C200.385 48.2041 200.499 48.8281 200.499 49.5001C200.499 50.1721 200.385 50.7961 200.157 51.3721C199.929 51.9481 199.617 52.4461 199.221 52.8661C198.825 53.2741 198.363 53.5981 197.835 53.8381C197.319 54.0661 196.767 54.1801 196.179 54.1801C195.591 54.1801 195.093 54.0961 194.685 53.9281C194.277 53.7601 193.941 53.5801 193.677 53.3881C193.425 53.1841 193.239 52.9981 193.119 52.8301C193.011 52.6501 192.957 52.5601 192.957 52.5601H192.939V57.4201H191.499V45.0001ZM195.999 52.8301C196.431 52.8301 196.833 52.7521 197.205 52.5961C197.577 52.4281 197.901 52.2001 198.177 51.9121C198.453 51.6121 198.669 51.2581 198.825 50.8501C198.981 50.4421 199.059 49.9921 199.059 49.5001C199.059 49.0081 198.981 48.5581 198.825 48.1501C198.669 47.7421 198.453 47.3941 198.177 47.1061C197.901 46.8061 197.577 46.5781 197.205 46.4221C196.833 46.2541 196.431 46.1701 195.999 46.1701C195.567 46.1701 195.165 46.2541 194.793 46.4221C194.421 46.5781 194.097 46.8061 193.821 47.1061C193.545 47.3941 193.329 47.7421 193.173 48.1501C193.017 48.5581 192.939 49.0081 192.939 49.5001C192.939 49.9921 193.017 50.4421 193.173 50.8501C193.329 51.2581 193.545 51.6121 193.821 51.9121C194.097 52.2001 194.421 52.4281 194.793 52.5961C195.165 52.7521 195.567 52.8301 195.999 52.8301ZM202.125 46.3501H200.955V45.0001H202.125V43.0201H203.565V45.0001H206.445V46.3501H203.565V52.6501H206.535V54.0001H202.125V46.3501ZM215.905 54.1801C215.269 54.1801 214.675 54.0661 214.123 53.8381C213.583 53.5981 213.109 53.2741 212.701 52.8661C212.305 52.4461 211.987 51.9481 211.747 51.3721C211.519 50.7961 211.405 50.1721 211.405 49.5001C211.405 48.8281 211.519 48.2041 211.747 47.6281C211.987 47.0521 212.305 46.5601 212.701 46.1521C213.109 45.7321 213.583 45.4081 214.123 45.1801C214.675 44.9401 215.269 44.8201 215.905 44.8201C216.349 44.8201 216.751 44.8681 217.111 44.9641C217.483 45.0481 217.813 45.1681 218.101 45.3241C218.389 45.4681 218.641 45.6361 218.857 45.8281C219.073 46.0201 219.259 46.2121 219.415 46.4041C219.787 46.8721 220.057 47.3941 220.225 47.9701H218.785C218.641 47.6341 218.443 47.3341 218.191 47.0701C217.975 46.8421 217.681 46.6381 217.309 46.4581C216.937 46.2661 216.469 46.1701 215.905 46.1701C215.473 46.1701 215.071 46.2541 214.699 46.4221C214.327 46.5781 214.003 46.8061 213.727 47.1061C213.451 47.3941 213.235 47.7421 213.079 48.1501C212.923 48.5581 212.845 49.0081 212.845 49.5001C212.845 50.0041 212.929 50.4601 213.097 50.8681C213.265 51.2761 213.487 51.6241 213.763 51.9121C214.039 52.2001 214.363 52.4281 214.735 52.5961C215.107 52.7521 215.497 52.8301 215.905 52.8301C216.493 52.8301 216.973 52.7281 217.345 52.5241C217.729 52.3201 218.035 52.0921 218.263 51.8401C218.527 51.5521 218.731 51.2221 218.875 50.8501H220.315C220.147 51.4861 219.871 52.0441 219.487 52.5241C219.319 52.7281 219.127 52.9321 218.911 53.1361C218.695 53.3281 218.437 53.5021 218.137 53.6581C217.849 53.8141 217.519 53.9401 217.147 54.0361C216.775 54.1321 216.361 54.1801 215.905 54.1801ZM225.542 54.1801C224.87 54.1801 224.246 54.0661 223.67 53.8381C223.094 53.5981 222.596 53.2741 222.176 52.8661C221.768 52.4461 221.444 51.9481 221.204 51.3721C220.976 50.7961 220.862 50.1721 220.862 49.5001C220.862 48.8281 220.976 48.2041 221.204 47.6281C221.444 47.0521 221.768 46.5601 222.176 46.1521C222.596 45.7321 223.094 45.4081 223.67 45.1801C224.246 44.9401 224.87 44.8201 225.542 44.8201C226.214 44.8201 226.838 44.9401 227.414 45.1801C227.99 45.4081 228.482 45.7321 228.89 46.1521C229.31 46.5601 229.634 47.0521 229.862 47.6281C230.102 48.2041 230.222 48.8281 230.222 49.5001C230.222 50.1721 230.102 50.7961 229.862 51.3721C229.634 51.9481 229.31 52.4461 228.89 52.8661C228.482 53.2741 227.99 53.5981 227.414 53.8381C226.838 54.0661 226.214 54.1801 225.542 54.1801ZM225.542 52.8301C226.01 52.8301 226.442 52.7521 226.838 52.5961C227.234 52.4281 227.576 52.2001 227.864 51.9121C228.152 51.6121 228.374 51.2581 228.53 50.8501C228.698 50.4421 228.782 49.9921 228.782 49.5001C228.782 49.0081 228.698 48.5581 228.53 48.1501C228.374 47.7421 228.152 47.3941 227.864 47.1061C227.576 46.8061 227.234 46.5781 226.838 46.4221C226.442 46.2541 226.01 46.1701 225.542 46.1701C225.074 46.1701 224.642 46.2541 224.246 46.4221C223.85 46.5781 223.508 46.8061 223.22 47.1061C222.932 47.3941 222.704 47.7421 222.536 48.1501C222.38 48.5581 222.302 49.0081 222.302 49.5001C222.302 49.9921 222.38 50.4421 222.536 50.8501C222.704 51.2581 222.932 51.6121 223.22 51.9121C223.508 52.2001 223.85 52.4281 224.246 52.5961C224.642 52.7521 225.074 52.8301 225.542 52.8301ZM231.475 45.0001H232.915V46.3501H232.933C233.113 46.0621 233.347 45.8101 233.635 45.5941C233.875 45.4021 234.187 45.2281 234.571 45.0721C234.967 44.9041 235.435 44.8201 235.975 44.8201C236.515 44.8201 237.007 44.9101 237.451 45.0901C237.895 45.2581 238.273 45.5101 238.585 45.8461C238.897 46.1821 239.137 46.5901 239.305 47.0701C239.485 47.5381 239.575 48.0781 239.575 48.6901V54.0001H238.135V48.7801C238.135 47.8801 237.907 47.2201 237.451 46.8001C237.007 46.3801 236.425 46.1701 235.705 46.1701C235.297 46.1701 234.919 46.2421 234.571 46.3861C234.235 46.5181 233.941 46.7161 233.689 46.9801C233.449 47.2441 233.257 47.5621 233.113 47.9341C232.981 48.2941 232.915 48.6961 232.915 49.1401V54.0001H231.475V45.0001ZM241.645 46.3501H240.475V45.0001H241.645V43.0201H243.085V45.0001H245.965V46.3501H243.085V52.6501H246.055V54.0001H241.645V46.3501ZM250.919 54.1801C250.331 54.1801 249.773 54.0661 249.245 53.8381C248.729 53.5981 248.273 53.2741 247.877 52.8661C247.481 52.4461 247.169 51.9481 246.941 51.3721C246.713 50.7961 246.599 50.1721 246.599 49.5001C246.599 48.8281 246.713 48.2041 246.941 47.6281C247.169 47.0521 247.481 46.5601 247.877 46.1521C248.273 45.7321 248.729 45.4081 249.245 45.1801C249.773 44.9401 250.331 44.8201 250.919 44.8201C251.507 44.8201 252.005 44.9041 252.413 45.0721C252.821 45.2401 253.151 45.4261 253.403 45.6301C253.667 45.8341 253.853 46.0261 253.961 46.2061C254.081 46.3741 254.141 46.4581 254.141 46.4581H254.159V45.0001H255.599V54.0001H254.159V52.5601H254.141C254.141 52.5601 254.081 52.6501 253.961 52.8301C253.853 52.9981 253.667 53.1841 253.403 53.3881C253.151 53.5801 252.821 53.7601 252.413 53.9281C252.005 54.0961 251.507 54.1801 250.919 54.1801ZM251.099 52.8301C251.531 52.8301 251.933 52.7521 252.305 52.5961C252.677 52.4281 253.001 52.2001 253.277 51.9121C253.553 51.6121 253.769 51.2581 253.925 50.8501C254.081 50.4421 254.159 49.9921 254.159 49.5001C254.159 49.0081 254.081 48.5581 253.925 48.1501C253.769 47.7421 253.553 47.3941 253.277 47.1061C253.001 46.8061 252.677 46.5781 252.305 46.4221C251.933 46.2541 251.531 46.1701 251.099 46.1701C250.667 46.1701 250.265 46.2541 249.893 46.4221C249.521 46.5781 249.197 46.8061 248.921 47.1061C248.645 47.3941 248.429 47.7421 248.273 48.1501C248.117 48.5581 248.039 49.0081 248.039 49.5001C248.039 49.9921 248.117 50.4421 248.273 50.8501C248.429 51.2581 248.645 51.6121 248.921 51.9121C249.197 52.2001 249.521 52.4281 249.893 52.5961C250.265 52.7521 250.667 52.8301 251.099 52.8301ZM261.365 54.1801C260.729 54.1801 260.135 54.0661 259.583 53.8381C259.043 53.5981 258.569 53.2741 258.161 52.8661C257.765 52.4461 257.447 51.9481 257.207 51.3721C256.979 50.7961 256.865 50.1721 256.865 49.5001C256.865 48.8281 256.979 48.2041 257.207 47.6281C257.447 47.0521 257.765 46.5601 258.161 46.1521C258.569 45.7321 259.043 45.4081 259.583 45.1801C260.135 44.9401 260.729 44.8201 261.365 44.8201C261.809 44.8201 262.211 44.8681 262.571 44.9641C262.943 45.0481 263.273 45.1681 263.561 45.3241C263.849 45.4681 264.101 45.6361 264.317 45.8281C264.533 46.0201 264.719 46.2121 264.875 46.4041C265.247 46.8721 265.517 47.3941 265.685 47.9701H264.245C264.101 47.6341 263.903 47.3341 263.651 47.0701C263.435 46.8421 263.141 46.6381 262.769 46.4581C262.397 46.2661 261.929 46.1701 261.365 46.1701C260.933 46.1701 260.531 46.2541 260.159 46.4221C259.787 46.5781 259.463 46.8061 259.187 47.1061C258.911 47.3941 258.695 47.7421 258.539 48.1501C258.383 48.5581 258.305 49.0081 258.305 49.5001C258.305 50.0041 258.389 50.4601 258.557 50.8681C258.725 51.2761 258.947 51.6241 259.223 51.9121C259.499 52.2001 259.823 52.4281 260.195 52.5961C260.567 52.7521 260.957 52.8301 261.365 52.8301C261.953 52.8301 262.433 52.7281 262.805 52.5241C263.189 52.3201 263.495 52.0921 263.723 51.8401C263.987 51.5521 264.191 51.2221 264.335 50.8501H265.775C265.607 51.4861 265.331 52.0441 264.947 52.5241C264.779 52.7281 264.587 52.9321 264.371 53.1361C264.155 53.3281 263.897 53.5021 263.597 53.6581C263.309 53.8141 262.979 53.9401 262.607 54.0361C262.235 54.1321 261.821 54.1801 261.365 54.1801ZM267.223 46.3501H266.053V45.0001H267.223V43.0201H268.663V45.0001H271.543V46.3501H268.663V52.6501H271.633V54.0001H267.223V46.3501ZM272.717 41.4001H274.157V52.6501H276.227V54.0001H272.717V41.4001ZM281.004 54.1801C280.356 54.1801 279.75 54.0661 279.186 53.8381C278.622 53.5981 278.136 53.2741 277.728 52.8661C277.32 52.4461 276.996 51.9481 276.756 51.3721C276.528 50.7961 276.414 50.1721 276.414 49.5001C276.414 48.8281 276.528 48.2041 276.756 47.6281C276.996 47.0521 277.32 46.5601 277.728 46.1521C278.136 45.7321 278.622 45.4081 279.186 45.1801C279.75 44.9401 280.356 44.8201 281.004 44.8201C281.652 44.8201 282.258 44.9401 282.822 45.1801C283.386 45.4081 283.872 45.7261 284.28 46.1341C284.688 46.5421 285.006 47.0281 285.234 47.5921C285.474 48.1561 285.594 48.7621 285.594 49.4101V49.9501H277.854C277.902 50.3701 278.016 50.7601 278.196 51.1201C278.376 51.4681 278.604 51.7681 278.88 52.0201C279.156 52.2721 279.474 52.4701 279.834 52.6141C280.206 52.7581 280.596 52.8301 281.004 52.8301C281.544 52.8301 282 52.7461 282.372 52.5781C282.744 52.4101 283.05 52.2241 283.29 52.0201C283.566 51.7921 283.794 51.5221 283.974 51.2101H285.414C285.198 51.7741 284.892 52.2721 284.496 52.7041C284.148 53.0761 283.692 53.4181 283.128 53.7301C282.564 54.0301 281.856 54.1801 281.004 54.1801ZM284.064 48.6901C284.016 48.3541 283.908 48.0361 283.74 47.7361C283.584 47.4241 283.374 47.1541 283.11 46.9261C282.846 46.6981 282.534 46.5181 282.174 46.3861C281.826 46.2421 281.436 46.1701 281.004 46.1701C280.572 46.1701 280.176 46.2421 279.816 46.3861C279.468 46.5181 279.156 46.6981 278.88 46.9261C278.616 47.1541 278.4 47.4241 278.232 47.7361C278.064 48.0361 277.95 48.3541 277.89 48.6901H284.064ZM290.361 54.1801C289.917 54.1801 289.521 54.1381 289.173 54.0541C288.825 53.9701 288.513 53.8621 288.237 53.7301C287.961 53.5861 287.715 53.4241 287.499 53.2441C287.295 53.0641 287.121 52.8841 286.977 52.7041C286.629 52.2721 286.377 51.7741 286.221 51.2101H287.751C287.871 51.5221 288.045 51.7921 288.273 52.0201C288.477 52.2241 288.741 52.4101 289.065 52.5781C289.401 52.7461 289.833 52.8301 290.361 52.8301C291.177 52.8301 291.753 52.6981 292.089 52.4341C292.437 52.1581 292.611 51.8401 292.611 51.4801C292.611 51.1681 292.461 50.9281 292.161 50.7601C291.873 50.5921 291.507 50.4481 291.063 50.3281C290.631 50.2081 290.157 50.0941 289.641 49.9861C289.125 49.8781 288.645 49.7221 288.201 49.5181C287.769 49.3141 287.403 49.0441 287.103 48.7081C286.815 48.3721 286.671 47.9161 286.671 47.3401C286.671 47.0041 286.743 46.6861 286.887 46.3861C287.031 46.0741 287.247 45.8041 287.535 45.5761C287.823 45.3481 288.177 45.1681 288.597 45.0361C289.029 44.8921 289.527 44.8201 290.091 44.8201C290.511 44.8201 290.883 44.8621 291.207 44.9461C291.543 45.0181 291.837 45.1201 292.089 45.2521C292.353 45.3721 292.581 45.5161 292.773 45.6841C292.965 45.8401 293.133 46.0021 293.277 46.1701C293.589 46.5661 293.817 47.0161 293.961 47.5201H292.431C292.323 47.2801 292.167 47.0581 291.963 46.8541C291.795 46.6861 291.555 46.5301 291.243 46.3861C290.943 46.2421 290.559 46.1701 290.091 46.1701C289.755 46.1701 289.461 46.2061 289.209 46.2781C288.957 46.3501 288.747 46.4461 288.579 46.5661C288.423 46.6741 288.303 46.8001 288.219 46.9441C288.147 47.0761 288.111 47.2081 288.111 47.3401C288.111 47.6521 288.255 47.8921 288.543 48.0601C288.843 48.2281 289.209 48.3721 289.641 48.4921C290.085 48.6121 290.565 48.7261 291.081 48.8341C291.597 48.9421 292.071 49.0981 292.503 49.3021C292.947 49.5061 293.313 49.7821 293.601 50.1301C293.901 50.4661 294.051 50.9161 294.051 51.4801C294.051 51.8401 293.973 52.1821 293.817 52.5061C293.661 52.8301 293.427 53.1181 293.115 53.3701C292.803 53.6221 292.419 53.8201 291.963 53.9641C291.507 54.1081 290.973 54.1801 290.361 54.1801ZM298.817 54.1801C298.373 54.1801 297.977 54.1381 297.629 54.0541C297.281 53.9701 296.969 53.8621 296.693 53.7301C296.417 53.5861 296.171 53.4241 295.955 53.2441C295.751 53.0641 295.577 52.8841 295.433 52.7041C295.085 52.2721 294.833 51.7741 294.677 51.2101H296.207C296.327 51.5221 296.501 51.7921 296.729 52.0201C296.933 52.2241 297.197 52.4101 297.521 52.5781C297.857 52.7461 298.289 52.8301 298.817 52.8301C299.633 52.8301 300.209 52.6981 300.545 52.4341C300.893 52.1581 301.067 51.8401 301.067 51.4801C301.067 51.1681 300.917 50.9281 300.617 50.7601C300.329 50.5921 299.963 50.4481 299.519 50.3281C299.087 50.2081 298.613 50.0941 298.097 49.9861C297.581 49.8781 297.101 49.7221 296.657 49.5181C296.225 49.3141 295.859 49.0441 295.559 48.7081C295.271 48.3721 295.127 47.9161 295.127 47.3401C295.127 47.0041 295.199 46.6861 295.343 46.3861C295.487 46.0741 295.703 45.8041 295.991 45.5761C296.279 45.3481 296.633 45.1681 297.053 45.0361C297.485 44.8921 297.983 44.8201 298.547 44.8201C298.967 44.8201 299.339 44.8621 299.663 44.9461C299.999 45.0181 300.293 45.1201 300.545 45.2521C300.809 45.3721 301.037 45.5161 301.229 45.6841C301.421 45.8401 301.589 46.0021 301.733 46.1701C302.045 46.5661 302.273 47.0161 302.417 47.5201H300.887C300.779 47.2801 300.623 47.0581 300.419 46.8541C300.251 46.6861 300.011 46.5301 299.699 46.3861C299.399 46.2421 299.015 46.1701 298.547 46.1701C298.211 46.1701 297.917 46.2061 297.665 46.2781C297.413 46.3501 297.203 46.4461 297.035 46.5661C296.879 46.6741 296.759 46.8001 296.675 46.9441C296.603 47.0761 296.567 47.2081 296.567 47.3401C296.567 47.6521 296.711 47.8921 296.999 48.0601C297.299 48.2281 297.665 48.3721 298.097 48.4921C298.541 48.6121 299.021 48.7261 299.537 48.8341C300.053 48.9421 300.527 49.0981 300.959 49.3021C301.403 49.5061 301.769 49.7821 302.057 50.1301C302.357 50.4661 302.507 50.9161 302.507 51.4801C302.507 51.8401 302.429 52.1821 302.273 52.5061C302.117 52.8301 301.883 53.1181 301.571 53.3701C301.259 53.6221 300.875 53.8201 300.419 53.9641C299.963 54.1081 299.429 54.1801 298.817 54.1801ZM308.088 45.0001H309.528V46.4401H309.546C309.546 46.4401 309.6 46.3561 309.708 46.1881C309.828 46.0081 310.014 45.8221 310.266 45.6301C310.53 45.4261 310.866 45.2401 311.274 45.0721C311.682 44.9041 312.18 44.8201 312.768 44.8201C313.356 44.8201 313.908 44.9401 314.424 45.1801C314.952 45.4081 315.414 45.7321 315.81 46.1521C316.206 46.5601 316.518 47.0521 316.746 47.6281C316.974 48.2041 317.088 48.8281 317.088 49.5001C317.088 50.1721 316.974 50.7961 316.746 51.3721C316.518 51.9481 316.206 52.4461 315.81 52.8661C315.414 53.2741 314.952 53.5981 314.424 53.8381C313.908 54.0661 313.356 54.1801 312.768 54.1801C312.18 54.1801 311.682 54.0961 311.274 53.9281C310.866 53.7601 310.53 53.5801 310.266 53.3881C310.014 53.1841 309.828 52.9981 309.708 52.8301C309.6 52.6501 309.546 52.5601 309.546 52.5601H309.528V57.4201H308.088V45.0001ZM312.588 52.8301C313.02 52.8301 313.422 52.7521 313.794 52.5961C314.166 52.4281 314.49 52.2001 314.766 51.9121C315.042 51.6121 315.258 51.2581 315.414 50.8501C315.57 50.4421 315.648 49.9921 315.648 49.5001C315.648 49.0081 315.57 48.5581 315.414 48.1501C315.258 47.7421 315.042 47.3941 314.766 47.1061C314.49 46.8061 314.166 46.5781 313.794 46.4221C313.422 46.2541 313.02 46.1701 312.588 46.1701C312.156 46.1701 311.754 46.2541 311.382 46.4221C311.01 46.5781 310.686 46.8061 310.41 47.1061C310.134 47.3941 309.918 47.7421 309.762 48.1501C309.606 48.5581 309.528 49.0081 309.528 49.5001C309.528 49.9921 309.606 50.4421 309.762 50.8501C309.918 51.2581 310.134 51.6121 310.41 51.9121C310.686 52.2001 311.01 52.4281 311.382 52.5961C311.754 52.7521 312.156 52.8301 312.588 52.8301ZM322.134 54.1801C321.546 54.1801 320.988 54.0661 320.46 53.8381C319.944 53.5981 319.488 53.2741 319.092 52.8661C318.696 52.4461 318.384 51.9481 318.156 51.3721C317.928 50.7961 317.814 50.1721 317.814 49.5001C317.814 48.8281 317.928 48.2041 318.156 47.6281C318.384 47.0521 318.696 46.5601 319.092 46.1521C319.488 45.7321 319.944 45.4081 320.46 45.1801C320.988 44.9401 321.546 44.8201 322.134 44.8201C322.722 44.8201 323.22 44.9041 323.628 45.0721C324.036 45.2401 324.366 45.4261 324.618 45.6301C324.882 45.8341 325.068 46.0261 325.176 46.2061C325.296 46.3741 325.356 46.4581 325.356 46.4581H325.374V45.0001H326.814V54.0001H325.374V52.5601H325.356C325.356 52.5601 325.296 52.6501 325.176 52.8301C325.068 52.9981 324.882 53.1841 324.618 53.3881C324.366 53.5801 324.036 53.7601 323.628 53.9281C323.22 54.0961 322.722 54.1801 322.134 54.1801ZM322.314 52.8301C322.746 52.8301 323.148 52.7521 323.52 52.5961C323.892 52.4281 324.216 52.2001 324.492 51.9121C324.768 51.6121 324.984 51.2581 325.14 50.8501C325.296 50.4421 325.374 49.9921 325.374 49.5001C325.374 49.0081 325.296 48.5581 325.14 48.1501C324.984 47.7421 324.768 47.3941 324.492 47.1061C324.216 46.8061 323.892 46.5781 323.52 46.4221C323.148 46.2541 322.746 46.1701 322.314 46.1701C321.882 46.1701 321.48 46.2541 321.108 46.4221C320.736 46.5781 320.412 46.8061 320.136 47.1061C319.86 47.3941 319.644 47.7421 319.488 48.1501C319.332 48.5581 319.254 49.0081 319.254 49.5001C319.254 49.9921 319.332 50.4421 319.488 50.8501C319.644 51.2581 319.86 51.6121 320.136 51.9121C320.412 52.2001 320.736 52.4281 321.108 52.5961C321.48 52.7521 321.882 52.8301 322.314 52.8301ZM332.22 54.0001H330.15L327.72 45.0001H329.25L331.23 52.6501H332.58L334.92 45.0001H336.45L332.67 57.4201H331.14L332.22 54.0001ZM336.988 45.0001H338.428V46.3501H338.446C338.614 46.0621 338.836 45.8101 339.112 45.5941C339.352 45.4021 339.658 45.2281 340.03 45.0721C340.402 44.9041 340.858 44.8201 341.398 44.8201C341.938 44.8201 342.388 44.9161 342.748 45.1081C343.12 45.2881 343.42 45.4921 343.648 45.7201C343.912 45.9841 344.122 46.2841 344.278 46.6201H344.368C344.56 46.2841 344.812 45.9841 345.124 45.7201C345.388 45.4921 345.73 45.2881 346.15 45.1081C346.57 44.9161 347.086 44.8201 347.698 44.8201C348.166 44.8201 348.604 44.9101 349.012 45.0901C349.42 45.2581 349.774 45.5101 350.074 45.8461C350.374 46.1821 350.608 46.5901 350.776 47.0701C350.944 47.5381 351.028 48.0781 351.028 48.6901V54.0001H349.588V48.7801C349.588 47.9161 349.384 47.2681 348.976 46.8361C348.58 46.3921 348.064 46.1701 347.428 46.1701C347.068 46.1701 346.726 46.2481 346.402 46.4041C346.078 46.5481 345.79 46.7461 345.538 46.9981C345.286 47.2501 345.088 47.5441 344.944 47.8801C344.8 48.2161 344.728 48.5761 344.728 48.9601V54.0001H343.288V48.7801C343.288 47.9281 343.084 47.2801 342.676 46.8361C342.28 46.3921 341.764 46.1701 341.128 46.1701C340.768 46.1701 340.426 46.2481 340.102 46.4041C339.778 46.5481 339.49 46.7461 339.238 46.9981C338.986 47.2501 338.788 47.5441 338.644 47.8801C338.5 48.2161 338.428 48.5761 338.428 48.9601V54.0001H336.988V45.0001ZM356.789 54.1801C356.141 54.1801 355.535 54.0661 354.971 53.8381C354.407 53.5981 353.921 53.2741 353.513 52.8661C353.105 52.4461 352.781 51.9481 352.541 51.3721C352.313 50.7961 352.199 50.1721 352.199 49.5001C352.199 48.8281 352.313 48.2041 352.541 47.6281C352.781 47.0521 353.105 46.5601 353.513 46.1521C353.921 45.7321 354.407 45.4081 354.971 45.1801C355.535 44.9401 356.141 44.8201 356.789 44.8201C357.437 44.8201 358.043 44.9401 358.607 45.1801C359.171 45.4081 359.657 45.7261 360.065 46.1341C360.473 46.5421 360.791 47.0281 361.019 47.5921C361.259 48.1561 361.379 48.7621 361.379 49.4101V49.9501H353.639C353.687 50.3701 353.801 50.7601 353.981 51.1201C354.161 51.4681 354.389 51.7681 354.665 52.0201C354.941 52.2721 355.259 52.4701 355.619 52.6141C355.991 52.7581 356.381 52.8301 356.789 52.8301C357.329 52.8301 357.785 52.7461 358.157 52.5781C358.529 52.4101 358.835 52.2241 359.075 52.0201C359.351 51.7921 359.579 51.5221 359.759 51.2101H361.199C360.983 51.7741 360.677 52.2721 360.281 52.7041C359.933 53.0761 359.477 53.4181 358.913 53.7301C358.349 54.0301 357.641 54.1801 356.789 54.1801ZM359.849 48.6901C359.801 48.3541 359.693 48.0361 359.525 47.7361C359.369 47.4241 359.159 47.1541 358.895 46.9261C358.631 46.6981 358.319 46.5181 357.959 46.3861C357.611 46.2421 357.221 46.1701 356.789 46.1701C356.357 46.1701 355.961 46.2421 355.601 46.3861C355.253 46.5181 354.941 46.6981 354.665 46.9261C354.401 47.1541 354.185 47.4241 354.017 47.7361C353.849 48.0361 353.735 48.3541 353.675 48.6901H359.849ZM362.636 45.0001H364.076V46.3501H364.094C364.274 46.0621 364.508 45.8101 364.796 45.5941C365.036 45.4021 365.348 45.2281 365.732 45.0721C366.128 44.9041 366.596 44.8201 367.136 44.8201C367.676 44.8201 368.168 44.9101 368.612 45.0901C369.056 45.2581 369.434 45.5101 369.746 45.8461C370.058 46.1821 370.298 46.5901 370.466 47.0701C370.646 47.5381 370.736 48.0781 370.736 48.6901V54.0001H369.296V48.7801C369.296 47.8801 369.068 47.2201 368.612 46.8001C368.168 46.3801 367.586 46.1701 366.866 46.1701C366.458 46.1701 366.08 46.2421 365.732 46.3861C365.396 46.5181 365.102 46.7161 364.85 46.9801C364.61 47.2441 364.418 47.5621 364.274 47.9341C364.142 48.2941 364.076 48.6961 364.076 49.1401V54.0001H362.636V45.0001ZM372.806 46.3501H371.636V45.0001H372.806V43.0201H374.246V45.0001H377.126V46.3501H374.246V52.6501H377.216V54.0001H372.806V46.3501ZM381.81 54.1801C381.366 54.1801 380.97 54.1381 380.622 54.0541C380.274 53.9701 379.962 53.8621 379.686 53.7301C379.41 53.5861 379.164 53.4241 378.948 53.2441C378.744 53.0641 378.57 52.8841 378.426 52.7041C378.078 52.2721 377.826 51.7741 377.67 51.2101H379.2C379.32 51.5221 379.494 51.7921 379.722 52.0201C379.926 52.2241 380.19 52.4101 380.514 52.5781C380.85 52.7461 381.282 52.8301 381.81 52.8301C382.626 52.8301 383.202 52.6981 383.538 52.4341C383.886 52.1581 384.06 51.8401 384.06 51.4801C384.06 51.1681 383.91 50.9281 383.61 50.7601C383.322 50.5921 382.956 50.4481 382.512 50.3281C382.08 50.2081 381.606 50.0941 381.09 49.9861C380.574 49.8781 380.094 49.7221 379.65 49.5181C379.218 49.3141 378.852 49.0441 378.552 48.7081C378.264 48.3721 378.12 47.9161 378.12 47.3401C378.12 47.0041 378.192 46.6861 378.336 46.3861C378.48 46.0741 378.696 45.8041 378.984 45.5761C379.272 45.3481 379.626 45.1681 380.046 45.0361C380.478 44.8921 380.976 44.8201 381.54 44.8201C381.96 44.8201 382.332 44.8621 382.656 44.9461C382.992 45.0181 383.286 45.1201 383.538 45.2521C383.802 45.3721 384.03 45.5161 384.222 45.6841C384.414 45.8401 384.582 46.0021 384.726 46.1701C385.038 46.5661 385.266 47.0161 385.41 47.5201H383.88C383.772 47.2801 383.616 47.0581 383.412 46.8541C383.244 46.6861 383.004 46.5301 382.692 46.3861C382.392 46.2421 382.008 46.1701 381.54 46.1701C381.204 46.1701 380.91 46.2061 380.658 46.2781C380.406 46.3501 380.196 46.4461 380.028 46.5661C379.872 46.6741 379.752 46.8001 379.668 46.9441C379.596 47.0761 379.56 47.2081 379.56 47.3401C379.56 47.6521 379.704 47.8921 379.992 48.0601C380.292 48.2281 380.658 48.3721 381.09 48.4921C381.534 48.6121 382.014 48.7261 382.53 48.8341C383.046 48.9421 383.52 49.0981 383.952 49.3021C384.396 49.5061 384.762 49.7821 385.05 50.1301C385.35 50.4661 385.5 50.9161 385.5 51.4801C385.5 51.8401 385.422 52.1821 385.266 52.5061C385.11 52.8301 384.876 53.1181 384.564 53.3701C384.252 53.6221 383.868 53.8201 383.412 53.9641C382.956 54.1081 382.422 54.1801 381.81 54.1801ZM395.22 54.1801C394.548 54.1801 393.924 54.0661 393.348 53.8381C392.772 53.5981 392.274 53.2741 391.854 52.8661C391.446 52.4461 391.122 51.9481 390.882 51.3721C390.654 50.7961 390.54 50.1721 390.54 49.5001C390.54 48.8281 390.654 48.2041 390.882 47.6281C391.122 47.0521 391.446 46.5601 391.854 46.1521C392.274 45.7321 392.772 45.4081 393.348 45.1801C393.924 44.9401 394.548 44.8201 395.22 44.8201C395.892 44.8201 396.516 44.9401 397.092 45.1801C397.668 45.4081 398.16 45.7321 398.568 46.1521C398.988 46.5601 399.312 47.0521 399.54 47.6281C399.78 48.2041 399.9 48.8281 399.9 49.5001C399.9 50.1721 399.78 50.7961 399.54 51.3721C399.312 51.9481 398.988 52.4461 398.568 52.8661C398.16 53.2741 397.668 53.5981 397.092 53.8381C396.516 54.0661 395.892 54.1801 395.22 54.1801ZM395.22 52.8301C395.688 52.8301 396.12 52.7521 396.516 52.5961C396.912 52.4281 397.254 52.2001 397.542 51.9121C397.83 51.6121 398.052 51.2581 398.208 50.8501C398.376 50.4421 398.46 49.9921 398.46 49.5001C398.46 49.0081 398.376 48.5581 398.208 48.1501C398.052 47.7421 397.83 47.3941 397.542 47.1061C397.254 46.8061 396.912 46.5781 396.516 46.4221C396.12 46.2541 395.688 46.1701 395.22 46.1701C394.752 46.1701 394.32 46.2541 393.924 46.4221C393.528 46.5781 393.186 46.8061 392.898 47.1061C392.61 47.3941 392.382 47.7421 392.214 48.1501C392.058 48.5581 391.98 49.0081 391.98 49.5001C391.98 49.9921 392.058 50.4421 392.214 50.8501C392.382 51.2581 392.61 51.6121 392.898 51.9121C393.186 52.2001 393.528 52.4281 393.924 52.5961C394.32 52.7521 394.752 52.8301 395.22 52.8301ZM401.153 45.0001H402.593V46.3501H402.611C402.791 46.0621 403.025 45.8101 403.313 45.5941C403.553 45.4021 403.865 45.2281 404.249 45.0721C404.645 44.9041 405.113 44.8201 405.653 44.8201C406.193 44.8201 406.685 44.9101 407.129 45.0901C407.573 45.2581 407.951 45.5101 408.263 45.8461C408.575 46.1821 408.815 46.5901 408.983 47.0701C409.163 47.5381 409.253 48.0781 409.253 48.6901V54.0001H407.813V48.7801C407.813 47.8801 407.585 47.2201 407.129 46.8001C406.685 46.3801 406.103 46.1701 405.383 46.1701C404.975 46.1701 404.597 46.2421 404.249 46.3861C403.913 46.5181 403.619 46.7161 403.367 46.9801C403.127 47.2441 402.935 47.5621 402.791 47.9341C402.659 48.2941 402.593 48.6961 402.593 49.1401V54.0001H401.153V45.0001ZM418.798 54.1801C418.354 54.1801 417.958 54.1381 417.61 54.0541C417.262 53.9701 416.95 53.8621 416.674 53.7301C416.398 53.5861 416.152 53.4241 415.936 53.2441C415.732 53.0641 415.558 52.8841 415.414 52.7041C415.066 52.2721 414.814 51.7741 414.658 51.2101H416.188C416.308 51.5221 416.482 51.7921 416.71 52.0201C416.914 52.2241 417.178 52.4101 417.502 52.5781C417.838 52.7461 418.27 52.8301 418.798 52.8301C419.614 52.8301 420.19 52.6981 420.526 52.4341C420.874 52.1581 421.048 51.8401 421.048 51.4801C421.048 51.1681 420.898 50.9281 420.598 50.7601C420.31 50.5921 419.944 50.4481 419.5 50.3281C419.068 50.2081 418.594 50.0941 418.078 49.9861C417.562 49.8781 417.082 49.7221 416.638 49.5181C416.206 49.3141 415.84 49.0441 415.54 48.7081C415.252 48.3721 415.108 47.9161 415.108 47.3401C415.108 47.0041 415.18 46.6861 415.324 46.3861C415.468 46.0741 415.684 45.8041 415.972 45.5761C416.26 45.3481 416.614 45.1681 417.034 45.0361C417.466 44.8921 417.964 44.8201 418.528 44.8201C418.948 44.8201 419.32 44.8621 419.644 44.9461C419.98 45.0181 420.274 45.1201 420.526 45.2521C420.79 45.3721 421.018 45.5161 421.21 45.6841C421.402 45.8401 421.57 46.0021 421.714 46.1701C422.026 46.5661 422.254 47.0161 422.398 47.5201H420.868C420.76 47.2801 420.604 47.0581 420.4 46.8541C420.232 46.6861 419.992 46.5301 419.68 46.3861C419.38 46.2421 418.996 46.1701 418.528 46.1701C418.192 46.1701 417.898 46.2061 417.646 46.2781C417.394 46.3501 417.184 46.4461 417.016 46.5661C416.86 46.6741 416.74 46.8001 416.656 46.9441C416.584 47.0761 416.548 47.2081 416.548 47.3401C416.548 47.6521 416.692 47.8921 416.98 48.0601C417.28 48.2281 417.646 48.3721 418.078 48.4921C418.522 48.6121 419.002 48.7261 419.518 48.8341C420.034 48.9421 420.508 49.0981 420.94 49.3021C421.384 49.5061 421.75 49.7821 422.038 50.1301C422.338 50.4661 422.488 50.9161 422.488 51.4801C422.488 51.8401 422.41 52.1821 422.254 52.5061C422.098 52.8301 421.864 53.1181 421.552 53.3701C421.24 53.6221 420.856 53.8201 420.4 53.9641C419.944 54.1081 419.41 54.1801 418.798 54.1801ZM423.743 45.0001H425.183V46.3501H425.201C425.369 46.0621 425.591 45.8101 425.867 45.5941C426.107 45.4021 426.413 45.2281 426.785 45.0721C427.157 44.9041 427.613 44.8201 428.153 44.8201C428.693 44.8201 429.143 44.9161 429.503 45.1081C429.875 45.2881 430.175 45.4921 430.403 45.7201C430.667 45.9841 430.877 46.2841 431.033 46.6201H431.123C431.315 46.2841 431.567 45.9841 431.879 45.7201C432.143 45.4921 432.485 45.2881 432.905 45.1081C433.325 44.9161 433.841 44.8201 434.453 44.8201C434.921 44.8201 435.359 44.9101 435.767 45.0901C436.175 45.2581 436.529 45.5101 436.829 45.8461C437.129 46.1821 437.363 46.5901 437.531 47.0701C437.699 47.5381 437.783 48.0781 437.783 48.6901V54.0001H436.343V48.7801C436.343 47.9161 436.139 47.2681 435.731 46.8361C435.335 46.3921 434.819 46.1701 434.183 46.1701C433.823 46.1701 433.481 46.2481 433.157 46.4041C432.833 46.5481 432.545 46.7461 432.293 46.9981C432.041 47.2501 431.843 47.5441 431.699 47.8801C431.555 48.2161 431.483 48.5761 431.483 48.9601V54.0001H430.043V48.7801C430.043 47.9281 429.839 47.2801 429.431 46.8361C429.035 46.3921 428.519 46.1701 427.883 46.1701C427.523 46.1701 427.181 46.2481 426.857 46.4041C426.533 46.5481 426.245 46.7461 425.993 46.9981C425.741 47.2501 425.543 47.5441 425.399 47.8801C425.255 48.2161 425.183 48.5761 425.183 48.9601V54.0001H423.743V45.0001ZM443.274 54.1801C442.686 54.1801 442.128 54.0661 441.6 53.8381C441.084 53.5981 440.628 53.2741 440.232 52.8661C439.836 52.4461 439.524 51.9481 439.296 51.3721C439.068 50.7961 438.954 50.1721 438.954 49.5001C438.954 48.8281 439.068 48.2041 439.296 47.6281C439.524 47.0521 439.836 46.5601 440.232 46.1521C440.628 45.7321 441.084 45.4081 441.6 45.1801C442.128 44.9401 442.686 44.8201 443.274 44.8201C443.862 44.8201 444.36 44.9041 444.768 45.0721C445.176 45.2401 445.506 45.4261 445.758 45.6301C446.022 45.8341 446.208 46.0261 446.316 46.2061C446.436 46.3741 446.496 46.4581 446.496 46.4581H446.514V45.0001H447.954V54.0001H446.514V52.5601H446.496C446.496 52.5601 446.436 52.6501 446.316 52.8301C446.208 52.9981 446.022 53.1841 445.758 53.3881C445.506 53.5801 445.176 53.7601 444.768 53.9281C444.36 54.0961 443.862 54.1801 443.274 54.1801ZM443.454 52.8301C443.886 52.8301 444.288 52.7521 444.66 52.5961C445.032 52.4281 445.356 52.2001 445.632 51.9121C445.908 51.6121 446.124 51.2581 446.28 50.8501C446.436 50.4421 446.514 49.9921 446.514 49.5001C446.514 49.0081 446.436 48.5581 446.28 48.1501C446.124 47.7421 445.908 47.3941 445.632 47.1061C445.356 46.8061 445.032 46.5781 444.66 46.4221C444.288 46.2541 443.886 46.1701 443.454 46.1701C443.022 46.1701 442.62 46.2541 442.248 46.4221C441.876 46.5781 441.552 46.8061 441.276 47.1061C441 47.3941 440.784 47.7421 440.628 48.1501C440.472 48.5581 440.394 49.0081 440.394 49.5001C440.394 49.9921 440.472 50.4421 440.628 50.8501C440.784 51.2581 441 51.6121 441.276 51.9121C441.552 52.2001 441.876 52.4281 442.248 52.5961C442.62 52.7521 443.022 52.8301 443.454 52.8301ZM449.76 45.0001H451.2V46.4401H451.218C451.374 46.1521 451.578 45.9001 451.83 45.6841C452.046 45.4921 452.328 45.3181 452.676 45.1621C453.024 44.9941 453.462 44.9101 453.99 44.9101H455.07V46.3501H453.99C453.582 46.3501 453.204 46.4221 452.856 46.5661C452.52 46.6981 452.226 46.8901 451.974 47.1421C451.734 47.3821 451.542 47.6761 451.398 48.0241C451.266 48.3601 451.2 48.7321 451.2 49.1401V54.0001H449.76V45.0001ZM456.238 46.3501H455.068V45.0001H456.238V43.0201H457.678V45.0001H460.558V46.3501H457.678V52.6501H460.648V54.0001H456.238V46.3501ZM461.733 45.0001H463.173V46.4401H463.191C463.191 46.4401 463.245 46.3561 463.353 46.1881C463.473 46.0081 463.659 45.8221 463.911 45.6301C464.175 45.4261 464.511 45.2401 464.919 45.0721C465.327 44.9041 465.825 44.8201 466.413 44.8201C467.001 44.8201 467.553 44.9401 468.069 45.1801C468.597 45.4081 469.059 45.7321 469.455 46.1521C469.851 46.5601 470.163 47.0521 470.391 47.6281C470.619 48.2041 470.733 48.8281 470.733 49.5001C470.733 50.1721 470.619 50.7961 470.391 51.3721C470.163 51.9481 469.851 52.4461 469.455 52.8661C469.059 53.2741 468.597 53.5981 468.069 53.8381C467.553 54.0661 467.001 54.1801 466.413 54.1801C465.825 54.1801 465.327 54.0961 464.919 53.9281C464.511 53.7601 464.175 53.5801 463.911 53.3881C463.659 53.1841 463.473 52.9981 463.353 52.8301C463.245 52.6501 463.191 52.5601 463.191 52.5601H463.173V57.4201H461.733V45.0001ZM466.233 52.8301C466.665 52.8301 467.067 52.7521 467.439 52.5961C467.811 52.4281 468.135 52.2001 468.411 51.9121C468.687 51.6121 468.903 51.2581 469.059 50.8501C469.215 50.4421 469.293 49.9921 469.293 49.5001C469.293 49.0081 469.215 48.5581 469.059 48.1501C468.903 47.7421 468.687 47.3941 468.411 47.1061C468.135 46.8061 467.811 46.5781 467.439 46.4221C467.067 46.2541 466.665 46.1701 466.233 46.1701C465.801 46.1701 465.399 46.2541 465.027 46.4221C464.655 46.5781 464.331 46.8061 464.055 47.1061C463.779 47.3941 463.563 47.7421 463.407 48.1501C463.251 48.5581 463.173 49.0081 463.173 49.5001C463.173 49.9921 463.251 50.4421 463.407 50.8501C463.563 51.2581 463.779 51.6121 464.055 51.9121C464.331 52.2001 464.655 52.4281 465.027 52.5961C465.399 52.7521 465.801 52.8301 466.233 52.8301ZM471.999 41.4001H473.439V46.3501H473.457C473.637 46.0621 473.871 45.8101 474.159 45.5941C474.399 45.4021 474.711 45.2281 475.095 45.0721C475.491 44.9041 475.959 44.8201 476.499 44.8201C477.039 44.8201 477.531 44.9101 477.975 45.0901C478.419 45.2581 478.797 45.5101 479.109 45.8461C479.421 46.1821 479.661 46.5901 479.829 47.0701C480.009 47.5381 480.099 48.0781 480.099 48.6901V54.0001H478.659V48.7801C478.659 47.8801 478.431 47.2201 477.975 46.8001C477.531 46.3801 476.949 46.1701 476.229 46.1701C475.821 46.1701 475.443 46.2421 475.095 46.3861C474.759 46.5181 474.465 46.7161 474.213 46.9801C473.973 47.2441 473.781 47.5621 473.637 47.9341C473.505 48.2941 473.439 48.6961 473.439 49.1401V54.0001H471.999V41.4001ZM485.86 54.1801C485.188 54.1801 484.564 54.0661 483.988 53.8381C483.412 53.5981 482.914 53.2741 482.494 52.8661C482.086 52.4461 481.762 51.9481 481.522 51.3721C481.294 50.7961 481.18 50.1721 481.18 49.5001C481.18 48.8281 481.294 48.2041 481.522 47.6281C481.762 47.0521 482.086 46.5601 482.494 46.1521C482.914 45.7321 483.412 45.4081 483.988 45.1801C484.564 44.9401 485.188 44.8201 485.86 44.8201C486.532 44.8201 487.156 44.9401 487.732 45.1801C488.308 45.4081 488.8 45.7321 489.208 46.1521C489.628 46.5601 489.952 47.0521 490.18 47.6281C490.42 48.2041 490.54 48.8281 490.54 49.5001C490.54 50.1721 490.42 50.7961 490.18 51.3721C489.952 51.9481 489.628 52.4461 489.208 52.8661C488.8 53.2741 488.308 53.5981 487.732 53.8381C487.156 54.0661 486.532 54.1801 485.86 54.1801ZM485.86 52.8301C486.328 52.8301 486.76 52.7521 487.156 52.5961C487.552 52.4281 487.894 52.2001 488.182 51.9121C488.47 51.6121 488.692 51.2581 488.848 50.8501C489.016 50.4421 489.1 49.9921 489.1 49.5001C489.1 49.0081 489.016 48.5581 488.848 48.1501C488.692 47.7421 488.47 47.3941 488.182 47.1061C487.894 46.8061 487.552 46.5781 487.156 46.4221C486.76 46.2541 486.328 46.1701 485.86 46.1701C485.392 46.1701 484.96 46.2541 484.564 46.4221C484.168 46.5781 483.826 46.8061 483.538 47.1061C483.25 47.3941 483.022 47.7421 482.854 48.1501C482.698 48.5581 482.62 49.0081 482.62 49.5001C482.62 49.9921 482.698 50.4421 482.854 50.8501C483.022 51.2581 483.25 51.6121 483.538 51.9121C483.826 52.2001 484.168 52.4281 484.564 52.5961C484.96 52.7521 485.392 52.8301 485.86 52.8301ZM491.793 45.0001H493.233V46.3501H493.251C493.431 46.0621 493.665 45.8101 493.953 45.5941C494.193 45.4021 494.505 45.2281 494.889 45.0721C495.285 44.9041 495.753 44.8201 496.293 44.8201C496.833 44.8201 497.325 44.9101 497.769 45.0901C498.213 45.2581 498.591 45.5101 498.903 45.8461C499.215 46.1821 499.455 46.5901 499.623 47.0701C499.803 47.5381 499.893 48.0781 499.893 48.6901V54.0001H498.453V48.7801C498.453 47.8801 498.225 47.2201 497.769 46.8001C497.325 46.3801 496.743 46.1701 496.023 46.1701C495.615 46.1701 495.237 46.2421 494.889 46.3861C494.553 46.5181 494.259 46.7161 494.007 46.9801C493.767 47.2441 493.575 47.5621 493.431 47.9341C493.299 48.2941 493.233 48.6961 493.233 49.1401V54.0001H491.793V45.0001ZM505.653 54.1801C505.005 54.1801 504.399 54.0661 503.835 53.8381C503.271 53.5981 502.785 53.2741 502.377 52.8661C501.969 52.4461 501.645 51.9481 501.405 51.3721C501.177 50.7961 501.063 50.1721 501.063 49.5001C501.063 48.8281 501.177 48.2041 501.405 47.6281C501.645 47.0521 501.969 46.5601 502.377 46.1521C502.785 45.7321 503.271 45.4081 503.835 45.1801C504.399 44.9401 505.005 44.8201 505.653 44.8201C506.301 44.8201 506.907 44.9401 507.471 45.1801C508.035 45.4081 508.521 45.7261 508.929 46.1341C509.337 46.5421 509.655 47.0281 509.883 47.5921C510.123 48.1561 510.243 48.7621 510.243 49.4101V49.9501H502.503C502.551 50.3701 502.665 50.7601 502.845 51.1201C503.025 51.4681 503.253 51.7681 503.529 52.0201C503.805 52.2721 504.123 52.4701 504.483 52.6141C504.855 52.7581 505.245 52.8301 505.653 52.8301C506.193 52.8301 506.649 52.7461 507.021 52.5781C507.393 52.4101 507.699 52.2241 507.939 52.0201C508.215 51.7921 508.443 51.5221 508.623 51.2101H510.063C509.847 51.7741 509.541 52.2721 509.145 52.7041C508.797 53.0761 508.341 53.4181 507.777 53.7301C507.213 54.0301 506.505 54.1801 505.653 54.1801ZM508.713 48.6901C508.665 48.3541 508.557 48.0361 508.389 47.7361C508.233 47.4241 508.023 47.1541 507.759 46.9261C507.495 46.6981 507.183 46.5181 506.823 46.3861C506.475 46.2421 506.085 46.1701 505.653 46.1701C505.221 46.1701 504.825 46.2421 504.465 46.3861C504.117 46.5181 503.805 46.6981 503.529 46.9261C503.265 47.1541 503.049 47.4241 502.881 47.7361C502.713 48.0361 502.599 48.3541 502.539 48.6901H508.713ZM515.01 54.1801C514.566 54.1801 514.17 54.1381 513.822 54.0541C513.474 53.9701 513.162 53.8621 512.886 53.7301C512.61 53.5861 512.364 53.4241 512.148 53.2441C511.944 53.0641 511.77 52.8841 511.626 52.7041C511.278 52.2721 511.026 51.7741 510.87 51.2101H512.4C512.52 51.5221 512.694 51.7921 512.922 52.0201C513.126 52.2241 513.39 52.4101 513.714 52.5781C514.05 52.7461 514.482 52.8301 515.01 52.8301C515.826 52.8301 516.402 52.6981 516.738 52.4341C517.086 52.1581 517.26 51.8401 517.26 51.4801C517.26 51.1681 517.11 50.9281 516.81 50.7601C516.522 50.5921 516.156 50.4481 515.712 50.3281C515.28 50.2081 514.806 50.0941 514.29 49.9861C513.774 49.8781 513.294 49.7221 512.85 49.5181C512.418 49.3141 512.052 49.0441 511.752 48.7081C511.464 48.3721 511.32 47.9161 511.32 47.3401C511.32 47.0041 511.392 46.6861 511.536 46.3861C511.68 46.0741 511.896 45.8041 512.184 45.5761C512.472 45.3481 512.826 45.1681 513.246 45.0361C513.678 44.8921 514.176 44.8201 514.74 44.8201C515.16 44.8201 515.532 44.8621 515.856 44.9461C516.192 45.0181 516.486 45.1201 516.738 45.2521C517.002 45.3721 517.23 45.5161 517.422 45.6841C517.614 45.8401 517.782 46.0021 517.926 46.1701C518.238 46.5661 518.466 47.0161 518.61 47.5201H517.08C516.972 47.2801 516.816 47.0581 516.612 46.8541C516.444 46.6861 516.204 46.5301 515.892 46.3861C515.592 46.2421 515.208 46.1701 514.74 46.1701C514.404 46.1701 514.11 46.2061 513.858 46.2781C513.606 46.3501 513.396 46.4461 513.228 46.5661C513.072 46.6741 512.952 46.8001 512.868 46.9441C512.796 47.0761 512.76 47.2081 512.76 47.3401C512.76 47.6521 512.904 47.8921 513.192 48.0601C513.492 48.2281 513.858 48.3721 514.29 48.4921C514.734 48.6121 515.214 48.7261 515.73 48.8341C516.246 48.9421 516.72 49.0981 517.152 49.3021C517.596 49.5061 517.962 49.7821 518.25 50.1301C518.55 50.4661 518.7 50.9161 518.7 51.4801C518.7 51.8401 518.622 52.1821 518.466 52.5061C518.31 52.8301 518.076 53.1181 517.764 53.3701C517.452 53.6221 517.068 53.8201 516.612 53.9641C516.156 54.1081 515.622 54.1801 515.01 54.1801ZM519.596 55.5301C520.316 55.4461 520.676 55.0561 520.676 54.3601V54.0901C520.652 54.1141 520.616 54.1321 520.568 54.1441C520.472 54.1681 520.388 54.1801 520.316 54.1801C520.088 54.1801 519.896 54.0961 519.74 53.9281C519.584 53.7601 519.506 53.5321 519.506 53.2441C519.506 52.8961 519.608 52.6201 519.812 52.4161C520.016 52.2121 520.274 52.1101 520.586 52.1101C520.898 52.1101 521.156 52.2361 521.36 52.4881C521.564 52.7281 521.666 53.1421 521.666 53.7301C521.666 54.5461 521.48 55.1581 521.108 55.5661C520.736 55.9741 520.232 56.2021 519.596 56.2501V55.5301ZM527.7 46.3501H526.53V45.0001H527.7V43.0201H529.14V45.0001H532.02V46.3501H529.14V52.6501H532.11V54.0001H527.7V46.3501ZM536.974 54.1801C536.386 54.1801 535.828 54.0661 535.3 53.8381C534.784 53.5981 534.328 53.2741 533.932 52.8661C533.536 52.4461 533.224 51.9481 532.996 51.3721C532.768 50.7961 532.654 50.1721 532.654 49.5001C532.654 48.8281 532.768 48.2041 532.996 47.6281C533.224 47.0521 533.536 46.5601 533.932 46.1521C534.328 45.7321 534.784 45.4081 535.3 45.1801C535.828 44.9401 536.386 44.8201 536.974 44.8201C537.562 44.8201 538.06 44.9041 538.468 45.0721C538.876 45.2401 539.206 45.4261 539.458 45.6301C539.722 45.8341 539.908 46.0261 540.016 46.2061C540.136 46.3741 540.196 46.4581 540.196 46.4581H540.214V45.0001H541.654V54.0001H540.214V52.5601H540.196C540.196 52.5601 540.136 52.6501 540.016 52.8301C539.908 52.9981 539.722 53.1841 539.458 53.3881C539.206 53.5801 538.876 53.7601 538.468 53.9281C538.06 54.0961 537.562 54.1801 536.974 54.1801ZM537.154 52.8301C537.586 52.8301 537.988 52.7521 538.36 52.5961C538.732 52.4281 539.056 52.2001 539.332 51.9121C539.608 51.6121 539.824 51.2581 539.98 50.8501C540.136 50.4421 540.214 49.9921 540.214 49.5001C540.214 49.0081 540.136 48.5581 539.98 48.1501C539.824 47.7421 539.608 47.3941 539.332 47.1061C539.056 46.8061 538.732 46.5781 538.36 46.4221C537.988 46.2541 537.586 46.1701 537.154 46.1701C536.722 46.1701 536.32 46.2541 535.948 46.4221C535.576 46.5781 535.252 46.8061 534.976 47.1061C534.7 47.3941 534.484 47.7421 534.328 48.1501C534.172 48.5581 534.094 49.0081 534.094 49.5001C534.094 49.9921 534.172 50.4421 534.328 50.8501C534.484 51.2581 534.7 51.6121 534.976 51.9121C535.252 52.2001 535.576 52.4281 535.948 52.5961C536.32 52.7521 536.722 52.8301 537.154 52.8301ZM548.14 54.1801C547.552 54.1801 547.054 54.0961 546.646 53.9281C546.238 53.7601 545.902 53.5801 545.638 53.3881C545.386 53.1841 545.2 52.9981 545.08 52.8301C544.972 52.6501 544.918 52.5601 544.918 52.5601H544.9V54.0001H543.46V41.4001H544.9V46.4401H544.918C544.918 46.4401 544.972 46.3561 545.08 46.1881C545.2 46.0081 545.386 45.8221 545.638 45.6301C545.902 45.4261 546.238 45.2401 546.646 45.0721C547.054 44.9041 547.552 44.8201 548.14 44.8201C548.728 44.8201 549.28 44.9401 549.796 45.1801C550.324 45.4081 550.786 45.7321 551.182 46.1521C551.578 46.5601 551.89 47.0521 552.118 47.6281C552.346 48.2041 552.46 48.8281 552.46 49.5001C552.46 50.1721 552.346 50.7961 552.118 51.3721C551.89 51.9481 551.578 52.4461 551.182 52.8661C550.786 53.2741 550.324 53.5981 549.796 53.8381C549.28 54.0661 548.728 54.1801 548.14 54.1801ZM547.96 52.8301C548.392 52.8301 548.794 52.7521 549.166 52.5961C549.538 52.4281 549.862 52.2001 550.138 51.9121C550.414 51.6121 550.63 51.2581 550.786 50.8501C550.942 50.4421 551.02 49.9921 551.02 49.5001C551.02 49.0081 550.942 48.5581 550.786 48.1501C550.63 47.7421 550.414 47.3941 550.138 47.1061C549.862 46.8061 549.538 46.5781 549.166 46.4221C548.794 46.2541 548.392 46.1701 547.96 46.1701C547.528 46.1701 547.126 46.2541 546.754 46.4221C546.382 46.5781 546.058 46.8061 545.782 47.1061C545.506 47.3941 545.29 47.7421 545.134 48.1501C544.978 48.5581 544.9 49.0081 544.9 49.5001C544.9 49.9921 544.978 50.4421 545.134 50.8501C545.29 51.2581 545.506 51.6121 545.782 51.9121C546.058 52.2001 546.382 52.4281 546.754 52.5961C547.126 52.7521 547.528 52.8301 547.96 52.8301ZM553.727 41.4001H555.167V52.6501H557.237V54.0001H553.727V41.4001ZM562.014 54.1801C561.366 54.1801 560.76 54.0661 560.196 53.8381C559.632 53.5981 559.146 53.2741 558.738 52.8661C558.33 52.4461 558.006 51.9481 557.766 51.3721C557.538 50.7961 557.424 50.1721 557.424 49.5001C557.424 48.8281 557.538 48.2041 557.766 47.6281C558.006 47.0521 558.33 46.5601 558.738 46.1521C559.146 45.7321 559.632 45.4081 560.196 45.1801C560.76 44.9401 561.366 44.8201 562.014 44.8201C562.662 44.8201 563.268 44.9401 563.832 45.1801C564.396 45.4081 564.882 45.7261 565.29 46.1341C565.698 46.5421 566.016 47.0281 566.244 47.5921C566.484 48.1561 566.604 48.7621 566.604 49.4101V49.9501H558.864C558.912 50.3701 559.026 50.7601 559.206 51.1201C559.386 51.4681 559.614 51.7681 559.89 52.0201C560.166 52.2721 560.484 52.4701 560.844 52.6141C561.216 52.7581 561.606 52.8301 562.014 52.8301C562.554 52.8301 563.01 52.7461 563.382 52.5781C563.754 52.4101 564.06 52.2241 564.3 52.0201C564.576 51.7921 564.804 51.5221 564.984 51.2101H566.424C566.208 51.7741 565.902 52.2721 565.506 52.7041C565.158 53.0761 564.702 53.4181 564.138 53.7301C563.574 54.0301 562.866 54.1801 562.014 54.1801ZM565.074 48.6901C565.026 48.3541 564.918 48.0361 564.75 47.7361C564.594 47.4241 564.384 47.1541 564.12 46.9261C563.856 46.6981 563.544 46.5181 563.184 46.3861C562.836 46.2421 562.446 46.1701 562.014 46.1701C561.582 46.1701 561.186 46.2421 560.826 46.3861C560.478 46.5181 560.166 46.6981 559.89 46.9261C559.626 47.1541 559.41 47.4241 559.242 47.7361C559.074 48.0361 558.96 48.3541 558.9 48.6901H565.074ZM568.221 46.3501H567.051V45.0001H568.221V43.0201H569.661V45.0001H572.541V46.3501H569.661V52.6501H572.631V54.0001H568.221V46.3501ZM577.225 54.1801C576.781 54.1801 576.385 54.1381 576.037 54.0541C575.689 53.9701 575.377 53.8621 575.101 53.7301C574.825 53.5861 574.579 53.4241 574.363 53.2441C574.159 53.0641 573.985 52.8841 573.841 52.7041C573.493 52.2721 573.241 51.7741 573.085 51.2101H574.615C574.735 51.5221 574.909 51.7921 575.137 52.0201C575.341 52.2241 575.605 52.4101 575.929 52.5781C576.265 52.7461 576.697 52.8301 577.225 52.8301C578.041 52.8301 578.617 52.6981 578.953 52.4341C579.301 52.1581 579.475 51.8401 579.475 51.4801C579.475 51.1681 579.325 50.9281 579.025 50.7601C578.737 50.5921 578.371 50.4481 577.927 50.3281C577.495 50.2081 577.021 50.0941 576.505 49.9861C575.989 49.8781 575.509 49.7221 575.065 49.5181C574.633 49.3141 574.267 49.0441 573.967 48.7081C573.679 48.3721 573.535 47.9161 573.535 47.3401C573.535 47.0041 573.607 46.6861 573.751 46.3861C573.895 46.0741 574.111 45.8041 574.399 45.5761C574.687 45.3481 575.041 45.1681 575.461 45.0361C575.893 44.8921 576.391 44.8201 576.955 44.8201C577.375 44.8201 577.747 44.8621 578.071 44.9461C578.407 45.0181 578.701 45.1201 578.953 45.2521C579.217 45.3721 579.445 45.5161 579.637 45.6841C579.829 45.8401 579.997 46.0021 580.141 46.1701C580.453 46.5661 580.681 47.0161 580.825 47.5201H579.295C579.187 47.2801 579.031 47.0581 578.827 46.8541C578.659 46.6861 578.419 46.5301 578.107 46.3861C577.807 46.2421 577.423 46.1701 576.955 46.1701C576.619 46.1701 576.325 46.2061 576.073 46.2781C575.821 46.3501 575.611 46.4461 575.443 46.5661C575.287 46.6741 575.167 46.8001 575.083 46.9441C575.011 47.0761 574.975 47.2081 574.975 47.3401C574.975 47.6521 575.119 47.8921 575.407 48.0601C575.707 48.2281 576.073 48.3721 576.505 48.4921C576.949 48.6121 577.429 48.7261 577.945 48.8341C578.461 48.9421 578.935 49.0981 579.367 49.3021C579.811 49.5061 580.177 49.7821 580.465 50.1301C580.765 50.4661 580.915 50.9161 580.915 51.4801C580.915 51.8401 580.837 52.1821 580.681 52.5061C580.525 52.8301 580.291 53.1181 579.979 53.3701C579.667 53.6221 579.283 53.8201 578.827 53.9641C578.371 54.1081 577.837 54.1801 577.225 54.1801ZM581.811 55.5301C582.531 55.4461 582.891 55.0561 582.891 54.3601V54.0901C582.867 54.1141 582.831 54.1321 582.783 54.1441C582.687 54.1681 582.603 54.1801 582.531 54.1801C582.303 54.1801 582.111 54.0961 581.955 53.9281C581.799 53.7601 581.721 53.5321 581.721 53.2441C581.721 52.8961 581.823 52.6201 582.027 52.4161C582.231 52.2121 582.489 52.1101 582.801 52.1101C583.113 52.1101 583.371 52.2361 583.575 52.4881C583.779 52.7281 583.881 53.1421 583.881 53.7301C583.881 54.5461 583.695 55.1581 583.323 55.5661C582.951 55.9741 582.447 56.2021 581.811 56.2501V55.5301ZM154.77 79.1801C154.326 79.1801 153.93 79.1381 153.582 79.0541C153.234 78.9701 152.922 78.8621 152.646 78.7301C152.37 78.5861 152.124 78.4241 151.908 78.2441C151.704 78.0641 151.53 77.8841 151.386 77.7041C151.038 77.2721 150.786 76.7741 150.63 76.2101H152.16C152.28 76.5221 152.454 76.7921 152.682 77.0201C152.886 77.2241 153.15 77.4101 153.474 77.5781C153.81 77.7461 154.242 77.8301 154.77 77.8301C155.586 77.8301 156.162 77.6981 156.498 77.4341C156.846 77.1581 157.02 76.8401 157.02 76.4801C157.02 76.1681 156.87 75.9281 156.57 75.7601C156.282 75.5921 155.916 75.4481 155.472 75.3281C155.04 75.2081 154.566 75.0941 154.05 74.9861C153.534 74.8781 153.054 74.7221 152.61 74.5181C152.178 74.3141 151.812 74.0441 151.512 73.7081C151.224 73.3721 151.08 72.9161 151.08 72.3401C151.08 72.0041 151.152 71.6861 151.296 71.3861C151.44 71.0741 151.656 70.8041 151.944 70.5761C152.232 70.3481 152.586 70.1681 153.006 70.0361C153.438 69.8921 153.936 69.8201 154.5 69.8201C154.92 69.8201 155.292 69.8621 155.616 69.9461C155.952 70.0181 156.246 70.1201 156.498 70.2521C156.762 70.3721 156.99 70.5161 157.182 70.6841C157.374 70.8401 157.542 71.0021 157.686 71.1701C157.998 71.5661 158.226 72.0161 158.37 72.5201H156.84C156.732 72.2801 156.576 72.0581 156.372 71.8541C156.204 71.6861 155.964 71.5301 155.652 71.3861C155.352 71.2421 154.968 71.1701 154.5 71.1701C154.164 71.1701 153.87 71.2061 153.618 71.2781C153.366 71.3501 153.156 71.4461 152.988 71.5661C152.832 71.6741 152.712 71.8001 152.628 71.9441C152.556 72.0761 152.52 72.2081 152.52 72.3401C152.52 72.6521 152.664 72.8921 152.952 73.0601C153.252 73.2281 153.618 73.3721 154.05 73.4921C154.494 73.6121 154.974 73.7261 155.49 73.8341C156.006 73.9421 156.48 74.0981 156.912 74.3021C157.356 74.5061 157.722 74.7821 158.01 75.1301C158.31 75.4661 158.46 75.9161 158.46 76.4801C158.46 76.8401 158.382 77.1821 158.226 77.5061C158.07 77.8301 157.836 78.1181 157.524 78.3701C157.212 78.6221 156.828 78.8201 156.372 78.9641C155.916 79.1081 155.382 79.1801 154.77 79.1801ZM159.716 70.0001H161.156V71.3501H161.174C161.342 71.0621 161.564 70.8101 161.84 70.5941C162.08 70.4021 162.386 70.2281 162.758 70.0721C163.13 69.9041 163.586 69.8201 164.126 69.8201C164.666 69.8201 165.116 69.9161 165.476 70.1081C165.848 70.2881 166.148 70.4921 166.376 70.7201C166.64 70.9841 166.85 71.2841 167.006 71.6201H167.096C167.288 71.2841 167.54 70.9841 167.852 70.7201C168.116 70.4921 168.458 70.2881 168.878 70.1081C169.298 69.9161 169.814 69.8201 170.426 69.8201C170.894 69.8201 171.332 69.9101 171.74 70.0901C172.148 70.2581 172.502 70.5101 172.802 70.8461C173.102 71.1821 173.336 71.5901 173.504 72.0701C173.672 72.5381 173.756 73.0781 173.756 73.6901V79.0001H172.316V73.7801C172.316 72.9161 172.112 72.2681 171.704 71.8361C171.308 71.3921 170.792 71.1701 170.156 71.1701C169.796 71.1701 169.454 71.2481 169.13 71.4041C168.806 71.5481 168.518 71.7461 168.266 71.9981C168.014 72.2501 167.816 72.5441 167.672 72.8801C167.528 73.2161 167.456 73.5761 167.456 73.9601V79.0001H166.016V73.7801C166.016 72.9281 165.812 72.2801 165.404 71.8361C165.008 71.3921 164.492 71.1701 163.856 71.1701C163.496 71.1701 163.154 71.2481 162.83 71.4041C162.506 71.5481 162.218 71.7461 161.966 71.9981C161.714 72.2501 161.516 72.5441 161.372 72.8801C161.228 73.2161 161.156 73.5761 161.156 73.9601V79.0001H159.716V70.0001ZM179.246 79.1801C178.658 79.1801 178.1 79.0661 177.572 78.8381C177.056 78.5981 176.6 78.2741 176.204 77.8661C175.808 77.4461 175.496 76.9481 175.268 76.3721C175.04 75.7961 174.926 75.1721 174.926 74.5001C174.926 73.8281 175.04 73.2041 175.268 72.6281C175.496 72.0521 175.808 71.5601 176.204 71.1521C176.6 70.7321 177.056 70.4081 177.572 70.1801C178.1 69.9401 178.658 69.8201 179.246 69.8201C179.834 69.8201 180.332 69.9041 180.74 70.0721C181.148 70.2401 181.478 70.4261 181.73 70.6301C181.994 70.8341 182.18 71.0261 182.288 71.2061C182.408 71.3741 182.468 71.4581 182.468 71.4581H182.486V70.0001H183.926V79.0001H182.486V77.5601H182.468C182.468 77.5601 182.408 77.6501 182.288 77.8301C182.18 77.9981 181.994 78.1841 181.73 78.3881C181.478 78.5801 181.148 78.7601 180.74 78.9281C180.332 79.0961 179.834 79.1801 179.246 79.1801ZM179.426 77.8301C179.858 77.8301 180.26 77.7521 180.632 77.5961C181.004 77.4281 181.328 77.2001 181.604 76.9121C181.88 76.6121 182.096 76.2581 182.252 75.8501C182.408 75.4421 182.486 74.9921 182.486 74.5001C182.486 74.0081 182.408 73.5581 182.252 73.1501C182.096 72.7421 181.88 72.3941 181.604 72.1061C181.328 71.8061 181.004 71.5781 180.632 71.4221C180.26 71.2541 179.858 71.1701 179.426 71.1701C178.994 71.1701 178.592 71.2541 178.22 71.4221C177.848 71.5781 177.524 71.8061 177.248 72.1061C176.972 72.3941 176.756 72.7421 176.6 73.1501C176.444 73.5581 176.366 74.0081 176.366 74.5001C176.366 74.9921 176.444 75.4421 176.6 75.8501C176.756 76.2581 176.972 76.6121 177.248 76.9121C177.524 77.2001 177.848 77.4281 178.22 77.5961C178.592 77.7521 178.994 77.8301 179.426 77.8301ZM185.733 70.0001H187.173V71.4401H187.191C187.347 71.1521 187.551 70.9001 187.803 70.6841C188.019 70.4921 188.301 70.3181 188.649 70.1621C188.997 69.9941 189.435 69.9101 189.963 69.9101H191.043V71.3501H189.963C189.555 71.3501 189.177 71.4221 188.829 71.5661C188.493 71.6981 188.199 71.8901 187.947 72.1421C187.707 72.3821 187.515 72.6761 187.371 73.0241C187.239 73.3601 187.173 73.7321 187.173 74.1401V79.0001H185.733V70.0001ZM192.211 71.3501H191.041V70.0001H192.211V68.0201H193.651V70.0001H196.531V71.3501H193.651V77.6501H196.621V79.0001H192.211V71.3501ZM201.31 70.0001H202.84L204.46 77.6501H204.91L206.44 70.0001H209.05L210.58 77.6501H211.03L212.65 70.0001H214.18L212.2 79.0001H209.41L207.88 71.3501H207.61L206.08 79.0001H203.29L201.31 70.0001ZM219.047 79.1801C218.459 79.1801 217.901 79.0661 217.373 78.8381C216.857 78.5981 216.401 78.2741 216.005 77.8661C215.609 77.4461 215.297 76.9481 215.069 76.3721C214.841 75.7961 214.727 75.1721 214.727 74.5001C214.727 73.8281 214.841 73.2041 215.069 72.6281C215.297 72.0521 215.609 71.5601 216.005 71.1521C216.401 70.7321 216.857 70.4081 217.373 70.1801C217.901 69.9401 218.459 69.8201 219.047 69.8201C219.635 69.8201 220.133 69.9041 220.541 70.0721C220.949 70.2401 221.279 70.4261 221.531 70.6301C221.795 70.8341 221.981 71.0261 222.089 71.2061C222.209 71.3741 222.269 71.4581 222.269 71.4581H222.287V70.0001H223.727V79.0001H222.287V77.5601H222.269C222.269 77.5601 222.209 77.6501 222.089 77.8301C221.981 77.9981 221.795 78.1841 221.531 78.3881C221.279 78.5801 220.949 78.7601 220.541 78.9281C220.133 79.0961 219.635 79.1801 219.047 79.1801ZM219.227 77.8301C219.659 77.8301 220.061 77.7521 220.433 77.5961C220.805 77.4281 221.129 77.2001 221.405 76.9121C221.681 76.6121 221.897 76.2581 222.053 75.8501C222.209 75.4421 222.287 74.9921 222.287 74.5001C222.287 74.0081 222.209 73.5581 222.053 73.1501C221.897 72.7421 221.681 72.3941 221.405 72.1061C221.129 71.8061 220.805 71.5781 220.433 71.4221C220.061 71.2541 219.659 71.1701 219.227 71.1701C218.795 71.1701 218.393 71.2541 218.021 71.4221C217.649 71.5781 217.325 71.8061 217.049 72.1061C216.773 72.3941 216.557 72.7421 216.401 73.1501C216.245 73.5581 216.167 74.0081 216.167 74.5001C216.167 74.9921 216.245 75.4421 216.401 75.8501C216.557 76.2581 216.773 76.6121 217.049 76.9121C217.325 77.2001 217.649 77.4281 218.021 77.5961C218.393 77.7521 218.795 77.8301 219.227 77.8301ZM225.893 71.3501H224.723V70.0001H225.893V68.0201H227.333V70.0001H230.213V71.3501H227.333V77.6501H230.303V79.0001H225.893V71.3501ZM235.347 79.1801C234.711 79.1801 234.117 79.0661 233.565 78.8381C233.025 78.5981 232.551 78.2741 232.143 77.8661C231.747 77.4461 231.429 76.9481 231.189 76.3721C230.961 75.7961 230.847 75.1721 230.847 74.5001C230.847 73.8281 230.961 73.2041 231.189 72.6281C231.429 72.0521 231.747 71.5601 232.143 71.1521C232.551 70.7321 233.025 70.4081 233.565 70.1801C234.117 69.9401 234.711 69.8201 235.347 69.8201C235.791 69.8201 236.193 69.8681 236.553 69.9641C236.925 70.0481 237.255 70.1681 237.543 70.3241C237.831 70.4681 238.083 70.6361 238.299 70.8281C238.515 71.0201 238.701 71.2121 238.857 71.4041C239.229 71.8721 239.499 72.3941 239.667 72.9701H238.227C238.083 72.6341 237.885 72.3341 237.633 72.0701C237.417 71.8421 237.123 71.6381 236.751 71.4581C236.379 71.2661 235.911 71.1701 235.347 71.1701C234.915 71.1701 234.513 71.2541 234.141 71.4221C233.769 71.5781 233.445 71.8061 233.169 72.1061C232.893 72.3941 232.677 72.7421 232.521 73.1501C232.365 73.5581 232.287 74.0081 232.287 74.5001C232.287 75.0041 232.371 75.4601 232.539 75.8681C232.707 76.2761 232.929 76.6241 233.205 76.9121C233.481 77.2001 233.805 77.4281 234.177 77.5961C234.549 77.7521 234.939 77.8301 235.347 77.8301C235.935 77.8301 236.415 77.7281 236.787 77.5241C237.171 77.3201 237.477 77.0921 237.705 76.8401C237.969 76.5521 238.173 76.2221 238.317 75.8501H239.757C239.589 76.4861 239.313 77.0441 238.929 77.5241C238.761 77.7281 238.569 77.9321 238.353 78.1361C238.137 78.3281 237.879 78.5021 237.579 78.6581C237.291 78.8141 236.961 78.9401 236.589 79.0361C236.217 79.1321 235.803 79.1801 235.347 79.1801ZM240.845 66.4001H242.285V71.3501H242.303C242.483 71.0621 242.717 70.8101 243.005 70.5941C243.245 70.4021 243.557 70.2281 243.941 70.0721C244.337 69.9041 244.805 69.8201 245.345 69.8201C245.885 69.8201 246.377 69.9101 246.821 70.0901C247.265 70.2581 247.643 70.5101 247.955 70.8461C248.267 71.1821 248.507 71.5901 248.675 72.0701C248.855 72.5381 248.945 73.0781 248.945 73.6901V79.0001H247.505V73.7801C247.505 72.8801 247.277 72.2201 246.821 71.8001C246.377 71.3801 245.795 71.1701 245.075 71.1701C244.667 71.1701 244.289 71.2421 243.941 71.3861C243.605 71.5181 243.311 71.7161 243.059 71.9801C242.819 72.2441 242.627 72.5621 242.483 72.9341C242.351 73.2941 242.285 73.6961 242.285 74.1401V79.0001H240.845V66.4001ZM254.617 79.1801C253.969 79.1801 253.363 79.0661 252.799 78.8381C252.235 78.5981 251.749 78.2741 251.341 77.8661C250.933 77.4461 250.609 76.9481 250.369 76.3721C250.141 75.7961 250.027 75.1721 250.027 74.5001C250.027 73.8281 250.141 73.2041 250.369 72.6281C250.609 72.0521 250.933 71.5601 251.341 71.1521C251.749 70.7321 252.235 70.4081 252.799 70.1801C253.363 69.9401 253.969 69.8201 254.617 69.8201C255.265 69.8201 255.871 69.9401 256.435 70.1801C256.999 70.4081 257.485 70.7261 257.893 71.1341C258.301 71.5421 258.619 72.0281 258.847 72.5921C259.087 73.1561 259.207 73.7621 259.207 74.4101V74.9501H251.467C251.515 75.3701 251.629 75.7601 251.809 76.1201C251.989 76.4681 252.217 76.7681 252.493 77.0201C252.769 77.2721 253.087 77.4701 253.447 77.6141C253.819 77.7581 254.209 77.8301 254.617 77.8301C255.157 77.8301 255.613 77.7461 255.985 77.5781C256.357 77.4101 256.663 77.2241 256.903 77.0201C257.179 76.7921 257.407 76.5221 257.587 76.2101H259.027C258.811 76.7741 258.505 77.2721 258.109 77.7041C257.761 78.0761 257.305 78.4181 256.741 78.7301C256.177 79.0301 255.469 79.1801 254.617 79.1801ZM257.677 73.6901C257.629 73.3541 257.521 73.0361 257.353 72.7361C257.197 72.4241 256.987 72.1541 256.723 71.9261C256.459 71.6981 256.147 71.5181 255.787 71.3861C255.439 71.2421 255.049 71.1701 254.617 71.1701C254.185 71.1701 253.789 71.2421 253.429 71.3861C253.081 71.5181 252.769 71.6981 252.493 71.9261C252.229 72.1541 252.013 72.4241 251.845 72.7361C251.677 73.0361 251.563 73.3541 251.503 73.6901H257.677ZM263.974 79.1801C263.53 79.1801 263.134 79.1381 262.786 79.0541C262.438 78.9701 262.126 78.8621 261.85 78.7301C261.574 78.5861 261.328 78.4241 261.112 78.2441C260.908 78.0641 260.734 77.8841 260.59 77.7041C260.242 77.2721 259.99 76.7741 259.834 76.2101H261.364C261.484 76.5221 261.658 76.7921 261.886 77.0201C262.09 77.2241 262.354 77.4101 262.678 77.5781C263.014 77.7461 263.446 77.8301 263.974 77.8301C264.79 77.8301 265.366 77.6981 265.702 77.4341C266.05 77.1581 266.224 76.8401 266.224 76.4801C266.224 76.1681 266.074 75.9281 265.774 75.7601C265.486 75.5921 265.12 75.4481 264.676 75.3281C264.244 75.2081 263.77 75.0941 263.254 74.9861C262.738 74.8781 262.258 74.7221 261.814 74.5181C261.382 74.3141 261.016 74.0441 260.716 73.7081C260.428 73.3721 260.284 72.9161 260.284 72.3401C260.284 72.0041 260.356 71.6861 260.5 71.3861C260.644 71.0741 260.86 70.8041 261.148 70.5761C261.436 70.3481 261.79 70.1681 262.21 70.0361C262.642 69.8921 263.14 69.8201 263.704 69.8201C264.124 69.8201 264.496 69.8621 264.82 69.9461C265.156 70.0181 265.45 70.1201 265.702 70.2521C265.966 70.3721 266.194 70.5161 266.386 70.6841C266.578 70.8401 266.746 71.0021 266.89 71.1701C267.202 71.5661 267.43 72.0161 267.574 72.5201H266.044C265.936 72.2801 265.78 72.0581 265.576 71.8541C265.408 71.6861 265.168 71.5301 264.856 71.3861C264.556 71.2421 264.172 71.1701 263.704 71.1701C263.368 71.1701 263.074 71.2061 262.822 71.2781C262.57 71.3501 262.36 71.4461 262.192 71.5661C262.036 71.6741 261.916 71.8001 261.832 71.9441C261.76 72.0761 261.724 72.2081 261.724 72.3401C261.724 72.6521 261.868 72.8921 262.156 73.0601C262.456 73.2281 262.822 73.3721 263.254 73.4921C263.698 73.6121 264.178 73.7261 264.694 73.8341C265.21 73.9421 265.684 74.0981 266.116 74.3021C266.56 74.5061 266.926 74.7821 267.214 75.1301C267.514 75.4661 267.664 75.9161 267.664 76.4801C267.664 76.8401 267.586 77.1821 267.43 77.5061C267.274 77.8301 267.04 78.1181 266.728 78.3701C266.416 78.6221 266.032 78.8201 265.576 78.9641C265.12 79.1081 264.586 79.1801 263.974 79.1801ZM268.56 80.5301C269.28 80.4461 269.64 80.0561 269.64 79.3601V79.0901C269.616 79.1141 269.58 79.1321 269.532 79.1441C269.436 79.1681 269.352 79.1801 269.28 79.1801C269.052 79.1801 268.86 79.0961 268.704 78.9281C268.548 78.7601 268.47 78.5321 268.47 78.2441C268.47 77.8961 268.572 77.6201 268.776 77.4161C268.98 77.2121 269.238 77.1101 269.55 77.1101C269.862 77.1101 270.12 77.2361 270.324 77.4881C270.528 77.7281 270.63 78.1421 270.63 78.7301C270.63 79.5461 270.444 80.1581 270.072 80.5661C269.7 80.9741 269.196 81.2021 268.56 81.2501V80.5301ZM276.484 66.4001H281.794C282.514 66.4001 283.162 66.5081 283.738 66.7241C284.314 66.9281 284.806 67.2161 285.214 67.5881C285.622 67.9601 285.934 68.3981 286.15 68.9021C286.366 69.4061 286.474 69.9521 286.474 70.5401C286.474 71.1281 286.366 71.6741 286.15 72.1781C285.934 72.6821 285.622 73.1201 285.214 73.4921C284.806 73.8641 284.314 74.1581 283.738 74.3741C283.162 74.5781 282.514 74.6801 281.794 74.6801H278.104V79.0001H276.484V66.4001ZM281.794 73.1501C282.79 73.1501 283.546 72.9101 284.062 72.4301C284.59 71.9381 284.854 71.3081 284.854 70.5401C284.854 69.7721 284.59 69.1481 284.062 68.6681C283.546 68.1761 282.79 67.9301 281.794 67.9301H278.104V73.1501H281.794ZM293.762 79.3601C292.814 79.3601 291.938 79.1981 291.134 78.8741C290.33 78.5381 289.634 78.0761 289.046 77.4881C288.47 76.8881 288.014 76.1861 287.678 75.3821C287.354 74.5661 287.192 73.6721 287.192 72.7001C287.192 71.7281 287.354 70.8401 287.678 70.0361C288.014 69.2201 288.47 68.5181 289.046 67.9301C289.634 67.3301 290.33 66.8681 291.134 66.5441C291.938 66.2081 292.814 66.0401 293.762 66.0401C294.71 66.0401 295.58 66.2081 296.372 66.5441C297.176 66.8681 297.872 67.3301 298.46 67.9301C299.048 68.5181 299.504 69.2201 299.828 70.0361C300.164 70.8401 300.332 71.7281 300.332 72.7001C300.332 73.6721 300.164 74.5661 299.828 75.3821C299.504 76.1861 299.048 76.8881 298.46 77.4881C297.872 78.0761 297.176 78.5381 296.372 78.8741C295.58 79.1981 294.71 79.3601 293.762 79.3601ZM293.762 77.8301C294.482 77.8301 295.142 77.7101 295.742 77.4701C296.354 77.2181 296.876 76.8701 297.308 76.4261C297.752 75.9701 298.094 75.4301 298.334 74.8061C298.586 74.1701 298.712 73.4681 298.712 72.7001C298.712 71.9321 298.586 71.2361 298.334 70.6121C298.094 69.9761 297.752 69.4361 297.308 68.9921C296.876 68.5361 296.354 68.1881 295.742 67.9481C295.142 67.6961 294.482 67.5701 293.762 67.5701C293.042 67.5701 292.376 67.6961 291.764 67.9481C291.164 68.1881 290.642 68.5361 290.198 68.9921C289.766 69.4361 289.424 69.9761 289.172 70.6121C288.932 71.2361 288.812 71.9321 288.812 72.7001C288.812 73.4681 288.932 74.1701 289.172 74.8061C289.424 75.4301 289.766 75.9701 290.198 76.4261C290.642 76.8701 291.164 77.2181 291.764 77.4701C292.376 77.7101 293.042 77.8301 293.762 77.8301ZM306.368 79.3601C305.792 79.3601 305.276 79.3001 304.82 79.1801C304.364 79.0721 303.962 78.9281 303.614 78.7481C303.266 78.5561 302.96 78.3461 302.696 78.1181C302.432 77.8781 302.21 77.6321 302.03 77.3801C301.598 76.8041 301.304 76.1441 301.148 75.4001H302.768C302.888 75.8561 303.104 76.2641 303.416 76.6241C303.68 76.9361 304.046 77.2181 304.514 77.4701C304.982 77.7101 305.6 77.8301 306.368 77.8301C306.908 77.8301 307.376 77.7761 307.772 77.6681C308.168 77.5481 308.492 77.3921 308.744 77.2001C309.008 76.9961 309.2 76.7621 309.32 76.4981C309.452 76.2341 309.518 75.9581 309.518 75.6701C309.518 75.2861 309.404 74.9681 309.176 74.7161C308.96 74.4641 308.666 74.2481 308.294 74.0681C307.922 73.8881 307.502 73.7321 307.034 73.6001C306.566 73.4681 306.086 73.3361 305.594 73.2041C305.114 73.0601 304.64 72.8981 304.172 72.7181C303.704 72.5381 303.284 72.3161 302.912 72.0521C302.54 71.7881 302.24 71.4641 302.012 71.0801C301.796 70.6841 301.688 70.2041 301.688 69.6401C301.688 69.1721 301.79 68.7221 301.994 68.2901C302.21 67.8461 302.51 67.4621 302.894 67.1381C303.278 66.8021 303.746 66.5381 304.298 66.3461C304.862 66.1421 305.492 66.0401 306.188 66.0401C306.716 66.0401 307.19 66.0941 307.61 66.2021C308.042 66.2981 308.42 66.4301 308.744 66.5981C309.068 66.7541 309.35 66.9401 309.59 67.1561C309.842 67.3721 310.052 67.5881 310.22 67.8041C310.616 68.3201 310.892 68.9021 311.048 69.5501H309.428C309.32 69.1901 309.128 68.8601 308.852 68.5601C308.612 68.3201 308.282 68.0981 307.862 67.8941C307.442 67.6781 306.884 67.5701 306.188 67.5701C305.72 67.5701 305.306 67.6301 304.946 67.7501C304.586 67.8581 304.28 68.0081 304.028 68.2001C303.788 68.3921 303.608 68.6141 303.488 68.8661C303.368 69.1181 303.308 69.3761 303.308 69.6401C303.308 70.1321 303.5 70.5221 303.884 70.8101C304.268 71.0861 304.748 71.3261 305.324 71.5301C305.912 71.7221 306.542 71.9081 307.214 72.0881C307.898 72.2561 308.528 72.4841 309.104 72.7721C309.692 73.0481 310.178 73.4141 310.562 73.8701C310.946 74.3261 311.138 74.9261 311.138 75.6701C311.138 76.1621 311.03 76.6361 310.814 77.0921C310.61 77.5361 310.304 77.9261 309.896 78.2621C309.488 78.5981 308.99 78.8621 308.402 79.0541C307.814 79.2581 307.136 79.3601 306.368 79.3601ZM316.082 66.4001H317.702L312.842 79.0001H311.222L316.082 66.4001ZM320.588 66.4001H325.538L328.778 79.0001H327.158L326.168 75.3101H319.958L318.968 79.0001H317.348L320.588 66.4001ZM325.808 73.7801L324.278 67.9301H321.848L320.318 73.7801H325.808ZM332.194 67.9301H327.874V66.4001H338.134V67.9301H333.814V79.0001H332.194V67.9301ZM339.031 66.4001H341.641L345.421 74.5001H346.231L350.011 66.4001H352.621V79.0001H351.001V68.2001L351.019 68.0201H350.983L347.311 75.9401H344.341L340.669 68.0201H340.633L340.651 68.2001V79.0001H339.031V66.4001ZM355.232 79.2701C354.92 79.2701 354.662 79.1681 354.458 78.9641C354.254 78.7601 354.152 78.5021 354.152 78.1901C354.152 77.8781 354.254 77.6201 354.458 77.4161C354.662 77.2121 354.92 77.1101 355.232 77.1101C355.544 77.1101 355.802 77.2121 356.006 77.4161C356.21 77.6201 356.312 77.8781 356.312 78.1901C356.312 78.5021 356.21 78.7601 356.006 78.9641C355.802 79.1681 355.544 79.2701 355.232 79.2701ZM363.781 66.4001H368.731L371.971 79.0001H370.351L369.361 75.3101H363.151L362.161 79.0001H360.541L363.781 66.4001ZM369.001 73.7801L367.471 67.9301H365.041L363.511 73.7801H369.001ZM372.867 66.4001H374.307V77.6501H376.377V79.0001H372.867V66.4001ZM377.104 66.4001H378.544V77.6501H380.614V79.0001H377.104V66.4001ZM390.346 79.1801C389.758 79.1801 389.26 79.0961 388.852 78.9281C388.444 78.7601 388.108 78.5801 387.844 78.3881C387.592 78.1841 387.406 77.9981 387.286 77.8301C387.178 77.6501 387.124 77.5601 387.124 77.5601H387.106V79.0001H385.666V66.4001H387.106V71.4401H387.124C387.124 71.4401 387.178 71.3561 387.286 71.1881C387.406 71.0081 387.592 70.8221 387.844 70.6301C388.108 70.4261 388.444 70.2401 388.852 70.0721C389.26 69.9041 389.758 69.8201 390.346 69.8201C390.934 69.8201 391.486 69.9401 392.002 70.1801C392.53 70.4081 392.992 70.7321 393.388 71.1521C393.784 71.5601 394.096 72.0521 394.324 72.6281C394.552 73.2041 394.666 73.8281 394.666 74.5001C394.666 75.1721 394.552 75.7961 394.324 76.3721C394.096 76.9481 393.784 77.4461 393.388 77.8661C392.992 78.2741 392.53 78.5981 392.002 78.8381C391.486 79.0661 390.934 79.1801 390.346 79.1801ZM390.166 77.8301C390.598 77.8301 391 77.7521 391.372 77.5961C391.744 77.4281 392.068 77.2001 392.344 76.9121C392.62 76.6121 392.836 76.2581 392.992 75.8501C393.148 75.4421 393.226 74.9921 393.226 74.5001C393.226 74.0081 393.148 73.5581 392.992 73.1501C392.836 72.7421 392.62 72.3941 392.344 72.1061C392.068 71.8061 391.744 71.5781 391.372 71.4221C391 71.2541 390.598 71.1701 390.166 71.1701C389.734 71.1701 389.332 71.2541 388.96 71.4221C388.588 71.5781 388.264 71.8061 387.988 72.1061C387.712 72.3941 387.496 72.7421 387.34 73.1501C387.184 73.5581 387.106 74.0081 387.106 74.5001C387.106 74.9921 387.184 75.4421 387.34 75.8501C387.496 76.2581 387.712 76.6121 387.988 76.9121C388.264 77.2001 388.588 77.4281 388.96 77.5961C389.332 77.7521 389.734 77.8301 390.166 77.8301ZM399.713 79.1801C399.125 79.1801 398.567 79.0661 398.039 78.8381C397.523 78.5981 397.067 78.2741 396.671 77.8661C396.275 77.4461 395.963 76.9481 395.735 76.3721C395.507 75.7961 395.393 75.1721 395.393 74.5001C395.393 73.8281 395.507 73.2041 395.735 72.6281C395.963 72.0521 396.275 71.5601 396.671 71.1521C397.067 70.7321 397.523 70.4081 398.039 70.1801C398.567 69.9401 399.125 69.8201 399.713 69.8201C400.301 69.8201 400.799 69.9041 401.207 70.0721C401.615 70.2401 401.945 70.4261 402.197 70.6301C402.461 70.8341 402.647 71.0261 402.755 71.2061C402.875 71.3741 402.935 71.4581 402.935 71.4581H402.953V70.0001H404.393V79.0001H402.953V77.5601H402.935C402.935 77.5601 402.875 77.6501 402.755 77.8301C402.647 77.9981 402.461 78.1841 402.197 78.3881C401.945 78.5801 401.615 78.7601 401.207 78.9281C400.799 79.0961 400.301 79.1801 399.713 79.1801ZM399.893 77.8301C400.325 77.8301 400.727 77.7521 401.099 77.5961C401.471 77.4281 401.795 77.2001 402.071 76.9121C402.347 76.6121 402.563 76.2581 402.719 75.8501C402.875 75.4421 402.953 74.9921 402.953 74.5001C402.953 74.0081 402.875 73.5581 402.719 73.1501C402.563 72.7421 402.347 72.3941 402.071 72.1061C401.795 71.8061 401.471 71.5781 401.099 71.4221C400.727 71.2541 400.325 71.1701 399.893 71.1701C399.461 71.1701 399.059 71.2541 398.687 71.4221C398.315 71.5781 397.991 71.8061 397.715 72.1061C397.439 72.3941 397.223 72.7421 397.067 73.1501C396.911 73.5581 396.833 74.0081 396.833 74.5001C396.833 74.9921 396.911 75.4421 397.067 75.8501C397.223 76.2581 397.439 76.6121 397.715 76.9121C397.991 77.2001 398.315 77.4281 398.687 77.5961C399.059 77.7521 399.461 77.8301 399.893 77.8301ZM406.199 70.0001H407.639V71.3501H407.657C407.837 71.0621 408.071 70.8101 408.359 70.5941C408.599 70.4021 408.911 70.2281 409.295 70.0721C409.691 69.9041 410.159 69.8201 410.699 69.8201C411.239 69.8201 411.731 69.9101 412.175 70.0901C412.619 70.2581 412.997 70.5101 413.309 70.8461C413.621 71.1821 413.861 71.5901 414.029 72.0701C414.209 72.5381 414.299 73.0781 414.299 73.6901V79.0001H412.859V73.7801C412.859 72.8801 412.631 72.2201 412.175 71.8001C411.731 71.3801 411.149 71.1701 410.429 71.1701C410.021 71.1701 409.643 71.2421 409.295 71.3861C408.959 71.5181 408.665 71.7161 408.413 71.9801C408.173 72.2441 407.981 72.5621 407.837 72.9341C407.705 73.2941 407.639 73.6961 407.639 74.1401V79.0001H406.199V70.0001ZM416.008 66.4001H417.448V73.6001H419.248L422.128 70.0001H423.838L420.508 74.2301L424.108 79.0001H422.308L419.248 74.9501H417.448V79.0001H416.008V66.4001ZM427.904 79.1801C427.46 79.1801 427.064 79.1381 426.716 79.0541C426.368 78.9701 426.056 78.8621 425.78 78.7301C425.504 78.5861 425.258 78.4241 425.042 78.2441C424.838 78.0641 424.664 77.8841 424.52 77.7041C424.172 77.2721 423.92 76.7741 423.764 76.2101H425.294C425.414 76.5221 425.588 76.7921 425.816 77.0201C426.02 77.2241 426.284 77.4101 426.608 77.5781C426.944 77.7461 427.376 77.8301 427.904 77.8301C428.72 77.8301 429.296 77.6981 429.632 77.4341C429.98 77.1581 430.154 76.8401 430.154 76.4801C430.154 76.1681 430.004 75.9281 429.704 75.7601C429.416 75.5921 429.05 75.4481 428.606 75.3281C428.174 75.2081 427.7 75.0941 427.184 74.9861C426.668 74.8781 426.188 74.7221 425.744 74.5181C425.312 74.3141 424.946 74.0441 424.646 73.7081C424.358 73.3721 424.214 72.9161 424.214 72.3401C424.214 72.0041 424.286 71.6861 424.43 71.3861C424.574 71.0741 424.79 70.8041 425.078 70.5761C425.366 70.3481 425.72 70.1681 426.14 70.0361C426.572 69.8921 427.07 69.8201 427.634 69.8201C428.054 69.8201 428.426 69.8621 428.75 69.9461C429.086 70.0181 429.38 70.1201 429.632 70.2521C429.896 70.3721 430.124 70.5161 430.316 70.6841C430.508 70.8401 430.676 71.0021 430.82 71.1701C431.132 71.5661 431.36 72.0161 431.504 72.5201H429.974C429.866 72.2801 429.71 72.0581 429.506 71.8541C429.338 71.6861 429.098 71.5301 428.786 71.3861C428.486 71.2421 428.102 71.1701 427.634 71.1701C427.298 71.1701 427.004 71.2061 426.752 71.2781C426.5 71.3501 426.29 71.4461 426.122 71.5661C425.966 71.6741 425.846 71.8001 425.762 71.9441C425.69 72.0761 425.654 72.2081 425.654 72.3401C425.654 72.6521 425.798 72.8921 426.086 73.0601C426.386 73.2281 426.752 73.3721 427.184 73.4921C427.628 73.6121 428.108 73.7261 428.624 73.8341C429.14 73.9421 429.614 74.0981 430.046 74.3021C430.49 74.5061 430.856 74.7821 431.144 75.1301C431.444 75.4661 431.594 75.9161 431.594 76.4801C431.594 76.8401 431.516 77.1821 431.36 77.5061C431.204 77.8301 430.97 78.1181 430.658 78.3701C430.346 78.6221 429.962 78.8201 429.506 78.9641C429.05 79.1081 428.516 79.1801 427.904 79.1801ZM440.685 79.1801C440.241 79.1801 439.845 79.1381 439.497 79.0541C439.149 78.9701 438.837 78.8621 438.561 78.7301C438.285 78.5861 438.039 78.4241 437.823 78.2441C437.619 78.0641 437.445 77.8841 437.301 77.7041C436.953 77.2721 436.701 76.7741 436.545 76.2101H438.075C438.195 76.5221 438.369 76.7921 438.597 77.0201C438.801 77.2241 439.065 77.4101 439.389 77.5781C439.725 77.7461 440.157 77.8301 440.685 77.8301C441.501 77.8301 442.077 77.6981 442.413 77.4341C442.761 77.1581 442.935 76.8401 442.935 76.4801C442.935 76.1681 442.785 75.9281 442.485 75.7601C442.197 75.5921 441.831 75.4481 441.387 75.3281C440.955 75.2081 440.481 75.0941 439.965 74.9861C439.449 74.8781 438.969 74.7221 438.525 74.5181C438.093 74.3141 437.727 74.0441 437.427 73.7081C437.139 73.3721 436.995 72.9161 436.995 72.3401C436.995 72.0041 437.067 71.6861 437.211 71.3861C437.355 71.0741 437.571 70.8041 437.859 70.5761C438.147 70.3481 438.501 70.1681 438.921 70.0361C439.353 69.8921 439.851 69.8201 440.415 69.8201C440.835 69.8201 441.207 69.8621 441.531 69.9461C441.867 70.0181 442.161 70.1201 442.413 70.2521C442.677 70.3721 442.905 70.5161 443.097 70.6841C443.289 70.8401 443.457 71.0021 443.601 71.1701C443.913 71.5661 444.141 72.0161 444.285 72.5201H442.755C442.647 72.2801 442.491 72.0581 442.287 71.8541C442.119 71.6861 441.879 71.5301 441.567 71.3861C441.267 71.2421 440.883 71.1701 440.415 71.1701C440.079 71.1701 439.785 71.2061 439.533 71.2781C439.281 71.3501 439.071 71.4461 438.903 71.5661C438.747 71.6741 438.627 71.8001 438.543 71.9441C438.471 72.0761 438.435 72.2081 438.435 72.3401C438.435 72.6521 438.579 72.8921 438.867 73.0601C439.167 73.2281 439.533 73.3721 439.965 73.4921C440.409 73.6121 440.889 73.7261 441.405 73.8341C441.921 73.9421 442.395 74.0981 442.827 74.3021C443.271 74.5061 443.637 74.7821 443.925 75.1301C444.225 75.4661 444.375 75.9161 444.375 76.4801C444.375 76.8401 444.297 77.1821 444.141 77.5061C443.985 77.8301 443.751 78.1181 443.439 78.3701C443.127 78.6221 442.743 78.8201 442.287 78.9641C441.831 79.1081 441.297 79.1801 440.685 79.1801ZM449.23 79.1801C448.69 79.1801 448.198 79.0961 447.754 78.9281C447.31 78.7481 446.932 78.4901 446.62 78.1541C446.308 77.8181 446.062 77.4161 445.882 76.9481C445.714 76.4681 445.63 75.9221 445.63 75.3101V70.0001H447.07V75.2201C447.07 76.1201 447.292 76.7801 447.736 77.2001C448.192 77.6201 448.78 77.8301 449.5 77.8301C449.908 77.8301 450.28 77.7641 450.616 77.6321C450.964 77.4881 451.258 77.2841 451.498 77.0201C451.75 76.7561 451.942 76.4441 452.074 76.0841C452.218 75.7241 452.29 75.3161 452.29 74.8601V70.0001H453.73V79.0001H452.29V77.6501H452.272C452.08 77.9501 451.84 78.2081 451.552 78.4241C451.312 78.6161 451 78.7901 450.616 78.9461C450.232 79.1021 449.77 79.1801 449.23 79.1801ZM455.527 70.0001H456.967V71.4401H456.985C456.985 71.4401 457.039 71.3561 457.147 71.1881C457.267 71.0081 457.453 70.8221 457.705 70.6301C457.969 70.4261 458.305 70.2401 458.713 70.0721C459.121 69.9041 459.619 69.8201 460.207 69.8201C460.795 69.8201 461.347 69.9401 461.863 70.1801C462.391 70.4081 462.853 70.7321 463.249 71.1521C463.645 71.5601 463.957 72.0521 464.185 72.6281C464.413 73.2041 464.527 73.8281 464.527 74.5001C464.527 75.1721 464.413 75.7961 464.185 76.3721C463.957 76.9481 463.645 77.4461 463.249 77.8661C462.853 78.2741 462.391 78.5981 461.863 78.8381C461.347 79.0661 460.795 79.1801 460.207 79.1801C459.619 79.1801 459.121 79.0961 458.713 78.9281C458.305 78.7601 457.969 78.5801 457.705 78.3881C457.453 78.1841 457.267 77.9981 457.147 77.8301C457.039 77.6501 456.985 77.5601 456.985 77.5601H456.967V82.4201H455.527V70.0001ZM460.027 77.8301C460.459 77.8301 460.861 77.7521 461.233 77.5961C461.605 77.4281 461.929 77.2001 462.205 76.9121C462.481 76.6121 462.697 76.2581 462.853 75.8501C463.009 75.4421 463.087 74.9921 463.087 74.5001C463.087 74.0081 463.009 73.5581 462.853 73.1501C462.697 72.7421 462.481 72.3941 462.205 72.1061C461.929 71.8061 461.605 71.5781 461.233 71.4221C460.861 71.2541 460.459 71.1701 460.027 71.1701C459.595 71.1701 459.193 71.2541 458.821 71.4221C458.449 71.5781 458.125 71.8061 457.849 72.1061C457.573 72.3941 457.357 72.7421 457.201 73.1501C457.045 73.5581 456.967 74.0081 456.967 74.5001C456.967 74.9921 457.045 75.4421 457.201 75.8501C457.357 76.2581 457.573 76.6121 457.849 76.9121C458.125 77.2001 458.449 77.4281 458.821 77.5961C459.193 77.7521 459.595 77.8301 460.027 77.8301ZM465.794 70.0001H467.234V71.4401H467.252C467.252 71.4401 467.306 71.3561 467.414 71.1881C467.534 71.0081 467.72 70.8221 467.972 70.6301C468.236 70.4261 468.572 70.2401 468.98 70.0721C469.388 69.9041 469.886 69.8201 470.474 69.8201C471.062 69.8201 471.614 69.9401 472.13 70.1801C472.658 70.4081 473.12 70.7321 473.516 71.1521C473.912 71.5601 474.224 72.0521 474.452 72.6281C474.68 73.2041 474.794 73.8281 474.794 74.5001C474.794 75.1721 474.68 75.7961 474.452 76.3721C474.224 76.9481 473.912 77.4461 473.516 77.8661C473.12 78.2741 472.658 78.5981 472.13 78.8381C471.614 79.0661 471.062 79.1801 470.474 79.1801C469.886 79.1801 469.388 79.0961 468.98 78.9281C468.572 78.7601 468.236 78.5801 467.972 78.3881C467.72 78.1841 467.534 77.9981 467.414 77.8301C467.306 77.6501 467.252 77.5601 467.252 77.5601H467.234V82.4201H465.794V70.0001ZM470.294 77.8301C470.726 77.8301 471.128 77.7521 471.5 77.5961C471.872 77.4281 472.196 77.2001 472.472 76.9121C472.748 76.6121 472.964 76.2581 473.12 75.8501C473.276 75.4421 473.354 74.9921 473.354 74.5001C473.354 74.0081 473.276 73.5581 473.12 73.1501C472.964 72.7421 472.748 72.3941 472.472 72.1061C472.196 71.8061 471.872 71.5781 471.5 71.4221C471.128 71.2541 470.726 71.1701 470.294 71.1701C469.862 71.1701 469.46 71.2541 469.088 71.4221C468.716 71.5781 468.392 71.8061 468.116 72.1061C467.84 72.3941 467.624 72.7421 467.468 73.1501C467.312 73.5581 467.234 74.0081 467.234 74.5001C467.234 74.9921 467.312 75.4421 467.468 75.8501C467.624 76.2581 467.84 76.6121 468.116 76.9121C468.392 77.2001 468.716 77.4281 469.088 77.5961C469.46 77.7521 469.862 77.8301 470.294 77.8301ZM480.2 79.1801C479.528 79.1801 478.904 79.0661 478.328 78.8381C477.752 78.5981 477.254 78.2741 476.834 77.8661C476.426 77.4461 476.102 76.9481 475.862 76.3721C475.634 75.7961 475.52 75.1721 475.52 74.5001C475.52 73.8281 475.634 73.2041 475.862 72.6281C476.102 72.0521 476.426 71.5601 476.834 71.1521C477.254 70.7321 477.752 70.4081 478.328 70.1801C478.904 69.9401 479.528 69.8201 480.2 69.8201C480.872 69.8201 481.496 69.9401 482.072 70.1801C482.648 70.4081 483.14 70.7321 483.548 71.1521C483.968 71.5601 484.292 72.0521 484.52 72.6281C484.76 73.2041 484.88 73.8281 484.88 74.5001C484.88 75.1721 484.76 75.7961 484.52 76.3721C484.292 76.9481 483.968 77.4461 483.548 77.8661C483.14 78.2741 482.648 78.5981 482.072 78.8381C481.496 79.0661 480.872 79.1801 480.2 79.1801ZM480.2 77.8301C480.668 77.8301 481.1 77.7521 481.496 77.5961C481.892 77.4281 482.234 77.2001 482.522 76.9121C482.81 76.6121 483.032 76.2581 483.188 75.8501C483.356 75.4421 483.44 74.9921 483.44 74.5001C483.44 74.0081 483.356 73.5581 483.188 73.1501C483.032 72.7421 482.81 72.3941 482.522 72.1061C482.234 71.8061 481.892 71.5781 481.496 71.4221C481.1 71.2541 480.668 71.1701 480.2 71.1701C479.732 71.1701 479.3 71.2541 478.904 71.4221C478.508 71.5781 478.166 71.8061 477.878 72.1061C477.59 72.3941 477.362 72.7421 477.194 73.1501C477.038 73.5581 476.96 74.0081 476.96 74.5001C476.96 74.9921 477.038 75.4421 477.194 75.8501C477.362 76.2581 477.59 76.6121 477.878 76.9121C478.166 77.2001 478.508 77.4281 478.904 77.5961C479.3 77.7521 479.732 77.8301 480.2 77.8301ZM486.133 70.0001H487.573V71.4401H487.591C487.747 71.1521 487.951 70.9001 488.203 70.6841C488.419 70.4921 488.701 70.3181 489.049 70.1621C489.397 69.9941 489.835 69.9101 490.363 69.9101H491.443V71.3501H490.363C489.955 71.3501 489.577 71.4221 489.229 71.5661C488.893 71.6981 488.599 71.8901 488.347 72.1421C488.107 72.3821 487.915 72.6761 487.771 73.0241C487.639 73.3601 487.573 73.7321 487.573 74.1401V79.0001H486.133V70.0001ZM492.611 71.3501H491.441V70.0001H492.611V68.0201H494.051V70.0001H496.931V71.3501H494.051V77.6501H497.021V79.0001H492.611V71.3501ZM502.155 79.1801C501.507 79.1801 500.901 79.0661 500.337 78.8381C499.773 78.5981 499.287 78.2741 498.879 77.8661C498.471 77.4461 498.147 76.9481 497.907 76.3721C497.679 75.7961 497.565 75.1721 497.565 74.5001C497.565 73.8281 497.679 73.2041 497.907 72.6281C498.147 72.0521 498.471 71.5601 498.879 71.1521C499.287 70.7321 499.773 70.4081 500.337 70.1801C500.901 69.9401 501.507 69.8201 502.155 69.8201C502.803 69.8201 503.409 69.9401 503.973 70.1801C504.537 70.4081 505.023 70.7261 505.431 71.1341C505.839 71.5421 506.157 72.0281 506.385 72.5921C506.625 73.1561 506.745 73.7621 506.745 74.4101V74.9501H499.005C499.053 75.3701 499.167 75.7601 499.347 76.1201C499.527 76.4681 499.755 76.7681 500.031 77.0201C500.307 77.2721 500.625 77.4701 500.985 77.6141C501.357 77.7581 501.747 77.8301 502.155 77.8301C502.695 77.8301 503.151 77.7461 503.523 77.5781C503.895 77.4101 504.201 77.2241 504.441 77.0201C504.717 76.7921 504.945 76.5221 505.125 76.2101H506.565C506.349 76.7741 506.043 77.2721 505.647 77.7041C505.299 78.0761 504.843 78.4181 504.279 78.7301C503.715 79.0301 503.007 79.1801 502.155 79.1801ZM505.215 73.6901C505.167 73.3541 505.059 73.0361 504.891 72.7361C504.735 72.4241 504.525 72.1541 504.261 71.9261C503.997 71.6981 503.685 71.5181 503.325 71.3861C502.977 71.2421 502.587 71.1701 502.155 71.1701C501.723 71.1701 501.327 71.2421 500.967 71.3861C500.619 71.5181 500.307 71.6981 500.031 71.9261C499.767 72.1541 499.551 72.4241 499.383 72.7361C499.215 73.0361 499.101 73.3541 499.041 73.6901H505.215ZM511.782 79.1801C511.194 79.1801 510.636 79.0661 510.108 78.8381C509.592 78.5981 509.136 78.2741 508.74 77.8661C508.344 77.4461 508.032 76.9481 507.804 76.3721C507.576 75.7961 507.462 75.1721 507.462 74.5001C507.462 73.8281 507.576 73.2041 507.804 72.6281C508.032 72.0521 508.344 71.5601 508.74 71.1521C509.136 70.7321 509.592 70.4081 510.108 70.1801C510.636 69.9401 511.194 69.8201 511.782 69.8201C512.37 69.8201 512.868 69.9041 513.276 70.0721C513.684 70.2401 514.014 70.4261 514.266 70.6301C514.53 70.8221 514.716 71.0081 514.824 71.1881C514.944 71.3561 515.004 71.4401 515.004 71.4401H515.022V66.4001H516.462V79.0001H515.022V77.5601H515.004C515.004 77.5601 514.944 77.6501 514.824 77.8301C514.716 77.9981 514.53 78.1841 514.266 78.3881C514.014 78.5801 513.684 78.7601 513.276 78.9281C512.868 79.0961 512.37 79.1801 511.782 79.1801ZM511.962 77.8301C512.394 77.8301 512.796 77.7521 513.168 77.5961C513.54 77.4281 513.864 77.2001 514.14 76.9121C514.416 76.6121 514.632 76.2581 514.788 75.8501C514.944 75.4421 515.022 74.9921 515.022 74.5001C515.022 74.0081 514.944 73.5581 514.788 73.1501C514.632 72.7421 514.416 72.3941 514.14 72.1061C513.864 71.8061 513.54 71.5781 513.168 71.4221C512.796 71.2541 512.394 71.1701 511.962 71.1701C511.53 71.1701 511.128 71.2541 510.756 71.4221C510.384 71.5781 510.06 71.8061 509.784 72.1061C509.508 72.3941 509.292 72.7421 509.136 73.1501C508.98 73.5581 508.902 74.0081 508.902 74.5001C508.902 74.9921 508.98 75.4421 509.136 75.8501C509.292 76.2581 509.508 76.6121 509.784 76.9121C510.06 77.2001 510.384 77.4281 510.756 77.5961C511.128 77.7521 511.53 77.8301 511.962 77.8301ZM518.899 79.2701C518.587 79.2701 518.329 79.1681 518.125 78.9641C517.921 78.7601 517.819 78.5021 517.819 78.1901C517.819 77.8781 517.921 77.6201 518.125 77.4161C518.329 77.2121 518.587 77.1101 518.899 77.1101C519.211 77.1101 519.469 77.2121 519.673 77.4161C519.877 77.6201 519.979 77.8781 519.979 78.1901C519.979 78.5021 519.877 78.7601 519.673 78.9641C519.469 79.1681 519.211 79.2701 518.899 79.2701Z" fill="#F5F5F7"/>
<g filter="url(#filter1_b_1_486)">
<ellipse cx="59" cy="60.6615" rx="35" ry="35.9856" fill="white" fill-opacity="0.2"/>
<path d="M93.5 60.6615C93.5 80.2728 78.0408 96.1471 59 96.1471C39.9592 96.1471 24.5 80.2728 24.5 60.6615C24.5 41.0502 39.9592 25.1759 59 25.1759C78.0408 25.1759 93.5 41.0502 93.5 60.6615Z" stroke="url(#paint1_radial_1_486)"/>
</g>
<g filter="url(#filter2_b_1_486)">
<ellipse cx="96" cy="60.6615" rx="35" ry="35.9856" fill="white" fill-opacity="0.2"/>
<path d="M130.5 60.6615C130.5 80.2728 115.041 96.1471 96 96.1471C76.9592 96.1471 61.5 80.2728 61.5 60.6615C61.5 41.0502 76.9592 25.1759 96 25.1759C115.041 25.1759 130.5 41.0502 130.5 60.6615Z" stroke="url(#paint2_radial_1_486)"/>
</g>
<g clip-path="url(#clip0_1_486)">
<path d="M83.1667 60.6616H108.833" stroke="white" stroke-width="2.75" stroke-linecap="round" stroke-linejoin="round"/>
<path d="M101.5 68.2015L108.833 60.6616" stroke="white" stroke-width="2.75" stroke-linecap="round" stroke-linejoin="round"/>
<path d="M101.5 53.1218L108.833 60.6617" stroke="white" stroke-width="2.75" stroke-linecap="round" stroke-linejoin="round"/>
</g>
<defs>
<filter id="filter0_b_1_486" x="-40" y="-40" width="734" height="202.351" filterUnits="userSpaceOnUse" color-interpolation-filters="sRGB">
<feFlood flood-opacity="0" result="BackgroundImageFix"/>
<feGaussianBlur in="BackgroundImageFix" stdDeviation="20"/>
<feComposite in2="SourceAlpha" operator="in" result="effect1_backgroundBlur_1_486"/>
<feBlend mode="normal" in="SourceGraphic" in2="effect1_backgroundBlur_1_486" result="shape"/>
</filter>
<filter id="filter1_b_1_486" x="-16" y="-15.3241" width="150" height="151.971" filterUnits="userSpaceOnUse" color-interpolation-filters="sRGB">
<feFlood flood-opacity="0" result="BackgroundImageFix"/>
<feGaussianBlur in="BackgroundImageFix" stdDeviation="20"/>
<feComposite in2="SourceAlpha" operator="in" result="effect1_backgroundBlur_1_486"/>
<feBlend mode="normal" in="SourceGraphic" in2="effect1_backgroundBlur_1_486" result="shape"/>
</filter>
<filter id="filter2_b_1_486" x="21" y="-15.3241" width="150" height="151.971" filterUnits="userSpaceOnUse" color-interpolation-filters="sRGB">
<feFlood flood-opacity="0" result="BackgroundImageFix"/>
<feGaussianBlur in="BackgroundImageFix" stdDeviation="20"/>
<feComposite in2="SourceAlpha" operator="in" result="effect1_backgroundBlur_1_486"/>
<feBlend mode="normal" in="SourceGraphic" in2="effect1_backgroundBlur_1_486" result="shape"/>
</filter>
<radialGradient id="paint0_radial_1_486" cx="0" cy="0" r="1" gradientUnits="userSpaceOnUse" gradientTransform="translate(-80.5652 -22.8725) rotate(21.8658) scale(504.692 391.554)">
<stop stop-color="white" stop-opacity="0.75"/>
<stop offset="1" stop-color="white" stop-opacity="0"/>
</radialGradient>
<radialGradient id="paint1_radial_1_486" cx="0" cy="0" r="1" gradientUnits="userSpaceOnUse" gradientTransform="translate(15.3768 11.2215) rotate(65.6098) scale(121.402 102.486)">
<stop stop-color="white" stop-opacity="0.75"/>
<stop offset="1" stop-color="white" stop-opacity="0"/>
</radialGradient>
<radialGradient id="paint2_radial_1_486" cx="0" cy="0" r="1" gradientUnits="userSpaceOnUse" gradientTransform="translate(52.3768 11.2215) rotate(65.6098) scale(121.402 102.486)">
<stop stop-color="white" stop-opacity="0.75"/>
<stop offset="1" stop-color="white" stop-opacity="0"/>
</radialGradient>
<clipPath id="clip0_1_486">
<rect width="44" height="45.239" fill="white" transform="translate(74 38.0421)"/>
</clipPath>
</defs>
</svg>
