<svg width="1602" height="1082" viewBox="0 0 1602 1082" fill="none" xmlns="http://www.w3.org/2000/svg">
<path d="M80.9825 1V84.0769M80.9825 1H1V84.0769M80.9825 1H160.965M80.9825 84.0769L80.9825 167.154M80.9825 84.0769H1M80.9825 84.0769L160.965 84.0769M80.9825 167.154V250.231M80.9825 167.154H1M80.9825 167.154L160.965 167.154M80.9825 250.231L80.9825 333.308M80.9825 250.231H1M80.9825 250.231H160.965M80.9825 333.308V416.385M80.9825 333.308H1M80.9825 333.308H160.965M80.9825 416.385V499.461M80.9825 416.385H1M80.9825 416.385H160.965M80.9825 499.461L80.9825 582.538M80.9825 499.461H1M80.9825 499.461H160.965M80.9825 582.538V665.615M80.9825 582.538H1M80.9825 582.538H160.965M80.9825 665.615V748.692M80.9825 665.615H1M80.9825 665.615H160.965M80.9825 748.692L80.9825 831.769M80.9825 748.692H1M80.9825 748.692H160.965M80.9825 831.769V914.846M80.9825 831.769H1M80.9825 831.769H160.965M80.9825 914.846L80.9825 997.923M80.9825 914.846H1M80.9825 914.846H160.965M80.9825 997.923V1081M80.9825 997.923H1M80.9825 997.923H160.965M80.9825 1081L1 1081V997.923M80.9825 1081H160.965M1 84.0769V167.154M1 167.154V250.231M1 250.231V333.308M1 333.308V416.385M1 416.385V499.461M1 499.461V582.538M1 582.538V665.615M1 665.615V748.692M1 748.692V831.769M1 831.769V914.846M1 914.846V997.923M160.965 1V84.0769M160.965 1H240.948M160.965 84.0769V167.154M160.965 84.0769H240.948M160.965 167.154L160.965 250.231M160.965 167.154H240.948M160.965 250.231V333.308M160.965 250.231L240.947 250.231M160.965 333.308V416.385M160.965 333.308H240.947M160.965 416.385V499.461M160.965 416.385H240.947M160.965 499.461L160.965 582.538M160.965 499.461H240.947M160.965 582.538V665.615M160.965 582.538H240.947M160.965 665.615V748.692M160.965 665.615H240.947M160.965 748.692V831.769M160.965 748.692H240.947M160.965 831.769L160.965 914.846M160.965 831.769H240.947M160.965 914.846V997.923M160.965 914.846H240.947M160.965 997.923V1081M160.965 997.923H240.947M160.965 1081H240.947M240.948 1V84.0769M240.948 1H320.93M240.948 84.0769V167.154M240.948 84.0769L320.93 84.0769M240.948 167.154L240.947 250.231M240.948 167.154H320.93M240.947 250.231V333.308M240.947 250.231H320.93M240.947 333.308V416.385M240.947 333.308L320.93 333.308M240.947 416.385V499.461M240.947 416.385L320.93 416.385M240.947 499.461L240.947 582.538M240.947 499.461H320.93M240.947 582.538V665.615M240.947 582.538H320.93M240.947 665.615V748.692M240.947 665.615H320.93M240.947 748.692V831.769M240.947 748.692H320.93M240.947 831.769L240.947 914.846M240.947 831.769H320.93M240.947 914.846V997.923M240.947 914.846H320.93M240.947 997.923V1081M240.947 997.923H320.93M240.947 1081H320.93M320.93 1V84.0769M320.93 1H400.912M320.93 84.0769V167.154M320.93 84.0769H400.912M320.93 167.154V250.231M320.93 167.154L400.912 167.154M320.93 250.231V333.308M320.93 250.231H400.912M320.93 333.308V416.385M320.93 333.308H400.912M320.93 416.385V499.461M320.93 416.385H400.912M320.93 499.461L320.93 582.538M320.93 499.461H400.912M320.93 582.538V665.615M320.93 582.538H400.912M320.93 665.615V748.692M320.93 665.615H400.912M320.93 748.692V831.769M320.93 748.692H400.912M320.93 831.769V914.846M320.93 831.769H400.912M320.93 914.846V997.923M320.93 914.846H400.912M320.93 997.923V1081M320.93 997.923H400.912M320.93 1081H400.912M560.877 1V84.0769M560.877 1H480.895M560.877 1H640.86M560.877 84.0769V167.154M560.877 84.0769H480.895M560.877 84.0769L640.86 84.077M560.877 167.154V250.231M560.877 167.154H480.895M560.877 167.154H640.86M560.877 250.231V333.308M560.877 250.231L480.895 250.231M560.877 250.231H640.86M560.877 333.308V416.385M560.877 333.308H480.895M560.877 333.308H640.86M560.877 416.385V499.462M560.877 416.385H480.895M560.877 416.385H640.86M560.877 499.462L560.877 582.538M560.877 499.462L480.895 499.461M560.877 499.462H640.86M560.877 582.538V665.615M560.877 582.538L480.895 582.538M560.877 582.538H640.86M560.877 665.615V748.692M560.877 665.615L480.895 665.615M560.877 665.615H640.86M560.877 748.692V831.769M560.877 748.692H480.895M560.877 748.692H640.86M560.877 831.769V914.846M560.877 831.769L480.895 831.769M560.877 831.769H640.86M560.877 914.846V997.923M560.877 914.846L480.895 914.846M560.877 914.846H640.86M560.877 997.923V1081M560.877 997.923L480.895 997.923M560.877 997.923H640.86M560.877 1081H480.895M560.877 1081H640.86M800.825 1V84.077M800.825 1H720.842M800.825 1H880.807M800.825 84.077V167.154M800.825 84.077L720.842 84.077M800.825 84.077H880.807M800.825 167.154V250.231M800.825 167.154H720.842M800.825 167.154H880.807M800.825 250.231V333.308M800.825 250.231H720.842M800.825 250.231L880.807 250.231M800.825 333.308V416.385M800.825 333.308L720.842 333.308M800.825 333.308H880.807M800.825 416.385V499.462M800.825 416.385L720.842 416.385M800.825 416.385H880.807M800.825 499.462L800.825 582.538M800.825 499.462H720.842M800.825 499.462H880.807M800.825 582.538V665.615M800.825 582.538H720.842M800.825 582.538H880.807M800.825 665.615V748.692M800.825 665.615H720.842M800.825 665.615H880.807M800.825 748.692V831.769M800.825 748.692H720.842M800.825 748.692H880.807M800.825 831.769V914.846M800.825 831.769H720.842M800.825 831.769H880.807M800.825 914.846V997.923M800.825 914.846H720.842M800.825 914.846H880.807M800.825 997.923V1081M800.825 997.923H720.842M800.825 997.923H880.807M800.825 1081H720.842M800.825 1081H880.807M400.912 1V84.0769M400.912 1H480.895M400.912 84.0769V167.154M400.912 84.0769L480.895 84.0769M400.912 167.154V250.231M400.912 167.154H480.895M400.912 250.231V333.308M400.912 250.231H480.895M400.912 333.308V416.385M400.912 333.308H480.895M400.912 416.385V499.461M400.912 416.385H480.895M400.912 499.461L400.912 582.538M400.912 499.461H480.895M400.912 582.538V665.615M400.912 582.538H480.895M400.912 665.615V748.692M400.912 665.615H480.895M400.912 748.692V831.769M400.912 748.692H480.895M400.912 831.769V914.846M400.912 831.769H480.895M400.912 914.846V997.923M400.912 914.846H480.895M400.912 997.923V1081M400.912 997.923H480.895M400.912 1081H480.895M640.86 1V84.077M640.86 1H720.842M640.86 84.077V167.154M640.86 84.077H720.842M640.86 167.154V250.231M640.86 167.154L720.842 167.154M640.86 250.231V333.308M640.86 250.231H720.842M640.86 333.308V416.385M640.86 333.308H720.842M640.86 416.385V499.462M640.86 416.385H720.842M640.86 499.462L640.86 582.538M640.86 499.462H720.842M640.86 582.538V665.615M640.86 582.538H720.842M640.86 665.615V748.692M640.86 665.615H720.842M640.86 748.692V831.769M640.86 748.692H720.842M640.86 831.769V914.846M640.86 831.769H720.842M640.86 914.846V997.923M640.86 914.846H720.842M640.86 997.923V1081M640.86 997.923H720.842M640.86 1081H720.842M880.807 1V84.077M880.807 1H960.79M880.807 84.077V167.154M880.807 84.077L960.79 84.077M880.807 167.154V250.231M880.807 167.154L960.79 167.154M880.807 250.231V333.308M880.807 250.231H960.79M880.807 333.308V416.385M880.807 333.308H960.79M880.807 416.385V499.462M880.807 416.385H960.79M880.807 499.462V582.538M880.807 499.462H960.79M880.807 582.538V665.615M880.807 582.538H960.79M880.807 665.615V748.692M880.807 665.615H960.79M880.807 748.692V831.769M880.807 748.692H960.79M880.807 831.769V914.846M880.807 831.769H960.79M880.807 914.846V997.923M880.807 914.846H960.79M880.807 997.923V1081M880.807 997.923H960.79M880.807 1081H960.79M480.895 1V84.0769M480.895 84.0769V167.154M480.895 167.154V250.231M480.895 250.231L480.895 333.308M480.895 333.308V416.385M480.895 416.385V499.461M480.895 499.461V582.538M480.895 582.538V665.615M480.895 665.615V748.692M480.895 748.692L480.895 831.769M480.895 831.769V914.846M480.895 914.846V997.923M480.895 997.923V1081M720.842 1V84.077M720.842 84.077V167.154M720.842 167.154V250.231M720.842 250.231V333.308M720.842 333.308V416.385M720.842 416.385V499.462M720.842 499.462V582.538M720.842 582.538V665.615M720.842 665.615V748.692M720.842 748.692V831.769M720.842 831.769V914.846M720.842 914.846V997.923M720.842 997.923V1081M960.79 1V84.077M960.79 1H1040.77V1081H960.79M960.79 84.077V167.154M960.79 84.077H1040.77M960.79 167.154V250.231M960.79 167.154H1040.77M960.79 250.231V333.308M960.79 250.231H1040.77M960.79 333.308V416.385M960.79 333.308H1040.77M960.79 416.385V499.462M960.79 416.385H1040.77M960.79 499.462V582.538M960.79 499.462H1040.77M960.79 582.538V665.615M960.79 582.538H1040.77M960.79 665.615V748.692M960.79 665.615H1040.77M960.79 748.692V831.769M960.79 748.692H1040.77M960.79 831.769V914.846M960.79 831.769H1040.77M960.79 914.846V997.923M960.79 914.846H1040.77M960.79 997.923V1081M960.79 997.923H1040.77M641.21 1V84.0769M641.21 1H561.228V84.0769M641.21 1H721.193M641.21 84.0769V167.154M641.21 84.0769H561.228M641.21 84.0769L721.193 84.0769M641.21 167.154V250.231M641.21 167.154H561.228M641.21 167.154L721.193 167.154M641.21 250.231V333.308M641.21 250.231H561.228M641.21 250.231H721.193M641.21 333.308V416.385M641.21 333.308H561.228M641.21 333.308H721.193M641.21 416.385V499.461M641.21 416.385H561.228M641.21 416.385H721.193M641.21 499.461V582.538M641.21 499.461H561.228M641.21 499.461H721.193M641.21 582.538V665.615M641.21 582.538H561.228M641.21 582.538H721.193M641.21 665.615V748.692M641.21 665.615H561.228M641.21 665.615H721.193M641.21 748.692V831.769M641.21 748.692H561.228M641.21 748.692H721.193M641.21 831.769V914.846M641.21 831.769H561.228M641.21 831.769H721.193M641.21 914.846L641.21 997.923M641.21 914.846H561.228M641.21 914.846H721.193M641.21 997.923V1081M641.21 997.923H561.228M641.21 997.923H721.193M641.21 1081L561.228 1081V997.923M641.21 1081H721.193M561.228 84.0769V167.154M561.228 167.154V250.231M561.228 250.231V333.308M561.228 333.308V416.385M561.228 416.385V499.461M561.228 499.461V582.538M561.228 582.538V665.615M561.228 665.615V748.692M561.228 748.692V831.769M561.228 831.769V914.846M561.228 914.846V997.923M721.193 1V84.0769M721.193 1H801.175M721.193 84.0769V167.154M721.193 84.0769H801.175M721.193 167.154V250.231M721.193 167.154H801.175M721.193 250.231V333.308M721.193 250.231L801.175 250.231M721.193 333.308V416.385M721.193 333.308H801.175M721.193 416.385V499.461M721.193 416.385H801.175M721.193 499.461V582.538M721.193 499.461H801.175M721.193 582.538V665.615M721.193 582.538H801.175M721.193 665.615V748.692M721.193 665.615H801.175M721.193 748.692V831.769M721.193 748.692H801.175M721.193 831.769V914.846M721.193 831.769H801.175M721.193 914.846V997.923M721.193 914.846H801.175M721.193 997.923V1081M721.193 997.923H801.175M721.193 1081H801.175M801.175 1V84.0769M801.175 1H881.158M801.175 84.0769V167.154M801.175 84.0769L881.158 84.0769M801.175 167.154L801.175 250.231M801.175 167.154H881.158M801.175 250.231V333.308M801.175 250.231H881.158M801.175 333.308V416.385M801.175 333.308L881.158 333.308M801.175 416.385V499.461M801.175 416.385L881.158 416.385M801.175 499.461V582.538M801.175 499.461H881.158M801.175 582.538V665.615M801.175 582.538H881.158M801.175 665.615V748.692M801.175 665.615H881.158M801.175 748.692V831.769M801.175 748.692H881.158M801.175 831.769V914.846M801.175 831.769H881.158M801.175 914.846V997.923M801.175 914.846H881.158M801.175 997.923V1081M801.175 997.923H881.158M801.175 1081H881.158M881.158 1V84.0769M881.158 1H961.14M881.158 84.0769V167.154M881.158 84.0769H961.14M881.158 167.154V250.231M881.158 167.154L961.14 167.154M881.158 250.231V333.308M881.158 250.231H961.14M881.158 333.308V416.385M881.158 333.308H961.14M881.158 416.385V499.461M881.158 416.385H961.14M881.158 499.461L881.158 582.538M881.158 499.461H961.14M881.158 582.538V665.615M881.158 582.538H961.14M881.158 665.615V748.692M881.158 665.615H961.14M881.158 748.692V831.769M881.158 748.692H961.14M881.158 831.769V914.846M881.158 831.769H961.14M881.158 914.846V997.923M881.158 914.846H961.14M881.158 997.923V1081M881.158 997.923H961.14M881.158 1081H961.14M1121.1 1V84.0769M1121.1 1H1041.12M1121.1 1H1201.09M1121.1 84.0769V167.154M1121.1 84.0769H1041.12M1121.1 84.0769L1201.09 84.077M1121.1 167.154V250.231M1121.1 167.154H1041.12M1121.1 167.154H1201.09M1121.1 250.231V333.308M1121.1 250.231L1041.12 250.231M1121.1 250.231H1201.09M1121.1 333.308V416.385M1121.1 333.308H1041.12M1121.1 333.308H1201.09M1121.1 416.385V499.462M1121.1 416.385H1041.12M1121.1 416.385H1201.09M1121.1 499.462V582.538M1121.1 499.462L1041.12 499.461M1121.1 499.462H1201.09M1121.1 582.538V665.615M1121.1 582.538L1041.12 582.538M1121.1 582.538H1201.09M1121.1 665.615V748.692M1121.1 665.615L1041.12 665.615M1121.1 665.615H1201.09M1121.1 748.692V831.769M1121.1 748.692H1041.12M1121.1 748.692H1201.09M1121.1 831.769V914.846M1121.1 831.769L1041.12 831.769M1121.1 831.769H1201.09M1121.1 914.846V997.923M1121.1 914.846L1041.12 914.846M1121.1 914.846H1201.09M1121.1 997.923V1081M1121.1 997.923L1041.12 997.923M1121.1 997.923H1201.09M1121.1 1081H1041.12M1121.1 1081H1201.09M1361.05 1V84.077M1361.05 1H1281.07M1361.05 1H1441.04M1361.05 84.077V167.154M1361.05 84.077L1281.07 84.077M1361.05 84.077H1441.04M1361.05 167.154V250.231M1361.05 167.154H1281.07M1361.05 167.154H1441.04M1361.05 250.231V333.308M1361.05 250.231H1281.07M1361.05 250.231L1441.04 250.231M1361.05 333.308V416.385M1361.05 333.308L1281.07 333.308M1361.05 333.308H1441.04M1361.05 416.385V499.462M1361.05 416.385L1281.07 416.385M1361.05 416.385H1441.04M1361.05 499.462L1361.05 582.538M1361.05 499.462H1281.07M1361.05 499.462H1441.04M1361.05 582.538V665.615M1361.05 582.538H1281.07M1361.05 582.538H1441.04M1361.05 665.615V748.692M1361.05 665.615H1281.07M1361.05 665.615H1441.04M1361.05 748.692V831.769M1361.05 748.692H1281.07M1361.05 748.692H1441.04M1361.05 831.769V914.846M1361.05 831.769H1281.07M1361.05 831.769H1441.04M1361.05 914.846V997.923M1361.05 914.846H1281.07M1361.05 914.846H1441.04M1361.05 997.923V1081M1361.05 997.923H1281.07M1361.05 997.923H1441.04M1361.05 1081H1281.07M1361.05 1081H1441.04M961.14 1V84.0769M961.14 1H1041.12M961.14 84.0769V167.154M961.14 84.0769L1041.12 84.0769M961.14 167.154V250.231M961.14 167.154H1041.12M961.14 250.231V333.308M961.14 250.231H1041.12M961.14 333.308V416.385M961.14 333.308H1041.12M961.14 416.385V499.461M961.14 416.385H1041.12M961.14 499.461V582.538M961.14 499.461H1041.12M961.14 582.538V665.615M961.14 582.538H1041.12M961.14 665.615V748.692M961.14 665.615H1041.12M961.14 748.692V831.769M961.14 748.692H1041.12M961.14 831.769V914.846M961.14 831.769H1041.12M961.14 914.846V997.923M961.14 914.846H1041.12M961.14 997.923V1081M961.14 997.923H1041.12M961.14 1081H1041.12M1201.09 1V84.077M1201.09 1H1281.07M1201.09 84.077V167.154M1201.09 84.077H1281.07M1201.09 167.154V250.231M1201.09 167.154L1281.07 167.154M1201.09 250.231V333.308M1201.09 250.231H1281.07M1201.09 333.308V416.385M1201.09 333.308H1281.07M1201.09 416.385V499.462M1201.09 416.385H1281.07M1201.09 499.462V582.538M1201.09 499.462H1281.07M1201.09 582.538V665.615M1201.09 582.538H1281.07M1201.09 665.615V748.692M1201.09 665.615H1281.07M1201.09 748.692V831.769M1201.09 748.692H1281.07M1201.09 831.769V914.846M1201.09 831.769H1281.07M1201.09 914.846V997.923M1201.09 914.846H1281.07M1201.09 997.923V1081M1201.09 997.923H1281.07M1201.09 1081H1281.07M1441.04 1V84.077M1441.04 1H1521.02M1441.04 84.077V167.154M1441.04 84.077L1521.02 84.077M1441.04 167.154V250.231M1441.04 167.154L1521.02 167.154M1441.04 250.231V333.308M1441.04 250.231H1521.02M1441.04 333.308V416.385M1441.04 333.308H1521.02M1441.04 416.385V499.462M1441.04 416.385H1521.02M1441.04 499.462V582.538M1441.04 499.462H1521.02M1441.04 582.538V665.615M1441.04 582.538H1521.02M1441.04 665.615V748.692M1441.04 665.615H1521.02M1441.04 748.692V831.769M1441.04 748.692H1521.02M1441.04 831.769V914.846M1441.04 831.769H1521.02M1441.04 914.846V997.923M1441.04 914.846H1521.02M1441.04 997.923V1081M1441.04 997.923H1521.02M1441.04 1081H1521.02M1041.12 1V84.0769M1041.12 84.0769V167.154M1041.12 167.154V250.231M1041.12 250.231V333.308M1041.12 333.308V416.385M1041.12 416.385V499.461M1041.12 499.461V582.538M1041.12 582.538V665.615M1041.12 665.615V748.692M1041.12 748.692L1041.12 831.769M1041.12 831.769V914.846M1041.12 914.846V997.923M1041.12 997.923V1081M1281.07 1V84.077M1281.07 84.077V167.154M1281.07 167.154V250.231M1281.07 250.231V333.308M1281.07 333.308V416.385M1281.07 416.385V499.462M1281.07 499.462V582.538M1281.07 582.538V665.615M1281.07 665.615V748.692M1281.07 748.692V831.769M1281.07 831.769V914.846M1281.07 914.846V997.923M1281.07 997.923V1081M1521.02 1V84.077M1521.02 1H1601V1081H1521.02M1521.02 84.077V167.154M1521.02 84.077H1601M1521.02 167.154V250.231M1521.02 167.154H1601M1521.02 250.231V333.308M1521.02 250.231H1601M1521.02 333.308V416.385M1521.02 333.308H1601M1521.02 416.385V499.462M1521.02 416.385H1601M1521.02 499.462V582.538M1521.02 499.462H1601M1521.02 582.538V665.615M1521.02 582.538H1601M1521.02 665.615V748.692M1521.02 665.615H1601M1521.02 748.692V831.769M1521.02 748.692H1601M1521.02 831.769V914.846M1521.02 831.769H1601M1521.02 914.846V997.923M1521.02 914.846H1601M1521.02 997.923V1081M1521.02 997.923H1601" stroke="url(#paint0_linear_1_424)"/>
<defs>
<linearGradient id="paint0_linear_1_424" x1="1" y1="1" x2="1623.01" y2="987.817" gradientUnits="userSpaceOnUse">
<stop stop-color="white" stop-opacity="0.1"/>
<stop offset="1" stop-color="white" stop-opacity="0"/>
</linearGradient>
</defs>
</svg>
